<svg width="20" height="20" viewBox="0 0 20 20" fill="none" xmlns="http://www.w3.org/2000/svg">
<path d="M11.0414 0C12.8096 0.0035269 13.1911 0.0185015 14.0965 0.0599709C15.1594 0.108652 15.8855 0.274981 16.5184 0.522446C17.1756 0.778024 17.7314 1.11879 18.2871 1.67458C18.8389 2.2263 19.1796 2.78614 19.4352 3.43928C19.6786 4.07214 19.849 4.79831 19.8977 5.86119C19.9428 6.84534 19.9566 7.21039 19.9583 9.41031V10.5392C19.9566 12.7392 19.9428 13.1042 19.8977 14.0884C19.849 15.1512 19.6827 15.8774 19.4352 16.5103C19.1796 17.1675 18.8389 17.7233 18.2831 18.279C17.7273 18.8348 17.1715 19.1756 16.5143 19.4312C15.8815 19.6746 15.1553 19.845 14.0924 19.8936C13.0295 19.9423 12.6888 19.9545 9.97884 19.9545L9.68732 19.9544C7.24266 19.9535 6.88876 19.9405 5.86524 19.8936C4.80236 19.845 4.0762 19.6786 3.44334 19.4312C2.78614 19.1756 2.23036 18.8348 1.67458 18.279C1.11879 17.7233 0.778024 17.1675 0.522446 16.5103C0.279038 15.8774 0.108649 15.1512 0.059967 14.0884C0.0184976 13.183 0.0035269 12.8015 0 11.0333V8.9163C0.0035269 7.14802 0.0184976 6.7666 0.059967 5.86119C0.108649 4.79831 0.274981 4.07214 0.522446 3.43928C0.778024 2.78614 1.11879 2.2263 1.67458 1.67458C2.23036 1.11879 2.78614 0.778024 3.44334 0.522446C4.0762 0.274981 4.80236 0.104596 5.8693 0.0599709C6.77472 0.0185015 7.15613 0.0035269 8.92442 0H11.0414ZM10.2655 1.79631H9.6922C7.28908 1.79694 6.95818 1.8062 5.94638 1.85308C4.97275 1.8977 4.44536 2.05997 4.09242 2.1979C3.62589 2.38046 3.29324 2.59547 2.94435 2.94435C2.59547 3.29324 2.38045 3.62589 2.1979 4.09243C2.05997 4.44537 1.8977 4.97275 1.85307 5.94638C1.80845 6.99709 1.79628 7.31352 1.79628 9.97884C1.79628 12.6441 1.80439 12.9606 1.85307 14.0113C1.8977 14.9849 2.05997 15.5123 2.1979 15.8652C2.38045 16.3318 2.59547 16.6644 2.94435 17.0133C3.29324 17.3622 3.62589 17.5772 4.09242 17.7598C4.44536 17.8977 4.97275 18.06 5.94638 18.1046C6.99709 18.1492 7.31352 18.1614 9.97884 18.1614L10.2655 18.1614C12.6686 18.1607 12.9995 18.1515 14.0113 18.1046C14.9849 18.06 15.5123 17.8977 15.8652 17.7598C16.3318 17.5772 16.6644 17.3622 17.0133 17.0133C17.3622 16.6644 17.5772 16.3318 17.7598 15.8652C17.8977 15.5123 18.06 14.9849 18.1046 14.0113C18.1492 12.9606 18.1614 12.6441 18.1614 9.97884L18.1614 9.6922C18.1607 7.28907 18.1515 6.95818 18.1046 5.94638C18.06 4.97275 17.8977 4.44537 17.7598 4.09243C17.5772 3.62589 17.3622 3.29324 17.0133 2.94435C16.6644 2.59547 16.3318 2.38046 15.8652 2.1979C15.5123 2.05997 14.9849 1.8977 14.0113 1.85308C12.9606 1.80439 12.6442 1.79628 9.97884 1.79628L10.2655 1.79631ZM9.97884 4.8551C12.8105 4.8551 15.1026 7.15125 15.1026 9.97884C15.1026 12.8064 12.8064 15.1026 9.97884 15.1026C7.15125 15.1026 4.8551 12.8105 4.8551 9.97884C4.8551 7.14719 7.14719 4.8551 9.97884 4.8551ZM9.97884 6.65226C8.14111 6.65226 6.65226 8.14111 6.65226 9.97884C6.65226 11.8166 8.14111 13.3054 9.97884 13.3054C11.8166 13.3054 13.3054 11.8166 13.3054 9.97884C13.3054 8.14111 11.8166 6.65226 9.97884 6.65226ZM15.3095 3.45551C15.9704 3.45551 16.5062 3.99131 16.5062 4.65226C16.5062 5.31321 15.9704 5.84902 15.3095 5.84902C14.6485 5.84902 14.1127 5.31321 14.1127 4.65226C14.1127 3.99131 14.6485 3.45551 15.3095 3.45551Z" fill="#747AE7"/>
</svg>
