<svg width="21" height="16" viewBox="0 0 21 16" fill="none" xmlns="http://www.w3.org/2000/svg">
<path d="M20.6665 1.8854C19.9306 2.20517 19.1398 2.42128 18.3098 2.51851C19.1571 2.0209 19.8076 1.23292 20.1139 0.294048C19.3085 0.7624 18.4273 1.09238 17.5084 1.26974C16.7599 0.488345 15.6935 0 14.5133 0C12.2472 0 10.4099 1.80027 10.4099 4.02067C10.4099 4.33585 10.4463 4.64268 10.5162 4.93703C7.10603 4.7693 4.0826 3.16861 2.05877 0.736C1.70564 1.32984 1.5033 2.02059 1.5033 2.75736C1.5033 4.15234 2.22775 5.38297 3.32869 6.10404C2.67709 6.08404 2.03982 5.91159 1.4701 5.60107C1.46986 5.61791 1.46986 5.63476 1.46986 5.65167C1.46986 7.59977 2.88424 9.22488 4.76127 9.59426C4.15704 9.75528 3.52325 9.77885 2.9083 9.66316C3.43041 11.2606 4.9458 12.423 6.74127 12.4555C5.33697 13.5339 3.56768 14.1767 1.64533 14.1767C1.31408 14.1767 0.98752 14.1576 0.666504 14.1205C2.48236 15.2613 4.63916 15.927 6.95635 15.927C14.5038 15.927 18.6309 9.80019 18.6309 4.48697C18.6309 4.31257 18.627 4.13918 18.619 3.96678C19.4223 3.39773 20.1157 2.69291 20.6665 1.8854Z" fill="#747AE7"/>
</svg>
