<svg width="27" height="18" viewBox="0 0 27 18" fill="none" xmlns="http://www.w3.org/2000/svg">
<path d="M14.2639 6.19888e-05C15.9884 0.00969359 22.147 0.0771146 23.8715 0.549065C24.9727 0.845546 25.841 1.71381 26.1375 2.81503C26.6094 4.53946 26.6613 7.86645 26.6665 8.78183L26.6662 9.17398C26.6601 9.94533 26.6065 13.4218 26.1375 15.2037C25.841 16.3049 24.9727 17.1732 23.8715 17.4697C21.9418 17.9775 14.4592 17.9982 13.8515 17.9991H13.7731C13.1671 17.9982 5.70313 17.9766 3.7531 17.4485C2.65188 17.152 1.78362 16.2838 1.48714 15.1825C1.01821 13.4194 0.964621 9.92844 0.958496 9.15354V8.84477C0.964621 8.07342 1.01821 4.59694 1.48714 2.81503C1.78362 1.71381 2.67306 0.824369 3.7531 0.527887C5.47753 0.0740893 11.6362 0.0092612 13.3607 0L14.2639 6.19888e-05ZM11.2498 5.14453V12.853L17.9418 8.99878L11.2498 5.14453Z" fill="#747AE7"/>
</svg>
