<svg width="18" height="16" viewBox="0 0 18 16" fill="none" xmlns="http://www.w3.org/2000/svg">
<path d="M16.4612 7.0227C17.0647 7.0227 17.3167 6.24731 16.8264 5.88989L9.36744 0.464111C9.26092 0.386068 9.1323 0.343994 9.00025 0.343994C8.8682 0.343994 8.73959 0.386068 8.63307 0.464111L1.17408 5.88989C0.683847 6.24536 0.9358 7.0227 1.54127 7.0227H2.75025V14.3274H1.344C1.25807 14.3274 1.18775 14.3977 1.18775 14.4836V15.4993C1.18775 15.5852 1.25807 15.6555 1.344 15.6555H16.6565C16.7424 15.6555 16.8128 15.5852 16.8128 15.4993V14.4836C16.8128 14.3977 16.7424 14.3274 16.6565 14.3274H15.2503V7.0227H16.4612ZM9.00025 1.84106L14.2952 5.69263H3.70533L9.00025 1.84106ZM4.1565 7.0227H6.44166V14.3274H4.1565V7.0227ZM7.84791 7.0227H10.1331V14.3274H7.84791V7.0227ZM13.844 14.3274H11.5393V7.0227H13.844V14.3274Z" fill="white"/>
</svg>
