<svg width="10" height="18" viewBox="0 0 10 18" fill="none" xmlns="http://www.w3.org/2000/svg">
<path d="M1.23779 14V3.33594H4.72412C5.88135 3.33594 6.75049 3.5752 7.33154 4.05371C7.91748 4.53223 8.21045 5.24023 8.21045 6.17773C8.21045 6.67578 8.06885 7.11768 7.78564 7.50342C7.50244 7.88428 7.1167 8.17969 6.62842 8.38965C7.20459 8.55078 7.65869 8.8584 7.99072 9.3125C8.32764 9.76172 8.49609 10.2988 8.49609 10.9238C8.49609 11.8809 8.18604 12.6328 7.56592 13.1797C6.9458 13.7266 6.06934 14 4.93652 14H1.23779ZM2.64404 9.01221V12.8501H4.96582C5.62012 12.8501 6.13525 12.6816 6.51123 12.3447C6.89209 12.0029 7.08252 11.5342 7.08252 10.9385C7.08252 9.6543 6.38428 9.01221 4.98779 9.01221H2.64404ZM2.64404 7.88428H4.76807C5.3833 7.88428 5.87402 7.73047 6.24023 7.42285C6.61133 7.11523 6.79688 6.69775 6.79688 6.17041C6.79688 5.58447 6.62598 5.15967 6.28418 4.896C5.94238 4.62744 5.42236 4.49316 4.72412 4.49316H2.64404V7.88428Z" fill="#5156A6"/>
<path d="M3 2V3.5" stroke="#5156A6"/>
<path d="M3 14V15.5" stroke="#5156A6"/>
<path d="M5 2V3.5" stroke="#5156A6"/>
<path d="M5 14V15.5" stroke="#5156A6"/>
</svg>
