<svg width="22" height="22" viewBox="0 0 22 22" fill="none" xmlns="http://www.w3.org/2000/svg">
<path fill-rule="evenodd" clip-rule="evenodd" d="M9 4.3V5H8V15H9V15.7C9 15.8657 9.13431 16 9.3 16H9.7C9.86569 16 10 15.8657 10 15.7V15H11.5V15.7C11.5 15.8657 11.6343 16 11.8 16H12.2C12.3657 16 12.5 15.8657 12.5 15.7V14.9281C13.1535 14.8192 13.6878 14.5868 14.1029 14.2308C14.701 13.7179 15 13.0128 15 12.1154C15 11.5293 14.8375 11.0256 14.5126 10.6044C14.1924 10.1786 13.7545 9.89011 13.1988 9.73901C13.6697 9.54212 14.0417 9.26511 14.3148 8.90797C14.588 8.54625 14.7245 8.13187 14.7245 7.66484C14.7245 6.78571 14.442 6.12179 13.8769 5.67308C13.5265 5.39253 13.0676 5.19968 12.5 5.09454V4.3C12.5 4.13431 12.3657 4 12.2 4H11.8C11.6343 4 11.5 4.13431 11.5 4.3V5.00116C11.4546 5.00039 11.4087 5 11.3623 5H10V4.3C10 4.13431 9.86569 4 9.7 4H9.3C9.13431 4 9 4.13431 9 4.3ZM9.35621 10.3228V13.9217H11.5954C12.2264 13.9217 12.7232 13.7637 13.0858 13.4478C13.4531 13.1273 13.6367 12.6877 13.6367 12.1291C13.6367 10.9249 12.9633 10.3228 11.6165 10.3228H9.35621ZM9.35621 9.26511H11.4046C11.998 9.26511 12.4712 9.12088 12.8244 8.83242C13.1823 8.54396 13.3613 8.15247 13.3613 7.65797C13.3613 7.10852 13.1964 6.71016 12.8668 6.46291C12.5372 6.21108 12.0357 6.08516 11.3623 6.08516H9.35621V9.26511Z" fill="white"/>
<path d="M21 13L18.7778 14.7778L17.6667 15.6667M1 13L3.22222 14.7778L4.33333 15.6667M4.33333 15.6667L11 21L17.6667 15.6667M4.33333 15.6667L4.33333 7C4.33334 4.17157 4.33334 2.75736 5.21202 1.87868C6.09069 0.999999 7.50491 0.999999 10.3333 0.999999L11.6667 0.999999C14.4951 0.999999 15.9093 1 16.788 1.87868C17.6667 2.75736 17.6667 4.17157 17.6667 7L17.6667 15.6667" stroke="white"/>
</svg>
