<svg width="16" height="16" viewBox="0 0 16 16" fill="none" xmlns="http://www.w3.org/2000/svg">
<path d="M7.15635 8C7.15635 8.22378 7.24524 8.43839 7.40348 8.59662C7.56171 8.75486 7.77632 8.84375 8.0001 8.84375C8.22388 8.84375 8.43849 8.75486 8.59672 8.59662C8.75495 8.43839 8.84385 8.22378 8.84385 8C8.84385 7.77622 8.75495 7.56161 8.59672 7.40338C8.43849 7.24514 8.22388 7.15625 8.0001 7.15625C7.77632 7.15625 7.56171 7.24514 7.40348 7.40338C7.24524 7.56161 7.15635 7.77622 7.15635 8ZM10.672 8C10.672 8.22378 10.7609 8.43839 10.9191 8.59662C11.0773 8.75486 11.2919 8.84375 11.5157 8.84375C11.7395 8.84375 11.9541 8.75486 12.1123 8.59662C12.2706 8.43839 12.3595 8.22378 12.3595 8C12.3595 7.77622 12.2706 7.56161 12.1123 7.40338C11.9541 7.24514 11.7395 7.15625 11.5157 7.15625C11.2919 7.15625 11.0773 7.24514 10.9191 7.40338C10.7609 7.56161 10.672 7.77622 10.672 8ZM3.64072 8C3.64072 8.22378 3.72962 8.43839 3.88785 8.59662C4.04609 8.75486 4.2607 8.84375 4.48447 8.84375C4.70825 8.84375 4.92286 8.75486 5.0811 8.59662C5.23933 8.43839 5.32822 8.22378 5.32822 8C5.32822 7.77622 5.23933 7.56161 5.0811 7.40338C4.92286 7.24514 4.70825 7.15625 4.48447 7.15625C4.2607 7.15625 4.04609 7.24514 3.88785 7.40338C3.72962 7.56161 3.64072 7.77622 3.64072 8ZM15.2634 4.94844C14.8661 4.00449 14.2966 3.15723 13.5706 2.42949C12.8497 1.70597 11.9939 1.13086 11.0517 0.736719C10.0849 0.330664 9.0583 0.125 8.0001 0.125H7.96494C6.89971 0.130273 5.86787 0.341211 4.89756 0.756055C3.96338 1.15424 3.1156 1.73037 2.40147 2.45234C1.68252 3.17832 1.11826 4.02207 0.728029 4.9625C0.323733 5.93633 0.119826 6.97168 0.1251 8.03691C0.131064 9.25766 0.41987 10.4604 0.96885 11.5508V14.2227C0.96885 14.4371 1.05404 14.6428 1.20568 14.7944C1.35732 14.9461 1.56299 15.0312 1.77744 15.0312H4.45108C5.54144 15.5802 6.74419 15.869 7.96494 15.875H8.00186C9.05479 15.875 10.0761 15.6711 11.0376 15.2721C11.9751 14.8826 12.8277 14.3142 13.5478 13.5986C14.2737 12.8797 14.845 12.0395 15.244 11.1025C15.6589 10.1322 15.8698 9.10039 15.8751 8.03516C15.8804 6.96465 15.673 5.92578 15.2634 4.94844ZM12.6073 12.6477C11.3751 13.8676 9.74033 14.5391 8.0001 14.5391H7.97022C6.91026 14.5338 5.85733 14.2701 4.92744 13.7744L4.77979 13.6953H2.30479V11.2203L2.22569 11.0727C1.72998 10.1428 1.46631 9.08984 1.46104 8.02988C1.45401 6.27734 2.12373 4.63203 3.35244 3.39277C4.5794 2.15352 6.21944 1.46797 7.97197 1.46094H8.00186C8.88076 1.46094 9.7333 1.63145 10.5366 1.96895C11.3206 2.29766 12.0237 2.77051 12.6284 3.3752C13.2313 3.97812 13.706 4.68301 14.0347 5.46699C14.3757 6.2791 14.5462 7.14043 14.5427 8.02988C14.5321 9.78066 13.8448 11.4207 12.6073 12.6477Z" fill="#B0B4FF"/>
</svg>
