<svg width="14" height="18" viewBox="0 0 14 18" fill="none" xmlns="http://www.w3.org/2000/svg">
<path d="M13.6914 4.63672L9.48828 0.433594C9.37109 0.316406 9.21289 0.25 9.04688 0.25H0.75C0.404297 0.25 0.125 0.529297 0.125 0.875V17.125C0.125 17.4707 0.404297 17.75 0.75 17.75H13.25C13.5957 17.75 13.875 17.4707 13.875 17.125V5.08008C13.875 4.91406 13.8086 4.75391 13.6914 4.63672ZM12.4336 5.36719H8.75781V1.69141L12.4336 5.36719ZM12.4688 16.3438H1.53125V1.65625H7.42969V5.875C7.42969 6.09256 7.51611 6.30121 7.66995 6.45505C7.82379 6.60889 8.03244 6.69531 8.25 6.69531H12.4688V16.3438ZM6.21875 13.5312C6.21875 13.7385 6.30106 13.9372 6.44757 14.0837C6.59409 14.2302 6.7928 14.3125 7 14.3125C7.2072 14.3125 7.40591 14.2302 7.55243 14.0837C7.69894 13.9372 7.78125 13.7385 7.78125 13.5312C7.78125 13.324 7.69894 13.1253 7.55243 12.9788C7.40591 12.8323 7.2072 12.75 7 12.75C6.7928 12.75 6.59409 12.8323 6.44757 12.9788C6.30106 13.1253 6.21875 13.324 6.21875 13.5312ZM6.53125 11.5H7.46875C7.55469 11.5 7.625 11.4297 7.625 11.3438V7.75C7.625 7.66406 7.55469 7.59375 7.46875 7.59375H6.53125C6.44531 7.59375 6.375 7.66406 6.375 7.75V11.3438C6.375 11.4297 6.44531 11.5 6.53125 11.5Z" fill="white"/>
</svg>
