<svg width="16" height="16" viewBox="0 0 16 16" fill="none" xmlns="http://www.w3.org/2000/svg">
<path d="M14.5725 7.61828C14.6357 7.40734 14.6674 7.18937 14.6674 6.96789C14.6674 6.47042 14.5039 5.9923 14.2086 5.60207C14.2719 5.39113 14.3035 5.17316 14.3035 4.95167C14.3035 4.45421 14.14 3.97609 13.8447 3.58585C13.908 3.37492 13.9396 3.15695 13.9396 2.93546C13.9396 2.02843 13.4 1.21105 12.5633 0.854214C12.4162 0.790807 12.2576 0.75849 12.0975 0.759292H1.53125C1.22012 0.759292 0.96875 1.01066 0.96875 1.32179V7.72023C0.96875 8.03136 1.22012 8.28273 1.53125 8.28273H3.8041L5.3123 13.746C5.55488 14.6267 6.36348 15.2419 7.27754 15.2419C7.79961 15.2419 8.28652 15.0345 8.64687 14.6548C9.00723 14.2769 9.1918 13.7812 9.16543 13.2591L9.05996 11.0987H13.277C13.4896 11.0987 13.6971 11.0425 13.8799 10.9353C14.59 10.5222 15.0312 9.77335 15.0312 8.9841C15.0312 8.48664 14.8678 8.00851 14.5725 7.61828ZM2.23438 7.01535V2.02316H3.6582V7.01535H2.23438ZM13.2594 9.83488H7.73281L7.90156 13.3224C7.91211 13.5316 7.81894 13.7284 7.64492 13.8585C7.53769 13.9376 7.40586 13.978 7.27402 13.9763C7.10559 13.9747 6.94224 13.9184 6.80848 13.816C6.67473 13.7137 6.57779 13.5707 6.53223 13.4085L4.7832 7.0716V2.02316H12.0852C12.2609 2.1019 12.4101 2.22973 12.5149 2.39126C12.6196 2.5528 12.6755 2.74116 12.6758 2.93371C12.6758 3.10421 12.6354 3.26593 12.5545 3.41359L12.3102 3.86007L12.6951 4.19406C12.8035 4.2879 12.8903 4.40399 12.9498 4.53443C13.0092 4.66486 13.0399 4.80657 13.0396 4.94992C13.0396 5.12042 12.9992 5.28214 12.9184 5.4298L12.674 5.87628L13.059 6.21027C13.1673 6.30411 13.2542 6.42021 13.3137 6.55064C13.3731 6.68107 13.4038 6.82278 13.4035 6.96613C13.4035 7.13664 13.3631 7.29835 13.2822 7.44601L13.0361 7.89425L13.4211 8.22824C13.5294 8.32208 13.6163 8.43817 13.6758 8.56861C13.7352 8.69904 13.7659 8.84075 13.7656 8.9841C13.7656 9.31984 13.5723 9.64328 13.2594 9.83488Z" fill="#CF1322"/>
</svg>
