<svg width="34" height="34" viewBox="0 0 34 34" fill="none" xmlns="http://www.w3.org/2000/svg">
<g clip-path="url(#clip0_1104_24172)">
<path d="M20.5797 19.519L18.0607 16.9999L20.5797 14.4809C20.6526 14.408 20.6526 14.2886 20.5797 14.2157L19.7842 13.4202C19.7113 13.3473 19.592 13.3473 19.5191 13.4202L17 15.9393L14.4809 13.4202C14.408 13.3473 14.2887 13.3473 14.2158 13.4202L13.4203 14.2157C13.3474 14.2886 13.3474 14.408 13.4203 14.4809L15.9393 16.9999L13.4203 19.519C13.3474 19.5919 13.3474 19.7113 13.4203 19.7842L14.2158 20.5797C14.2887 20.6526 14.408 20.6526 14.4809 20.5797L17 18.0606L19.5191 20.5797C19.592 20.6526 19.7113 20.6526 19.7842 20.5797L20.5797 19.7842C20.6526 19.7113 20.6526 19.5919 20.5797 19.519Z" fill="#747AE7"/>
<path d="M24.4246 9.57526C20.3245 5.47514 13.6755 5.47514 9.57538 9.57526C5.47526 13.6754 5.47526 20.3244 9.57538 24.4245C13.6755 28.5246 20.3245 28.5246 24.4246 24.4245C28.5247 20.3244 28.5247 13.6754 24.4246 9.57526ZM10.8349 23.165C7.43086 19.7609 7.43086 14.2388 10.8349 10.8348C14.239 7.43073 19.761 7.43073 23.1651 10.8348C26.5691 14.2388 26.5691 19.7609 23.1651 23.165C19.761 26.569 14.239 26.569 10.8349 23.165Z" fill="#747AE7"/>
</g>
<defs>
<clipPath id="clip0_1104_24172">
<rect width="24" height="24" fill="white" transform="translate(17 0.0292969) rotate(45)"/>
</clipPath>
</defs>
</svg>
