<svg width="14" height="14" viewBox="0 0 14 14" fill="none" xmlns="http://www.w3.org/2000/svg">
<path d="M13.6146 11.3137H12.6689C12.5951 11.3137 12.5336 11.3752 12.5336 11.449V12.5354H1.46465V1.46465H12.5354V2.55098C12.5354 2.6248 12.5969 2.68633 12.6707 2.68633H13.6164C13.6902 2.68633 13.7518 2.62656 13.7518 2.55098V0.789648C13.7518 0.49082 13.5109 0.25 13.2121 0.25H0.789648C0.49082 0.25 0.25 0.49082 0.25 0.789648V13.2104C0.25 13.5092 0.49082 13.75 0.789648 13.75H13.2104C13.5092 13.75 13.75 13.5092 13.75 13.2104V11.449C13.75 11.3734 13.6885 11.3137 13.6146 11.3137ZM13.9416 6.88926L11.4473 4.92051C11.3541 4.84668 11.2188 4.91348 11.2188 5.03125V6.36719H5.69922C5.62187 6.36719 5.55859 6.43047 5.55859 6.50781V7.49219C5.55859 7.56953 5.62187 7.63281 5.69922 7.63281H11.2188V8.96875C11.2188 9.08652 11.3559 9.15332 11.4473 9.07949L13.9416 7.11074C13.9584 7.09759 13.972 7.08078 13.9814 7.06159C13.9907 7.04241 13.9956 7.02134 13.9956 7C13.9956 6.97866 13.9907 6.95759 13.9814 6.93841C13.972 6.91922 13.9584 6.90241 13.9416 6.88926Z" fill="#FF7875"/>
</svg>
