<svg width="25" height="26" viewBox="0 0 25 26" fill="none" xmlns="http://www.w3.org/2000/svg">
<path d="M16.6477 21.2229L16.0723 21.0527L18.4826 12.9016C19.4829 9.51893 17.8098 5.98178 14.694 4.55468L14.9691 3.6245C15.1258 3.09468 14.8235 2.53865 14.2937 2.38198C13.7639 2.22531 13.2079 2.52754 13.0512 3.05736L12.7761 3.98755C9.38536 3.49063 6.05758 5.54897 5.05729 8.93167L2.64696 17.0828L2.07159 16.9126C1.64725 16.7871 1.20305 17.0286 1.07757 17.4529L0.850713 18.2201C0.81952 18.3256 0.880305 18.4374 0.98579 18.4686L8.08203 20.567C7.64392 22.0486 8.49152 23.6079 9.9731 24.0461C11.4547 24.4842 13.014 23.6366 13.4522 22.155L16.7126 23.1191C16.8181 23.1503 16.9299 23.0895 16.9611 22.984L17.188 22.2169C17.3134 21.7925 17.072 21.3483 16.6477 21.2229Z" fill="#747AE7"/>
<circle cx="20" cy="10" r="4" fill="#CF1322" stroke="white" stroke-width="2"/>
</svg>
