<svg width="16" height="14" viewBox="0 0 16 14" fill="none" xmlns="http://www.w3.org/2000/svg">
<path d="M15.3125 0.8125H0.6875C0.376367 0.8125 0.125 1.06387 0.125 1.375V12.625C0.125 12.9361 0.376367 13.1875 0.6875 13.1875H15.3125C15.6236 13.1875 15.875 12.9361 15.875 12.625V1.375C15.875 1.06387 15.6236 0.8125 15.3125 0.8125ZM14.6094 11.9219H1.39062V2.07812H14.6094V11.9219ZM9.72793 6.36719H11.8971C11.9199 6.36719 11.9375 6.30391 11.9375 6.22656V5.38281C11.9375 5.30547 11.9199 5.24219 11.8971 5.24219H9.72793C9.70508 5.24219 9.6875 5.30547 9.6875 5.38281V6.22656C9.6875 6.30391 9.70508 6.36719 9.72793 6.36719ZM9.8123 8.89844H13.0766C13.1451 8.89844 13.2014 8.83516 13.2014 8.75781V7.91406C13.2014 7.83672 13.1451 7.77344 13.0766 7.77344H9.8123C9.74375 7.77344 9.6875 7.83672 9.6875 7.91406V8.75781C9.6875 8.83516 9.74375 8.89844 9.8123 8.89844ZM2.9375 9.83008H3.70918C3.78301 9.83008 3.84277 9.77207 3.84805 9.69824C3.91484 8.81055 4.65664 8.10742 5.55664 8.10742C6.45664 8.10742 7.19844 8.81055 7.26523 9.69824C7.27051 9.77207 7.33027 9.83008 7.4041 9.83008H8.17578C8.19486 9.8301 8.21373 9.82625 8.23127 9.81874C8.24881 9.81124 8.26463 9.80025 8.27779 9.78644C8.29094 9.77262 8.30115 9.75628 8.30779 9.7384C8.31443 9.72052 8.31736 9.70147 8.31641 9.68242C8.26719 8.74551 7.75391 7.92988 7.00508 7.46582C7.3353 7.10282 7.51777 6.6294 7.5166 6.13867C7.5166 5.05059 6.63945 4.16992 5.5584 4.16992C4.47734 4.16992 3.6002 5.05059 3.6002 6.13867C3.6002 6.6502 3.79355 7.11426 4.11172 7.46582C3.7305 7.70205 3.41212 8.02705 3.18377 8.41304C2.95542 8.79903 2.82388 9.23456 2.80039 9.68242C2.79336 9.76328 2.85664 9.83008 2.9375 9.83008ZM5.55664 5.22461C6.05762 5.22461 6.46543 5.63418 6.46543 6.13867C6.46543 6.64316 6.05762 7.05273 5.55664 7.05273C5.05566 7.05273 4.64785 6.64316 4.64785 6.13867C4.64785 5.63418 5.05566 5.22461 5.55664 5.22461Z" fill="#B0B4FF"/>
</svg>
