<svg width="16" height="16" viewBox="0 0 16 16" fill="none" xmlns="http://www.w3.org/2000/svg">
<path d="M14.5725 8.382C14.8678 7.99176 15.0312 7.51364 15.0312 7.01618C15.0312 6.22692 14.59 5.47985 13.8799 5.06325C13.6971 4.95601 13.4889 4.89957 13.277 4.89977H9.06172L9.16719 2.73942C9.1918 2.21735 9.00723 1.72164 8.64863 1.34371C8.47265 1.15744 8.26034 1.00923 8.02481 0.908243C7.78929 0.807261 7.53556 0.755651 7.2793 0.756605C6.36523 0.756605 5.55664 1.37184 5.31406 2.2525L3.8041 7.7193H1.53125C1.22012 7.7193 0.96875 7.97067 0.96875 8.2818V14.6802C0.96875 14.9914 1.22012 15.2427 1.53125 15.2427H12.101C12.2627 15.2427 12.4209 15.2111 12.5668 15.1478C13.4035 14.791 13.9432 13.9736 13.9432 13.0666C13.9432 12.8451 13.9115 12.6271 13.8482 12.4162C14.1436 12.0259 14.307 11.5478 14.307 11.0504C14.307 10.8289 14.2754 10.6109 14.2121 10.4C14.5074 10.0097 14.6709 9.53161 14.6709 9.03414C14.6674 8.81266 14.6357 8.59293 14.5725 8.382ZM2.23438 13.9771V8.98493H3.6582V13.9771H2.23438ZM13.4211 7.77204L13.0361 8.10602L13.2805 8.5525C13.361 8.69958 13.4027 8.86473 13.4018 9.03239C13.4018 9.32243 13.2752 9.5984 13.0572 9.78825L12.6723 10.1222L12.9166 10.5687C12.9971 10.7158 13.0388 10.8809 13.0379 11.0486C13.0379 11.3386 12.9113 11.6146 12.6934 11.8045L12.3084 12.1384L12.5527 12.5849C12.6332 12.732 12.675 12.8971 12.674 13.0648C12.674 13.4586 12.442 13.8136 12.0834 13.9754H4.7832V8.92868L6.53223 2.59176C6.57733 2.42934 6.67414 2.28605 6.808 2.18359C6.94185 2.08114 7.10546 2.0251 7.27402 2.02399C7.40762 2.02399 7.53945 2.06266 7.64492 2.14176C7.81894 2.27184 7.91211 2.46871 7.90156 2.67789L7.73281 6.16539H13.2594C13.5723 6.357 13.7656 6.68043 13.7656 7.01618C13.7656 7.30621 13.6391 7.58043 13.4211 7.77204Z" fill="#389E0D"/>
</svg>
