<svg width="22" height="22" viewBox="0 0 22 22" fill="none" xmlns="http://www.w3.org/2000/svg">
<circle cx="11" cy="11" r="10" stroke="#B0B4FF"/>
<path d="M10.0682 13.6285C10.0785 13.0168 10.1478 12.5337 10.2763 12.179C10.4048 11.8244 10.667 11.4312 11.0627 10.9994L12.0727 9.95864C12.5044 9.47036 12.7203 8.9461 12.7203 8.38586C12.7203 7.84618 12.579 7.42471 12.2963 7.12147C12.0136 6.81308 11.6024 6.65888 11.0627 6.65888C10.5385 6.65888 10.117 6.79766 9.79834 7.07521C9.47967 7.35276 9.32034 7.72539 9.32034 8.19312H7.89404C7.90432 7.36047 8.19986 6.68972 8.78066 6.18088C9.3666 5.6669 10.1273 5.40991 11.0627 5.40991C12.0342 5.40991 12.7897 5.67204 13.3294 6.1963C13.8742 6.71542 14.1466 7.42985 14.1466 8.3396C14.1466 9.23907 13.7303 10.1257 12.8976 10.9994L12.0573 11.8321C11.6821 12.2484 11.4945 12.8472 11.4945 13.6285H10.0682ZM10.0065 16.0724C10.0065 15.8411 10.0759 15.6484 10.2147 15.4942C10.3586 15.3349 10.5693 15.2552 10.8469 15.2552C11.1244 15.2552 11.3351 15.3349 11.4791 15.4942C11.623 15.6484 11.6949 15.8411 11.6949 16.0724C11.6949 16.3037 11.623 16.4965 11.4791 16.6507C11.3351 16.7997 11.1244 16.8742 10.8469 16.8742C10.5693 16.8742 10.3586 16.7997 10.2147 16.6507C10.0759 16.4965 10.0065 16.3037 10.0065 16.0724Z" fill="#656AC5"/>
</svg>
