<svg width="22" height="22" viewBox="0 0 22 22" fill="none" xmlns="http://www.w3.org/2000/svg">
<path fill-rule="evenodd" clip-rule="evenodd" d="M9 6.3V7H8V17H9V17.7C9 17.8657 9.13431 18 9.3 18H9.7C9.86569 18 10 17.8657 10 17.7V17H11.5V17.7C11.5 17.8657 11.6343 18 11.8 18H12.2C12.3657 18 12.5 17.8657 12.5 17.7V16.9281C13.1535 16.8192 13.6878 16.5868 14.1029 16.2308C14.701 15.7179 15 15.0128 15 14.1154C15 13.5293 14.8375 13.0256 14.5126 12.6044C14.1924 12.1786 13.7545 11.8901 13.1988 11.739C13.6697 11.5421 14.0417 11.2651 14.3148 10.908C14.588 10.5462 14.7245 10.1319 14.7245 9.66484C14.7245 8.78571 14.442 8.12179 13.8769 7.67308C13.5265 7.39253 13.0676 7.19968 12.5 7.09454V6.3C12.5 6.13431 12.3657 6 12.2 6H11.8C11.6343 6 11.5 6.13431 11.5 6.3V7.00116C11.4546 7.00039 11.4087 7 11.3623 7H10V6.3C10 6.13431 9.86569 6 9.7 6H9.3C9.13431 6 9 6.13431 9 6.3ZM9.35621 12.3228V15.9217H11.5954C12.2264 15.9217 12.7232 15.7637 13.0858 15.4478C13.4531 15.1273 13.6367 14.6877 13.6367 14.1291C13.6367 12.9249 12.9633 12.3228 11.6165 12.3228H9.35621ZM9.35621 11.2651H11.4046C11.998 11.2651 12.4712 11.1209 12.8244 10.8324C13.1823 10.544 13.3613 10.1525 13.3613 9.65797C13.3613 9.10852 13.1964 8.71016 12.8668 8.46291C12.5372 8.21108 12.0357 8.08516 11.3623 8.08516H9.35621V11.2651Z" fill="white"/>
<path d="M1 9L3.22222 7.22222L4.33333 6.33333M21 9L18.7778 7.22222L17.6667 6.33333M17.6667 6.33333L11 1L4.33333 6.33333M17.6667 6.33333V15C17.6667 17.8284 17.6667 19.2426 16.788 20.1213C15.9093 21 14.4951 21 11.6667 21H10.3333C7.50491 21 6.09069 21 5.21201 20.1213C4.33333 19.2426 4.33333 17.8284 4.33333 15V6.33333" stroke="white"/>
</svg>
