<svg width="18" height="18" viewBox="0 0 18 18" fill="none" xmlns="http://www.w3.org/2000/svg">
<path d="M17.0625 11.2209L15.7832 10.1272C15.8437 9.7561 15.875 9.3772 15.875 8.99829C15.875 8.61938 15.8437 8.24048 15.7832 7.86938L17.0625 6.77563C17.159 6.69303 17.228 6.58301 17.2605 6.4602C17.2929 6.3374 17.2872 6.20762 17.2441 6.08813L17.2265 6.03735C16.8744 5.05303 16.347 4.14055 15.6699 3.34399L15.6348 3.30298C15.5526 3.2064 15.4431 3.13698 15.3208 3.10385C15.1984 3.07073 15.0688 3.07546 14.9492 3.11743L13.3613 3.68188C12.7754 3.20142 12.1211 2.82251 11.414 2.55689L11.1074 0.896728C11.0843 0.771811 11.0237 0.65689 10.9337 0.567232C10.8437 0.477575 10.7285 0.417425 10.6035 0.394775L10.5508 0.38501C9.53319 0.201416 8.46288 0.201416 7.4453 0.38501L7.39257 0.394775C7.26756 0.417425 7.1524 0.477575 7.0624 0.567232C6.97239 0.65689 6.91179 0.771811 6.88866 0.896728L6.58007 2.5647C5.87868 2.83038 5.22551 3.20908 4.64647 3.68579L3.04686 3.11743C2.92727 3.07513 2.79763 3.07023 2.67517 3.10337C2.55272 3.13651 2.44325 3.20613 2.36132 3.30298L2.32616 3.34399C1.64988 4.14111 1.1226 5.05344 0.76952 6.03735L0.751942 6.08813C0.664051 6.33228 0.736317 6.60571 0.933582 6.77563L2.2285 7.8811C2.16796 8.24829 2.13866 8.62329 2.13866 8.99634C2.13866 9.37134 2.16796 9.74634 2.2285 10.1116L0.933582 11.217C0.83709 11.2996 0.768029 11.4097 0.735582 11.5325C0.703136 11.6553 0.708842 11.7851 0.751942 11.9045L0.76952 11.9553C1.12304 12.9397 1.64647 13.8479 2.32616 14.6487L2.36132 14.6897C2.44345 14.7863 2.55293 14.8557 2.67531 14.8888C2.79768 14.9219 2.92723 14.9172 3.04686 14.8752L4.64647 14.3069C5.2285 14.7854 5.87889 15.1643 6.58007 15.428L6.88866 17.0959C6.91179 17.2209 6.97239 17.3358 7.0624 17.4254C7.1524 17.5151 7.26756 17.5753 7.39257 17.5979L7.4453 17.6077C8.47223 17.7922 9.52384 17.7922 10.5508 17.6077L10.6035 17.5979C10.7285 17.5753 10.8437 17.5151 10.9337 17.4254C11.0237 17.3358 11.0843 17.2209 11.1074 17.0959L11.414 15.4358C12.1208 15.1709 12.7788 14.7907 13.3613 14.3108L14.9492 14.8752C15.0688 14.9175 15.1984 14.9225 15.3209 14.8893C15.4433 14.8562 15.5528 14.7865 15.6348 14.6897L15.6699 14.6487C16.3496 13.8459 16.873 12.9397 17.2265 11.9553L17.2441 11.9045C17.332 11.6643 17.2598 11.3909 17.0625 11.2209ZM14.3965 8.09985C14.4453 8.39478 14.4707 8.69751 14.4707 9.00024C14.4707 9.30298 14.4453 9.60571 14.3965 9.90063L14.2676 10.6838L15.7266 11.9319C15.5054 12.4414 15.2262 12.9238 14.8945 13.3694L13.082 12.7268L12.4687 13.2307C12.0019 13.6135 11.4824 13.9143 10.9199 14.1252L10.1758 14.4045L9.82616 16.2991C9.27454 16.3616 8.71762 16.3616 8.166 16.2991L7.81639 14.4006L7.07811 14.1174C6.52147 13.9065 6.00389 13.6057 5.541 13.2249L4.92772 12.719L3.1035 13.3674C2.77147 12.9202 2.49413 12.4377 2.27147 11.9299L3.74608 10.6702L3.61913 9.88892C3.57225 9.5979 3.54686 9.29712 3.54686 9.00024C3.54686 8.70142 3.5703 8.40259 3.61913 8.11157L3.74608 7.33032L2.27147 6.07056C2.49218 5.56079 2.77147 5.08032 3.1035 4.63306L4.92772 5.28149L5.541 4.77563C6.00389 4.39478 6.52147 4.09399 7.07811 3.88306L7.81835 3.60376L8.16796 1.70532C8.71678 1.64282 9.27733 1.64282 9.82811 1.70532L10.1777 3.59985L10.9219 3.87915C11.4824 4.09009 12.0039 4.39087 12.4707 4.77368L13.084 5.27759L14.8965 4.63501C15.2285 5.08228 15.5058 5.5647 15.7285 6.07251L14.2695 7.32056L14.3965 8.09985ZM8.99999 5.36743C7.10155 5.36743 5.56249 6.90649 5.56249 8.80493C5.56249 10.7034 7.10155 12.2424 8.99999 12.2424C10.8984 12.2424 12.4375 10.7034 12.4375 8.80493C12.4375 6.90649 10.8984 5.36743 8.99999 5.36743ZM10.5469 10.3518C10.344 10.5553 10.1029 10.7166 9.83739 10.8266C9.57192 10.9365 9.28732 10.9929 8.99999 10.9924C8.416 10.9924 7.86718 10.7639 7.45311 10.3518C7.24964 10.1489 7.0883 9.90781 6.97835 9.64233C6.86841 9.37686 6.81204 9.09227 6.81249 8.80493C6.81249 8.22095 7.041 7.67212 7.45311 7.25806C7.86718 6.84399 8.416 6.61743 8.99999 6.61743C9.58397 6.61743 10.1328 6.84399 10.5469 7.25806C10.7503 7.46094 10.9117 7.70206 11.0216 7.96753C11.1316 8.233 11.1879 8.51759 11.1875 8.80493C11.1875 9.38892 10.959 9.93775 10.5469 10.3518Z" fill="white"/>
</svg>
