<svg width="18" height="18" viewBox="0 0 18 18" fill="none" xmlns="http://www.w3.org/2000/svg">
<path d="M8.10326 1.81698C8.47008 1.07374 9.52992 1.07374 9.89674 1.81699L11.4124 4.88798C11.558 5.18313 11.8396 5.38769 12.1653 5.43502L15.5543 5.92748C16.3746 6.04667 16.7021 7.05464 16.1086 7.63317L13.6562 10.0236C13.4205 10.2533 13.313 10.5843 13.3686 10.9087L13.9475 14.2841C14.0877 15.101 13.2302 15.724 12.4966 15.3383L9.46534 13.7446C9.17402 13.5915 8.82598 13.5915 8.53466 13.7446L5.5034 15.3383C4.76978 15.724 3.91235 15.101 4.05246 14.2841L4.63137 10.9087C4.68701 10.5843 4.57946 10.2533 4.34378 10.0236L1.89144 7.63317C1.29792 7.05464 1.62543 6.04667 2.44565 5.92748L5.8347 5.43502C6.16041 5.38769 6.44197 5.18313 6.58764 4.88798L8.10326 1.81698Z" fill="#FAAD14"/>
</svg>
