<svg width="39" height="39" viewBox="0 0 39 39" fill="none" xmlns="http://www.w3.org/2000/svg">
<path d="M18.0511 5.34391C18.4661 3.88491 20.5339 3.88491 20.9489 5.34391C21.2848 6.5248 22.8165 6.82947 23.5787 5.86701C24.5204 4.67788 26.4308 5.4692 26.2559 6.97595C26.1143 8.19549 27.4128 9.06311 28.4853 8.46561C29.8105 7.72738 31.2726 9.18955 30.5344 10.5147C29.9369 11.5872 30.8045 12.8857 32.0241 12.7441C33.5308 12.5692 34.3221 14.4796 33.133 15.4213C32.1705 16.1835 32.4752 17.7152 33.6561 18.0511C35.1151 18.4661 35.1151 20.5339 33.6561 20.9489C32.4752 21.2848 32.1705 22.8165 33.133 23.5787C34.3221 24.5204 33.5308 26.4308 32.0241 26.2559C30.8045 26.1143 29.9369 27.4128 30.5344 28.4853C31.2726 29.8105 29.8105 31.2726 28.4853 30.5344C27.4128 29.9369 26.1143 30.8045 26.2559 32.0241C26.4308 33.5308 24.5204 34.3221 23.5787 33.133C22.8165 32.1705 21.2848 32.4752 20.9489 33.6561C20.5339 35.1151 18.4661 35.1151 18.0511 33.6561C17.7152 32.4752 16.1835 32.1705 15.4213 33.133C14.4796 34.3221 12.5692 33.5308 12.7441 32.0241C12.8857 30.8045 11.5872 29.9369 10.5147 30.5344C9.18955 31.2726 7.72738 29.8105 8.46561 28.4853C9.06311 27.4128 8.19549 26.1143 6.97595 26.2559C5.4692 26.4308 4.67788 24.5204 5.86701 23.5787C6.82947 22.8165 6.5248 21.2848 5.34391 20.9489C3.88491 20.5339 3.88491 18.4661 5.34391 18.0511C6.5248 17.7152 6.82947 16.1835 5.86701 15.4213C4.67788 14.4796 5.4692 12.5692 6.97595 12.7441C8.19549 12.8857 9.06311 11.5872 8.46561 10.5147C7.72738 9.18955 9.18955 7.72738 10.5147 8.46561C11.5872 9.06311 12.8857 8.19549 12.7441 6.97595C12.5692 5.4692 14.4796 4.67788 15.4213 5.86701C16.1835 6.82947 17.7152 6.5248 18.0511 5.34391Z" fill="#747AE7"/>
<path d="M12.5 19.8281L18.17 24.75L27.375 15.125" stroke="white" stroke-width="3.5"/>
</svg>
