<svg width="16" height="12" viewBox="0 0 16 12" fill="none" xmlns="http://www.w3.org/2000/svg">
<path d="M0 0H16V12H0V0Z" fill="#000066"/>
<path fill-rule="evenodd" clip-rule="evenodd" d="M7.49498 9.81258L6.40248 9.90758L6.55248 10.9926L5.79998 10.2001L5.04748 10.9926L5.19748 9.90758L4.10498 9.81258L5.04748 9.25508L4.43998 8.34258L5.46498 8.73008L5.79998 7.68758L6.13748 8.73008L7.16248 8.34258L6.55498 9.25508L7.49498 9.81258ZM12.165 10.8126L11.9 10.4176L12.345 10.5851L12.49 10.1326L12.635 10.5851L13.08 10.4176L12.8175 10.8126L13.2275 11.0551L12.7525 11.0976L12.8175 11.5701L12.4925 11.2226L12.1625 11.5701L12.2275 11.0976L11.7525 11.0576L12.165 10.8126ZM12.1625 3.76008L11.9 3.36508L12.345 3.53258L12.49 3.08008L12.635 3.53258L13.08 3.36508L12.8175 3.76008L13.2275 4.00508L12.7525 4.04508L12.8175 4.51758L12.4925 4.17258L12.1625 4.51508L12.2275 4.04508L11.7525 4.00508L12.1625 3.76008ZM9.51998 6.62508L9.25748 6.23008L9.70248 6.39758L9.84748 5.94508L9.99498 6.39758L10.44 6.23008L10.175 6.62508L10.585 6.86758L10.11 6.91008L10.1775 7.38258L9.84748 7.03508L9.52248 7.38258L9.58498 6.91008L9.10998 6.87008L9.51998 6.62508ZM14.5175 5.92008L14.25 5.52508L14.695 5.69258L14.84 5.24008L14.9875 5.69258L15.4325 5.52508L15.17 5.92008L15.5775 6.16258L15.1025 6.20508L15.1675 6.67508L14.8425 6.33008L14.5125 6.67508L14.5775 6.20508L14.1025 6.16258L14.5175 5.92008ZM13.55 8.00008L13.2925 8.16258L13.365 7.86508L13.1325 7.67008L13.435 7.64508L13.55 7.36508L13.6675 7.64758L13.97 7.67008L13.7375 7.86508L13.81 8.16258" fill="white"/>
<path d="M0 0H8V6H0V0Z" fill="#000066"/>
<path d="M0.9375 0L3.9875 2.2625L7.025 0H8V0.775L5 3.0125L8 5.2375V6H7L4 3.7625L1.0125 6H0V5.25L2.9875 3.025L0 0.8V0H0.9375Z" fill="white"/>
<path d="M5.3 3.5125L8 5.5V6L4.6125 3.5125H5.3ZM3 3.7625L3.075 4.2L0.675 6H0L3 3.7625ZM8 0V0.0375L4.8875 2.3875L4.9125 1.8375L7.375 0H8ZM0 0L2.9875 2.2H2.2375L0 0.525V0Z" fill="#C8102E"/>
<path d="M3.0125 0V6H5.0125V0H3.0125ZM0 2V4H8V2H0Z" fill="white"/>
<path d="M0 2.4125V3.6125H8V2.4125H0ZM3.4125 0V6H4.6125V0H3.4125Z" fill="#C8102E"/>
</svg>
