<svg width="16" height="12" viewBox="0 0 16 12" fill="none" xmlns="http://www.w3.org/2000/svg">
<path d="M0 0H16V12H0V0Z" fill="#E41E20"/>
<path d="M6.79995 2.33252C6.68495 2.33252 6.49245 2.37002 6.49495 2.45752C6.16995 2.40502 6.13745 2.53752 6.15745 2.65752C6.18745 2.61002 6.22495 2.58252 6.25495 2.58002C6.29745 2.57252 6.34245 2.58752 6.38995 2.61502C6.43475 2.64313 6.47518 2.67766 6.50995 2.71752C6.39495 2.74502 6.30495 2.72752 6.21495 2.71252C6.16409 2.70168 6.11574 2.68132 6.07245 2.65252C6.03495 2.62752 6.02245 2.60252 5.96495 2.54502C5.89745 2.47502 5.82495 2.49502 5.84745 2.60252C5.89995 2.70252 5.98745 2.74752 6.09745 2.76752C6.14995 2.77502 6.22995 2.79252 6.31995 2.79252C6.40995 2.79252 6.50995 2.78002 6.56495 2.79252C6.53245 2.81252 6.49495 2.85002 6.41995 2.86252C6.34495 2.87752 6.23245 2.81752 6.16245 2.80252C6.16995 2.86002 6.24495 2.91502 6.38995 2.94502C6.62995 2.99502 6.82745 3.03502 6.95995 3.10752C7.06473 3.16594 7.15725 3.24404 7.23245 3.33752C7.34995 3.47502 7.35745 3.58252 7.36245 3.60752C7.38745 3.82752 7.30995 3.95252 7.16495 3.99252C7.09495 4.01002 6.96495 3.97502 6.91995 3.92002C6.86995 3.86502 6.82745 3.77002 6.83995 3.62002C6.85245 3.56502 6.91745 3.41252 6.86245 3.38252C6.60177 3.23927 6.33203 3.11317 6.05495 3.00502C5.99245 2.98002 5.94245 3.06502 5.92245 3.10002C5.73785 3.07429 5.5613 3.00776 5.40562 2.90527C5.24995 2.80279 5.11905 2.66691 5.02245 2.50752C4.91745 2.31752 4.73995 2.50752 4.76995 2.69002C4.81745 2.89002 4.96995 3.03502 5.15495 3.14002C5.34245 3.24252 5.57995 3.34502 5.81745 3.34002C5.94745 3.36502 5.94495 3.53002 5.79245 3.56252C5.48995 3.56252 5.24745 3.55752 5.01995 3.33752C4.84745 3.18002 4.75245 3.36752 4.79995 3.47252C4.88495 3.80002 5.35245 3.89252 5.82495 3.78752C6.00995 3.75752 5.89995 3.95252 5.84995 3.95502C5.64995 4.09752 5.29745 4.23502 4.98495 3.95502C4.84245 3.84502 4.74495 3.93502 4.79995 4.09252C4.93745 4.50502 5.46745 4.41752 5.82995 4.21752C5.92245 4.16502 6.00745 4.28502 5.89495 4.37752C5.44245 4.69252 5.21745 4.69752 5.01245 4.57752C4.75745 4.47502 4.73745 4.75752 4.88745 4.85252C5.05495 4.95252 5.48245 4.87752 5.79745 4.67752C5.93245 4.57752 5.93745 4.73502 5.85245 4.79752C5.47995 5.12002 5.33245 5.20502 4.94495 5.15252C4.75245 5.13752 4.75495 5.37502 4.90495 5.46752C5.11245 5.59502 5.51745 5.38502 5.82995 5.12252C5.96245 5.05252 5.98495 5.16752 5.91995 5.30502C5.78155 5.50084 5.59342 5.65618 5.37495 5.75502C5.19995 5.82252 5.03495 5.81252 4.91745 5.77252C4.77245 5.72252 4.75495 5.87252 4.83495 6.00752C4.88245 6.09002 5.07995 6.11502 5.29495 6.04002C5.50995 5.96502 5.73995 5.78502 5.89745 5.57752C6.03495 5.45502 6.01995 5.61752 5.95495 5.73252C5.63995 6.23252 5.34995 6.41752 4.96745 6.38752C4.79995 6.35752 4.75995 6.48752 4.86745 6.61252C5.05745 6.76752 5.29245 6.76252 5.50245 6.60752C5.68495 6.43252 6.03745 6.04752 6.22245 5.84252C6.35245 5.74002 6.39495 5.84252 6.35495 6.05252C6.31995 6.17252 6.23495 6.30252 5.99745 6.39252C5.83495 6.48502 5.95745 6.61252 6.07745 6.61752C6.14495 6.61752 6.27995 6.53752 6.38495 6.42252C6.51995 6.26752 6.52995 6.16502 6.60495 5.92502C6.67495 5.81002 6.80245 5.86502 6.80245 5.98502C6.73995 6.22502 6.68995 6.26752 6.56495 6.36502C6.44745 6.47752 6.64745 6.51502 6.71495 6.46752C6.90995 6.33752 6.97995 6.16752 7.04495 6.01252C7.09495 5.90252 7.22995 5.95502 7.16495 6.13752C7.01495 6.57252 6.76495 6.74252 6.33245 6.83252C6.28995 6.84002 6.26245 6.86502 6.27745 6.91502L6.45245 7.09002C6.18495 7.17002 5.96745 7.21502 5.69745 7.29002L5.32745 7.04502C5.29495 6.96502 5.27745 6.84002 5.08245 6.92752C4.95245 6.86752 4.88995 6.89002 4.81745 6.95252C4.92245 6.95252 4.96745 6.98252 5.00995 7.03002C5.06495 7.17252 5.18995 7.18752 5.31745 7.14752C5.39995 7.21502 5.44245 7.27002 5.52745 7.34002L5.10995 7.32752C4.95995 7.17002 4.84495 7.17752 4.73995 7.30252C4.65745 7.31502 4.62495 7.31502 4.56995 7.41252C4.65495 7.37752 4.70995 7.36752 4.74745 7.40502C4.90495 7.49752 5.00745 7.47752 5.08495 7.40502L5.52245 7.43252C5.46745 7.48252 5.39245 7.50752 5.33495 7.55252C5.10995 7.48752 4.98995 7.57752 4.94995 7.76002C4.91835 7.83317 4.90795 7.91374 4.91995 7.99252C4.93995 7.91752 4.97745 7.85502 5.04245 7.81752C5.24245 7.86752 5.31745 7.78502 5.32995 7.66502C5.42995 7.58502 5.57495 7.56752 5.67245 7.48752C5.78745 7.52252 5.84245 7.54502 5.95745 7.58252C5.99745 7.70752 6.08995 7.75502 6.23995 7.72252C6.41495 7.72752 6.38495 7.80252 6.39995 7.86002C6.44995 7.77752 6.44745 7.69502 6.33745 7.62002C6.29745 7.51252 6.20745 7.46252 6.09245 7.52502C5.98245 7.49502 5.95495 7.45002 5.84495 7.41752C6.11995 7.33002 6.31495 7.31002 6.58995 7.22252L6.78245 7.39252C6.81995 7.41502 6.85495 7.42002 6.87745 7.39252C7.04995 7.14252 7.12745 6.92502 7.28495 6.76002C7.34745 6.69002 7.42495 6.60002 7.50995 6.57752C7.55245 6.56502 7.60495 6.57252 7.63995 6.61002C7.67245 6.64502 7.69995 6.71252 7.68995 6.81502C7.67245 6.95752 7.63745 7.00502 7.59745 7.09002C7.55495 7.17752 7.50745 7.23002 7.45495 7.29752C7.35495 7.43002 7.21995 7.50752 7.13995 7.56002C6.97995 7.66252 6.91495 7.61752 6.78995 7.61002C6.62995 7.62752 6.58995 7.70502 6.71995 7.81252C6.83995 7.87752 6.94995 7.88502 7.03995 7.86752C7.11495 7.85252 7.20495 7.75502 7.26995 7.70252C7.33995 7.62002 7.45995 7.71752 7.37745 7.81502C7.22995 7.99002 7.08495 8.10502 6.90245 8.10252C6.70995 8.12752 6.74745 8.23502 6.87245 8.28752C7.10245 8.38002 7.30745 8.20502 7.41245 8.08752C7.49245 8.00002 7.54995 7.99752 7.53745 8.13502C7.45495 8.38252 7.34745 8.47752 7.16745 8.49002C7.02245 8.47502 7.01995 8.59002 7.12745 8.66502C7.36745 8.83002 7.54245 8.54502 7.62495 8.37502C7.68245 8.22002 7.77245 8.29252 7.78245 8.42002C7.78245 8.59252 7.70745 8.73002 7.49995 8.90502C7.65745 9.15752 7.84245 9.41502 7.99995 9.66752L8.47995 4.31752L7.99995 3.47502C7.94995 3.43002 7.77995 3.23002 7.73745 3.20002C7.71995 3.18502 7.71245 3.17502 7.73495 3.16502C7.75745 3.15502 7.80995 3.14502 7.84745 3.14002C7.74745 3.03752 7.65745 3.00502 7.46495 2.95002C7.51245 2.93002 7.55745 2.94002 7.69745 2.93502C7.61154 2.8196 7.49445 2.73112 7.35995 2.68002C7.46495 2.60502 7.48495 2.60002 7.58995 2.51252C7.42433 2.49972 7.26075 2.46785 7.10245 2.41752C7.00791 2.37259 6.9065 2.34386 6.80245 2.33252H6.79995ZM6.81995 2.54252C6.91495 2.54252 6.97245 2.57502 6.97245 2.61502C6.97245 2.65502 6.91495 2.68752 6.81995 2.68752C6.72495 2.68752 6.66495 2.65002 6.66495 2.61252C6.66495 2.57252 6.72495 2.54252 6.81995 2.54252Z" fill="black"/>
<path d="M9.84996 2.33252C9.96496 2.33252 10.1575 2.37002 10.155 2.45752C10.48 2.40502 10.5125 2.53752 10.4925 2.65752C10.4625 2.61002 10.425 2.58252 10.395 2.58002C10.3525 2.57252 10.3075 2.58752 10.26 2.61502C10.2152 2.64312 10.1747 2.67766 10.14 2.71752C10.255 2.74502 10.345 2.72752 10.435 2.71252C10.4858 2.70168 10.5342 2.68132 10.5775 2.65252C10.615 2.62752 10.6275 2.60252 10.685 2.54502C10.7525 2.47502 10.825 2.49502 10.8025 2.60252C10.75 2.70252 10.6625 2.74752 10.5525 2.76752C10.5 2.77502 10.42 2.79252 10.33 2.79252C10.24 2.79252 10.14 2.78002 10.085 2.79252C10.1175 2.81252 10.155 2.85002 10.23 2.86252C10.305 2.87752 10.4175 2.81752 10.4875 2.80252C10.48 2.86002 10.405 2.91502 10.26 2.94502C10.02 2.99502 9.82246 3.03502 9.68996 3.10752C9.58517 3.16594 9.49265 3.24404 9.41746 3.33752C9.29996 3.47502 9.29246 3.58252 9.28746 3.60752C9.26246 3.82752 9.33996 3.95252 9.48496 3.99252C9.55496 4.01002 9.68496 3.97502 9.72996 3.92002C9.77996 3.86502 9.82246 3.77002 9.80996 3.62002C9.79746 3.56502 9.73246 3.41252 9.78746 3.38252C10.0481 3.23927 10.3179 3.11317 10.595 3.00502C10.6575 2.98002 10.7075 3.06502 10.7275 3.10002C10.9121 3.07429 11.0886 3.00776 11.2443 2.90527C11.4 2.80279 11.5309 2.66691 11.6275 2.50752C11.7325 2.31752 11.91 2.50752 11.88 2.69002C11.8325 2.89002 11.68 3.03502 11.495 3.14002C11.3075 3.24252 11.07 3.34502 10.8325 3.34002C10.7025 3.36502 10.705 3.53002 10.8575 3.56252C11.16 3.56252 11.4025 3.55752 11.63 3.33752C11.8025 3.18002 11.8975 3.36752 11.85 3.47252C11.765 3.80002 11.2975 3.89252 10.825 3.78752C10.64 3.75752 10.75 3.95252 10.8 3.95502C11 4.09752 11.3525 4.23502 11.665 3.95502C11.8075 3.84502 11.905 3.93502 11.85 4.09252C11.7125 4.50502 11.1825 4.41752 10.82 4.21752C10.7275 4.16502 10.6425 4.28502 10.755 4.37752C11.2075 4.69252 11.4325 4.69752 11.6375 4.57752C11.8925 4.47502 11.9125 4.75752 11.7625 4.85252C11.595 4.95252 11.1675 4.87752 10.8525 4.67752C10.7175 4.57752 10.7125 4.73502 10.7975 4.79752C11.17 5.12002 11.3175 5.20502 11.705 5.15252C11.8975 5.13752 11.895 5.37502 11.745 5.46752C11.5375 5.59502 11.1325 5.38502 10.82 5.12252C10.6875 5.05252 10.665 5.16752 10.73 5.30502C10.8683 5.50084 11.0565 5.65618 11.275 5.75502C11.45 5.82252 11.615 5.81252 11.7325 5.77252C11.8775 5.72252 11.895 5.87252 11.815 6.00752C11.7675 6.09002 11.57 6.11502 11.355 6.04002C11.14 5.96502 10.91 5.78502 10.7525 5.57752C10.615 5.45502 10.63 5.61752 10.695 5.73252C11.01 6.23252 11.3 6.41752 11.6825 6.38752C11.85 6.35752 11.89 6.48752 11.7825 6.61252C11.5925 6.76752 11.3575 6.76252 11.1475 6.60752C10.965 6.43252 10.6125 6.04752 10.4275 5.84252C10.2975 5.74002 10.255 5.84252 10.295 6.05252C10.33 6.17252 10.415 6.30252 10.6525 6.39252C10.815 6.48502 10.6925 6.61252 10.5725 6.61752C10.505 6.61752 10.37 6.53752 10.265 6.42252C10.13 6.26752 10.12 6.16502 10.045 5.92502C9.97496 5.81002 9.84746 5.86502 9.84746 5.98502C9.90996 6.22502 9.95996 6.26752 10.085 6.36502C10.2025 6.47752 10.0025 6.51502 9.93496 6.46752C9.73996 6.33752 9.66996 6.16752 9.60496 6.01252C9.55496 5.90252 9.41996 5.95502 9.48496 6.13752C9.63496 6.57252 9.88496 6.74252 10.3175 6.83252C10.36 6.84002 10.3875 6.86502 10.3725 6.91502L10.1975 7.09002C10.465 7.17002 10.6825 7.21502 10.9525 7.29002L11.3225 7.04502C11.355 6.96502 11.3725 6.84002 11.5675 6.92752C11.6975 6.86752 11.76 6.89002 11.8325 6.95252C11.7275 6.95252 11.6825 6.98252 11.64 7.03002C11.585 7.17252 11.46 7.18752 11.3325 7.14752C11.25 7.21502 11.2075 7.27002 11.1225 7.34002L11.54 7.32752C11.69 7.17002 11.805 7.17752 11.91 7.30252C11.9925 7.31502 12.025 7.31502 12.08 7.41252C11.995 7.37752 11.94 7.36752 11.9025 7.40502C11.745 7.49752 11.6425 7.47752 11.565 7.40502L11.1275 7.43252C11.1825 7.48252 11.2575 7.50752 11.315 7.55252C11.54 7.48752 11.66 7.57752 11.7 7.76002C11.7316 7.83317 11.742 7.91374 11.73 7.99252C11.71 7.91752 11.6725 7.85502 11.6075 7.81752C11.4075 7.86752 11.3325 7.78502 11.32 7.66502C11.22 7.58502 11.075 7.56752 10.9775 7.48752C10.8625 7.52252 10.8075 7.54502 10.6925 7.58252C10.6525 7.70752 10.56 7.75502 10.41 7.72252C10.235 7.72752 10.265 7.80252 10.25 7.86002C10.2 7.77752 10.2025 7.69502 10.3125 7.62002C10.3525 7.51252 10.4425 7.46252 10.5575 7.52502C10.6675 7.49502 10.695 7.45002 10.805 7.41752C10.53 7.33002 10.335 7.31002 10.06 7.22252L9.86746 7.39252C9.82996 7.41502 9.79496 7.42002 9.77246 7.39252C9.59996 7.14252 9.52246 6.92502 9.36496 6.76002C9.30246 6.69002 9.22496 6.60002 9.13996 6.57752C9.09746 6.56502 9.04496 6.57252 9.00996 6.61002C8.97746 6.64502 8.94996 6.71252 8.95996 6.81502C8.97746 6.95752 9.01246 7.00502 9.05246 7.09002C9.09496 7.17752 9.14246 7.23002 9.19496 7.29752C9.29496 7.43002 9.42996 7.50752 9.50996 7.56002C9.66996 7.66252 9.73496 7.61752 9.85996 7.61002C10.02 7.62752 10.06 7.70502 9.92996 7.81252C9.80996 7.87752 9.69996 7.88502 9.60996 7.86752C9.53496 7.85252 9.44496 7.75502 9.37996 7.70252C9.30996 7.62002 9.18996 7.71752 9.27246 7.81502C9.41996 7.99002 9.56496 8.10502 9.74746 8.10252C9.93996 8.12752 9.90246 8.23502 9.77746 8.28752C9.54746 8.38002 9.34246 8.20502 9.23746 8.08752C9.15746 8.00002 9.09996 7.99752 9.11246 8.13502C9.19496 8.38252 9.30246 8.47752 9.48246 8.49002C9.62746 8.47502 9.62996 8.59002 9.52246 8.66502C9.28246 8.83002 9.10746 8.54502 9.02496 8.37502C8.96746 8.22002 8.87746 8.29252 8.86746 8.42002C8.86746 8.59252 8.94246 8.73002 9.14996 8.90502C8.99246 9.15752 8.80746 9.41502 8.64996 9.66752L8.16996 4.31752L8.64996 3.47502C8.69996 3.43002 8.86996 3.23002 8.91246 3.20002C8.92996 3.18502 8.93746 3.17502 8.91496 3.16502C8.89246 3.15502 8.83996 3.14502 8.80246 3.14002C8.90246 3.03752 8.99246 3.00502 9.18496 2.95002C9.13746 2.93002 9.09246 2.94002 8.95246 2.93502C9.03836 2.8196 9.15546 2.73112 9.28996 2.68002C9.18496 2.60502 9.16496 2.60002 9.05996 2.51252C9.22557 2.49972 9.38916 2.46785 9.54746 2.41752C9.64199 2.37259 9.7434 2.34386 9.84746 2.33252H9.84996ZM9.82996 2.54252C9.73496 2.54252 9.67746 2.57502 9.67746 2.61502C9.67746 2.65502 9.73496 2.68752 9.82996 2.68752C9.92496 2.68752 9.98496 2.65002 9.98496 2.61252C9.98496 2.57252 9.92496 2.54252 9.82996 2.54252Z" fill="black"/>
</svg>
