<svg width="16" height="12" viewBox="0 0 16 12" fill="none" xmlns="http://www.w3.org/2000/svg">
<path fill-rule="evenodd" clip-rule="evenodd" d="M0 0H16V6.09H0V0Z" fill="#FF0000"/>
<path fill-rule="evenodd" clip-rule="evenodd" d="M0 5.91016H16V12.0002H0V5.91016Z" fill="black"/>
<path fill-rule="evenodd" clip-rule="evenodd" d="M5.71747 3.70494C9.84746 4.78744 7.19247 10.0949 3.93497 7.88494L3.71497 8.22494C5.63247 9.58994 7.52997 8.48994 8.06497 7.06494C8.61997 5.59494 7.87497 3.52744 5.74997 3.31494L5.71747 3.70494Z" fill="#FFEC00"/>
<path fill-rule="evenodd" clip-rule="evenodd" d="M4.24999 8.2699L4.79249 8.5224L4.53749 9.0674L3.995 8.8124L4.24999 8.2699ZM7.97499 5.7824H8.57499V6.3824H7.97499V5.7824ZM7.68249 4.8099L8.23999 4.5949L8.45749 5.1524L7.89999 5.3699L7.68249 4.8099ZM7.03249 4.0824L7.45999 3.6599L7.88249 4.0849L7.45749 4.5074L7.03249 4.0824ZM6.37749 3.0874L6.93749 3.2974L6.72499 3.8574L6.16499 3.6474L6.37749 3.0874ZM7.89999 6.7499L8.45749 6.9724L8.23249 7.5274L7.67749 7.3049L7.89999 6.7499ZM6.15249 8.4999L6.70249 8.2674L6.93999 8.8174L6.38999 9.0524L6.15249 8.4999ZM5.16499 8.5699H5.76499V9.1699H5.16499V8.5699ZM6.19749 5.6699L5.68999 5.2949L5.18249 5.6599L5.38249 5.0849L4.87499 4.7099H5.48749L5.69999 4.1449L5.89499 4.7124L6.51249 4.7049L6.02249 5.0874L6.19749 5.6724V5.6699Z" fill="#FFEC00"/>
<path fill-rule="evenodd" clip-rule="evenodd" d="M8.39997 8.66016C8.36997 8.67016 8.24497 8.97016 8.15747 9.11516L8.24997 9.14016C8.58997 9.26016 8.75997 9.37015 8.90497 9.57765C8.9385 9.61032 8.98255 9.63001 9.02926 9.63322C9.07596 9.63642 9.12229 9.62293 9.15997 9.59515C9.15997 9.59515 9.22997 9.57015 9.31997 9.47015C9.39497 9.35765 9.37497 9.27016 9.28497 9.19266C9.00997 8.99266 8.71247 8.84266 8.39997 8.66016Z" fill="#FFEE00"/>
<path fill-rule="evenodd" clip-rule="evenodd" d="M9.1325 9.31984C9.1325 9.34868 9.12105 9.37635 9.10065 9.39674C9.08026 9.41714 9.0526 9.42859 9.02376 9.42859C8.99491 9.42859 8.96725 9.41714 8.94686 9.39674C8.92646 9.37635 8.915 9.34868 8.915 9.31984C8.915 9.29133 8.92633 9.26399 8.94649 9.24383C8.96665 9.22367 8.99399 9.21234 9.0225 9.21234C9.05102 9.21234 9.07836 9.22367 9.09852 9.24383C9.11868 9.26399 9.13001 9.29133 9.13001 9.31984H9.1325ZM8.5975 8.97984C8.5975 9.00869 8.58605 9.03635 8.56565 9.05674C8.54526 9.07714 8.5176 9.08859 8.48875 9.08859C8.45991 9.08859 8.43225 9.07714 8.41186 9.05674C8.39146 9.03635 8.38 9.00869 8.38 8.97984C8.38 8.951 8.39146 8.92334 8.41186 8.90295C8.43225 8.88255 8.45991 8.87109 8.48875 8.87109C8.5176 8.87109 8.54526 8.88255 8.56565 8.90295C8.58605 8.92334 8.5975 8.951 8.5975 8.97984ZM8.87 9.15484C8.87 9.18369 8.85855 9.21135 8.83815 9.23174C8.81776 9.25214 8.7901 9.26359 8.76125 9.26359C8.73241 9.26359 8.70475 9.25214 8.68436 9.23174C8.66396 9.21135 8.6525 9.18369 8.6525 9.15484C8.6525 9.126 8.66396 9.09834 8.68436 9.07795C8.70475 9.05755 8.73241 9.04609 8.76125 9.04609C8.7901 9.04609 8.81776 9.05755 8.83815 9.07795C8.85855 9.09834 8.87 9.126 8.87 9.15484Z" fill="black"/>
<path fill-rule="evenodd" clip-rule="evenodd" d="M8.11244 9.09256C7.04744 8.48506 5.92994 7.83006 4.86244 7.22256C4.39494 6.93006 4.37244 6.38756 4.68744 5.97506C4.71744 5.91756 4.75744 5.93006 4.77244 5.96256C4.80994 6.16256 4.92244 6.37006 5.05744 6.50006C6.16548 7.19705 7.2631 7.91046 8.34994 8.64006C8.26494 8.78506 8.19994 8.94756 8.11244 9.09006V9.09256Z" fill="#FFEE00"/>
<path fill-rule="evenodd" clip-rule="evenodd" d="M7.43003 7.6377L7.87503 8.0377L7.47503 8.4827L7.03003 8.0827L7.43003 7.6377Z" fill="#FFEC00"/>
<path d="M7.30498 8.67002L6.23248 8.05002M8.28748 8.72002L5.16248 6.83252L8.28748 8.72002ZM7.90248 8.28502L6.84998 7.60252L7.90248 8.28502Z" stroke="black" stroke-width="3"/>
</svg>
