<svg width="16" height="12" viewBox="0 0 16 12" fill="none" xmlns="http://www.w3.org/2000/svg">
<g clip-path="url(#clip0_914_31779)">
<path d="M0 0H16V12H0V0Z" fill="#D0103A"/>
<path d="M0 0H10.88V12H0V0Z" fill="#FEDF00"/>
<path d="M0 0H5.12V12H0V0Z" fill="#0018A8"/>
<path d="M7.51001 3.41504C7.70251 3.41504 7.78251 3.58004 7.97501 3.58004C8.09251 3.58004 8.16251 3.54254 8.26751 3.48254C8.34001 3.44254 8.38501 3.42004 8.46751 3.42004C8.55251 3.42004 8.60501 3.44504 8.65001 3.52004C8.67501 3.56004 8.69501 3.64254 8.68251 3.68754C8.66764 3.75896 8.64501 3.82854 8.61501 3.89504C8.59751 3.93504 8.58251 3.95754 8.58251 4.00004C8.58251 4.10254 8.72251 4.13754 8.81751 4.14004C8.83751 4.14004 9.01001 4.14004 9.11751 4.03504C9.06001 4.03254 8.99501 3.98504 8.99501 3.92754C8.99501 3.86254 9.04001 3.82004 9.10251 3.80004C9.11501 3.79754 9.13501 3.80754 9.14501 3.80004C9.16251 3.79254 9.15501 3.77504 9.17001 3.76504C9.20001 3.74004 9.22001 3.72504 9.26001 3.72504C9.28501 3.72504 9.30001 3.72754 9.32251 3.74254C9.33251 3.75254 9.33751 3.76254 9.34751 3.76254C9.37751 3.76254 9.39251 3.74254 9.42251 3.74254C9.4426 3.74284 9.46232 3.74799 9.48001 3.75754C9.49501 3.76504 9.49501 3.79504 9.51501 3.79504C9.52501 3.79504 9.57501 3.77254 9.60251 3.77254C9.65751 3.77254 9.68751 3.79254 9.72251 3.83504C9.73251 3.84754 9.73751 3.87004 9.74751 3.87004C9.77203 3.87212 9.7957 3.88 9.81657 3.89305C9.83743 3.90609 9.85489 3.92391 9.86751 3.94504C9.87501 3.95504 9.88501 3.98004 9.89501 3.98254C9.91001 3.99004 9.92001 3.98754 9.93751 4.00004C9.95799 4.01291 9.97505 4.03055 9.98724 4.05145C9.99943 4.07234 10.0064 4.09587 10.0075 4.12004C10.0075 4.13754 10 4.16004 9.99501 4.17504C9.95001 4.33754 9.83751 4.39004 9.72501 4.53254C9.67501 4.59254 9.63751 4.64004 9.63751 4.71754C9.63751 4.73504 9.66251 4.77004 9.67001 4.78504C9.66501 4.75004 9.68251 4.70504 9.72001 4.70254C9.74488 4.70241 9.76891 4.71157 9.7874 4.72821C9.8059 4.74485 9.81752 4.76779 9.82001 4.79254C9.82061 4.80789 9.81805 4.82321 9.81251 4.83754C9.84282 4.81857 9.87698 4.80661 9.91251 4.80254H9.96001C10.0425 4.80254 10.135 4.85004 10.1925 4.89754C10.2527 4.94921 10.3004 5.01385 10.332 5.08659C10.3636 5.15933 10.3783 5.23829 10.375 5.31754C10.355 5.44754 10.3675 5.68754 10.03 5.78254C10.0925 5.80754 10.135 5.85754 10.135 5.91254C10.1357 5.92752 10.1333 5.94248 10.1281 5.95655C10.123 5.97062 10.115 5.9835 10.1047 5.99445C10.0945 6.0054 10.0822 6.01418 10.0685 6.0203C10.0548 6.02641 10.04 6.02972 10.025 6.03004C10.0087 6.03105 9.99245 6.02844 9.97732 6.02238C9.96219 6.01633 9.94859 6.00699 9.93751 5.99504C9.86751 6.06504 9.85501 6.13754 9.85501 6.23754C9.85501 6.29754 9.86501 6.33254 9.89001 6.38754C9.91501 6.44254 9.93501 6.47504 9.98251 6.51504C10.0075 6.47754 10.035 6.45004 10.0825 6.45004C10.125 6.45004 10.1625 6.46504 10.18 6.50504C10.185 6.51754 10.18 6.52754 10.1875 6.54004C10.195 6.55504 10.2075 6.55754 10.215 6.57254C10.2275 6.59754 10.215 6.61754 10.2275 6.64004C10.235 6.65754 10.25 6.66004 10.2575 6.67504C10.2675 6.70004 10.27 6.71504 10.27 6.74254C10.27 6.81754 10.2025 6.87254 10.1275 6.87254C10.1025 6.87254 10.0925 6.86254 10.07 6.86504C10.1125 6.90754 10.145 6.92754 10.1775 6.97754C10.2285 7.05355 10.2547 7.14351 10.2525 7.23504C10.2545 7.33294 10.2303 7.4296 10.1825 7.51504C10.1452 7.60085 10.0846 7.67448 10.0075 7.72754C9.88959 7.81338 9.75209 7.86838 9.60751 7.88754C9.51684 7.90603 9.42492 7.91773 9.33251 7.92254L8.98001 7.94254C8.80001 7.95254 8.67501 7.98004 8.54751 8.10754C8.60751 8.15004 8.64751 8.19504 8.64751 8.26754C8.64751 8.34254 8.60251 8.40004 8.53001 8.42254C8.51251 8.42754 8.50001 8.42254 8.48251 8.43254C8.46501 8.44254 8.46501 8.46504 8.44751 8.47504C8.41939 8.49345 8.38605 8.50223 8.35251 8.50004C8.32287 8.50216 8.29313 8.49765 8.26546 8.48684C8.23778 8.47603 8.21286 8.45919 8.19251 8.43754C8.13751 8.48254 8.11751 8.52254 8.05501 8.56004C8.03501 8.57004 8.02501 8.58504 8.00251 8.58504C7.96501 8.58504 7.94751 8.56004 7.91751 8.54004C7.87667 8.51161 7.83969 8.47799 7.80751 8.44004C7.75001 8.47254 7.71751 8.50004 7.65001 8.50004C7.61492 8.50193 7.58007 8.49322 7.55001 8.47504C7.53501 8.46254 7.53001 8.44504 7.51251 8.43504C7.49501 8.42254 7.48001 8.42754 7.46001 8.41754C7.38501 8.38504 7.33501 8.33004 7.33501 8.24754C7.33501 8.17504 7.38001 8.13004 7.44501 8.09754C7.32001 7.97254 7.19501 7.95254 7.02001 7.94254L6.67001 7.92254C6.56001 7.91504 6.50001 7.90504 6.39501 7.88754C6.31251 7.87504 6.26501 7.87004 6.19001 7.83504C5.93501 7.71504 5.77001 7.55254 5.74001 7.27254C5.73501 7.24754 5.73501 7.23504 5.73501 7.21004C5.73501 7.06504 5.79251 6.97504 5.89501 6.87254C5.87001 6.86504 5.85251 6.87254 5.82501 6.86504C5.76251 6.84004 5.71501 6.79754 5.71501 6.72754C5.71501 6.70254 5.71501 6.68504 5.72751 6.66254C5.73751 6.64754 5.75251 6.64504 5.75751 6.62754C5.76251 6.60254 5.75751 6.58754 5.76751 6.56504C5.77501 6.55254 5.78751 6.55004 5.79251 6.53504C5.81751 6.48754 5.84251 6.45004 5.89501 6.45004C5.94001 6.45004 5.97001 6.47504 5.99001 6.51254C6.03501 6.49254 6.04501 6.46004 6.07001 6.42004C6.10029 6.37074 6.11916 6.31529 6.12521 6.25776C6.13127 6.20022 6.12436 6.14206 6.10501 6.08754C6.09501 6.05004 6.09001 6.02504 6.06001 5.99504C6.03501 6.02004 6.01001 6.03004 5.97501 6.03004C5.90251 6.03004 5.85001 5.96754 5.85001 5.89754C5.84924 5.873 5.85602 5.84882 5.86944 5.82825C5.88285 5.80769 5.90224 5.79173 5.92501 5.78254C5.88501 5.74754 5.85001 5.74504 5.80751 5.71754C5.74251 5.67754 5.72001 5.63254 5.67751 5.56754C5.64751 5.52754 5.64001 5.49754 5.62751 5.45004C5.60567 5.38749 5.59715 5.32107 5.60251 5.25504C5.61751 5.13004 5.64001 5.05504 5.71751 4.95754C5.76251 4.90004 5.79251 4.86504 5.86251 4.83504C5.92001 4.81004 5.95501 4.79254 6.01751 4.79254L6.06751 4.79504C6.092 4.79665 6.11586 4.80347 6.13751 4.81504C6.14751 4.82004 6.16501 4.83754 6.16501 4.82504C6.16501 4.81254 6.15751 4.80504 6.15751 4.79254C6.15751 4.74254 6.19501 4.69254 6.24751 4.69254C6.28501 4.69254 6.30001 4.72754 6.32001 4.76004C6.33001 4.74004 6.33751 4.72504 6.33751 4.70254C6.33751 4.61754 6.29001 4.57254 6.23751 4.50504C6.12001 4.36004 5.97501 4.29254 5.97501 4.10504C5.97501 4.05004 6.00001 4.01254 6.05001 3.98254C6.06251 3.97504 6.08251 3.98254 6.09501 3.97504C6.10751 3.96754 6.10501 3.95004 6.11251 3.94004C6.12501 3.92254 6.13751 3.91504 6.15251 3.90004C6.17751 3.87504 6.20251 3.88504 6.23001 3.86254C6.24501 3.85254 6.25001 3.83754 6.26001 3.82754C6.29251 3.78754 6.32251 3.76754 6.37501 3.76754C6.40001 3.76754 6.41501 3.76754 6.43751 3.77754L6.46251 3.79004C6.47001 3.78504 6.48251 3.77004 6.50001 3.76254C6.5165 3.75231 6.53561 3.7471 6.55501 3.74754C6.58251 3.74754 6.60001 3.76254 6.63001 3.76254C6.63751 3.76254 6.64001 3.75254 6.65001 3.74754C6.67501 3.73004 6.68751 3.72254 6.71751 3.72254C6.74751 3.72254 6.76251 3.73004 6.78751 3.74754C6.81251 3.76004 6.81251 3.78004 6.83751 3.79254C6.85001 3.80004 6.86251 3.79754 6.87501 3.80254C6.94001 3.82504 6.98751 3.86754 6.98751 3.93504C6.98751 3.97254 6.98001 3.99754 6.95251 4.02254C6.93001 4.04004 6.91001 4.03754 6.88251 4.04754C6.96204 4.11172 7.06312 4.14303 7.16501 4.13504C7.27001 4.13504 7.39751 4.09254 7.39751 3.98754C7.39751 3.93754 7.37251 3.91254 7.35251 3.86754C7.31853 3.80182 7.30054 3.72902 7.30001 3.65504C7.30001 3.58504 7.30751 3.54254 7.34751 3.48754C7.38751 3.43004 7.43751 3.41504 7.51001 3.41504Z" fill="#C7B37F"/>
<path d="M6.81006 3.97521C6.81435 3.98938 6.82208 4.00226 6.83254 4.01273C6.84301 4.02319 6.85589 4.03092 6.87006 4.03521C6.89006 4.04271 6.93756 4.04021 6.96506 4.00021C6.99006 3.97021 6.99006 3.93021 6.98006 3.90021C6.97176 3.87801 6.95695 3.85884 6.93756 3.84521L6.81006 3.97521Z" stroke="#703D29" stroke-width="0.7" stroke-linejoin="round"/>
<path d="M10.025 5.90277C9.99498 5.83027 9.91748 5.86277 9.91498 5.90277C9.90248 5.99527 9.98248 6.02277 10.04 6.00777C10.0533 6.00419 10.0657 5.9979 10.0765 5.9893C10.0872 5.9807 10.0961 5.96996 10.1025 5.95777C10.1175 5.93277 10.1225 5.89777 10.1125 5.86527C10.1083 5.85083 10.1015 5.83727 10.0925 5.82527C10.0835 5.81342 10.0725 5.80326 10.06 5.79527C10.0375 5.78027 10.0125 5.78027 9.97498 5.78027C9.83748 5.78027 9.71498 5.94277 9.67498 6.11527C9.65998 6.17028 9.64248 6.29778 9.66748 6.41528C9.68825 6.52174 9.73949 6.61988 9.81498 6.69778C9.8855 6.76414 9.97011 6.81371 10.0625 6.84278C10.095 6.85218 10.1295 6.85304 10.1625 6.84528C10.2425 6.82778 10.28 6.75028 10.2375 6.67028C10.205 6.60778 10.105 6.57028 10.0575 6.65528C10.055 6.66278 10.0475 6.67778 10.0475 6.69278C10.0475 6.71528 10.0575 6.74278 10.0725 6.75278C10.11 6.77528 10.1675 6.76778 10.165 6.70278" stroke="#703D29" stroke-width="0.7" stroke-linecap="round"/>
<path d="M9.59508 6.85025C9.63782 6.80137 9.69608 6.7687 9.76008 6.75775C9.83508 6.74775 9.90008 6.77025 9.96508 6.80775C10.0463 6.84493 10.1151 6.90486 10.163 6.98028C10.2109 7.05571 10.2359 7.14339 10.2351 7.23275C10.2351 7.32275 10.2101 7.42025 10.1851 7.46775C10.1651 7.51025 10.1101 7.69275 9.80258 7.81775C9.62508 7.89275 9.35258 7.90775 9.16008 7.91775C8.90008 7.92525 8.66008 7.93525 8.52258 8.10775" stroke="#703D29" stroke-width="0.8"/>
<path d="M8.26248 4.06787C8.28248 4.10287 8.29498 4.12537 8.28248 4.16537C8.26748 4.20787 8.23748 4.23537 8.19248 4.23537C8.09248 4.23537 8.03498 4.11537 8.07998 4.04037C8.15998 3.90787 8.31248 3.98287 8.45498 4.04787C8.44748 4.01537 8.43498 4.00287 8.43748 3.96037C8.43998 3.85537 8.51748 3.81037 8.54998 3.71037C8.56748 3.65287 8.57498 3.60287 8.53248 3.56037C8.49498 3.52787 8.45248 3.52787 8.40498 3.54537C8.30998 3.58287 8.19248 3.69287 7.98998 3.69537C7.78498 3.69287 7.66998 3.58287 7.57248 3.54537C7.52248 3.52787 7.48248 3.52787 7.44498 3.56287C7.40248 3.60287 7.40998 3.65287 7.42748 3.71287C7.45998 3.80787 7.53748 3.85537 7.53998 3.96287C7.53998 4.00287 7.52998 4.01287 7.52248 4.04787C7.66498 3.98287 7.82248 3.90037 7.89748 4.04037C7.93998 4.12037 7.88498 4.23287 7.78498 4.23287C7.73998 4.23287 7.70998 4.20787 7.69498 4.16537C7.68498 4.12787 7.69498 4.09537 7.71498 4.06537M9.65998 7.14287C9.65248 7.11787 9.65998 7.09037 9.67998 7.06037C9.70998 7.02037 9.77248 7.00787 9.82998 7.03537C9.85472 7.04872 9.8761 7.06753 9.89248 7.09037L9.91998 7.13037C9.93748 7.15787 9.94498 7.18037 9.94498 7.19287C10.0075 7.36787 9.90998 7.55537 9.78248 7.63287C9.68248 7.69287 9.56498 7.71787 9.42248 7.73287C9.35998 7.74287 9.32248 7.74037 9.25998 7.74537H9.01998C8.96002 7.74229 8.89994 7.74229 8.83998 7.74537C8.76748 7.75287 8.71498 7.75537 8.64998 7.76537C8.60998 7.77037 8.56498 7.77787 8.51498 7.79037C8.49998 7.79037 8.48498 7.79537 8.46998 7.80037L8.43998 7.80787C8.34998 7.83537 8.26498 7.86787 8.19498 7.91287C8.17498 7.92537 8.14998 7.93787 8.13248 7.95537L8.09998 7.98537C8.04998 8.03537 8.00248 8.08537 7.98998 8.15287V8.19287C7.98998 8.23787 8.02498 8.30037 8.12498 8.31787L9.65998 7.14287Z" stroke="#703D29" stroke-width="0.7"/>
<path d="M7.91498 4.14055C7.91248 4.17805 7.89748 4.20305 7.85748 4.21805M7.86498 3.99805C7.88555 4.01131 7.90204 4.03001 7.91263 4.05207C7.92322 4.07414 7.9275 4.0987 7.92498 4.12305C7.91998 4.18555 7.90498 4.20055 7.85498 4.23555L7.86498 3.99805Z" stroke="#703D29" stroke-width="0.7" stroke-linecap="round"/>
<path d="M6.91749 3.83252L6.93499 3.84502L6.95499 3.86502L6.96749 3.89002L6.97249 3.91002V3.95752L6.96749 3.97752L6.95499 3.99252L6.93999 4.00752L6.91749 4.02002L6.89249 4.02502L6.86749 4.03002L6.84249 4.01752L6.81999 4.00252L6.80749 3.98252L6.79749 3.95752V3.94752L6.91749 3.83252Z" fill="#C7B37F"/>
<path d="M6.88003 3.93017C6.87253 3.88767 6.82503 3.88017 6.80503 3.90517C6.77753 3.94267 6.79753 4.00517 6.85503 4.02267C6.87293 4.02629 6.89148 4.02495 6.90866 4.01878C6.92585 4.01261 6.94102 4.00185 6.95253 3.98767C6.97753 3.95517 6.97503 3.91767 6.96503 3.88767C6.95702 3.86531 6.94214 3.84606 6.92253 3.83267C6.85503 3.78267 6.74503 3.79267 6.70753 3.88267C6.66253 3.99267 6.76253 4.07767 6.85753 4.14017C6.97253 4.22017 7.10753 4.23517 7.20753 4.23517C7.43753 4.23267 7.61253 4.12267 7.72503 4.06017C7.75003 4.04517 7.77753 4.04767 7.79253 4.06517C7.80001 4.0753 7.80339 4.08788 7.802 4.10039C7.80061 4.1129 7.79455 4.12443 7.78503 4.13267" stroke="#703D29" stroke-width="0.7" stroke-linecap="round"/>
<path d="M6.49502 7.03527L6.49252 7.08027L6.48502 7.11027L6.46002 7.16527L6.42752 7.21027L6.39002 7.24027L6.36252 7.25277L6.32252 7.26277M6.20002 7.03027L6.15002 7.04777L6.10002 7.08777L6.07502 7.12027L6.04752 7.17027L6.03502 7.20777L6.02502 7.25277L6.02002 7.28777L6.20002 7.03027Z" stroke="#703D29" stroke-width="0.7"/>
<path d="M7.99259 8.22754C7.98509 8.27004 7.94509 8.31754 7.86009 8.33254L7.84509 8.33754" stroke="#703D29" stroke-width="0.8"/>
<path d="M10.1051 6.90527C10.1504 6.94889 10.1862 7.00137 10.2102 7.05944C10.2343 7.11751 10.2462 7.17992 10.2451 7.24277C10.2451 7.33277 10.2201 7.43027 10.1951 7.47777C10.1751 7.52027 10.1201 7.70277 9.81259 7.82777C9.60563 7.89362 9.38979 7.92734 9.1726 7.92777C8.9151 7.93527 8.6776 7.94527 8.5376 8.11027" stroke="#703D29" stroke-width="0.9"/>
<path d="M9.6875 7.07286C9.7075 7.04786 9.775 7.01286 9.8325 7.04536C9.85553 7.05698 9.87529 7.07417 9.89 7.09536" stroke="#703D29" stroke-width="0.6"/>
<path d="M10.04 6.84532L10.075 6.85782C10.1077 6.86754 10.1424 6.86754 10.175 6.85782C10.245 6.83782 10.29 6.77281 10.255 6.68531C10.2443 6.66455 10.2289 6.64657 10.21 6.63281" stroke="#703D29" stroke-width="0.9"/>
<path d="M6.97251 3.9502C6.97251 3.9952 6.94251 4.0202 6.89751 4.0302M6.00751 4.99519C5.95751 5.02269 5.92501 5.03019 5.88751 5.07269C5.85856 5.1263 5.83671 5.18345 5.82251 5.24269L6.00751 4.99519Z" stroke="#703D29" stroke-width="0.7" stroke-linecap="round"/>
<path d="M9.92749 4.80029C9.99074 4.80157 10.0531 4.81547 10.1109 4.84117C10.1687 4.86687 10.2208 4.90387 10.2641 4.94998C10.3074 4.99609 10.3411 5.05038 10.3631 5.10968C10.3852 5.16898 10.3952 5.23209 10.3925 5.29529C10.3925 5.69529 10.145 5.75779 10.0475 5.78529" stroke="#703D29" stroke-width="0.6"/>
<path d="M9.96008 4.80007C10.1626 4.79257 10.3726 4.94257 10.3826 5.31757C10.3901 5.61007 10.1826 5.74257 10.0826 5.76757" stroke="#703D29" stroke-width="0.7"/>
<path d="M6.31009 4.76287V4.78787M9.84509 6.21037L9.84759 6.17037L9.86259 6.10787L9.88009 6.05787L9.90259 6.01787L9.92759 5.98537L9.84509 6.21037ZM10.1226 5.90037V5.93787L10.1101 5.96287L10.0926 5.99037L10.0726 6.00537L10.0426 6.01787H10.0151L9.99509 6.01537L10.1226 5.90037ZM9.63759 4.69537L9.64509 4.65287L9.66509 4.61287L9.69009 4.57537L9.73009 4.52037L9.76509 4.48537L9.81509 4.43037L9.86509 4.38287L9.89259 4.35037L9.93009 4.30287L9.96509 4.25287L9.98509 4.21037L9.99759 4.15537L10.0001 4.08787L9.99509 4.06787L9.63759 4.69537ZM9.68759 7.27287L9.72759 7.26287L9.75759 7.24787L9.77509 7.23037L9.78759 7.21037L9.79509 7.18037V7.15787L9.68759 7.27287ZM5.84009 6.85537H5.90759L5.94759 6.84037L5.84009 6.85537ZM6.07259 5.92787L6.06759 5.96287L6.05759 5.97787L6.04759 5.99287L6.03009 6.00537L6.01259 6.01287L5.98759 6.01537H5.97259L6.07259 5.92787ZM6.22009 5.62787L6.21259 5.68037L6.20009 5.70537L6.18009 5.73537L6.15009 5.75787L6.12009 5.77287L6.06259 5.78537L6.22009 5.62787ZM6.44509 4.79287L6.43259 4.82537L6.42009 4.85037L6.40009 4.87537L6.37509 4.90037L6.34509 4.91287L6.31759 4.92037L6.30259 4.91787L6.44509 4.79287Z" stroke="#703D29" stroke-width="0.6"/>
<path d="M10.0676 6.7551L10.0801 6.7601C10.1151 6.7801 10.1851 6.7551 10.1651 6.7001M6.35755 5.6001C6.34235 5.61489 6.32456 5.62676 6.30505 5.6351L6.35755 5.6001Z" stroke="#703D29" stroke-width="0.6" stroke-linecap="round"/>
<path d="M8.18505 8.41785C8.13796 8.48614 8.07191 8.53915 7.99505 8.57035C7.9187 8.5383 7.85287 8.48546 7.80505 8.41785M9.94506 5.99035C9.97006 6.02285 10.0176 6.03285 10.0551 6.02285C10.0684 6.01927 10.0808 6.01298 10.0915 6.00438C10.1023 5.99577 10.1111 5.98504 10.1176 5.97285C10.1326 5.94785 10.1376 5.91285 10.1276 5.88035C10.1226 5.86572 10.115 5.85215 10.1051 5.84035C10.0961 5.82633 10.0852 5.81369 10.0726 5.80285L10.0626 5.79785L9.94506 5.99035ZM10.2226 6.64785C10.2239 6.6421 10.2247 6.63625 10.2251 6.63035C10.2252 6.61627 10.2224 6.6023 10.2168 6.58938C10.2112 6.57645 10.2029 6.56486 10.1926 6.55535L10.1726 6.53535L10.2226 6.64785ZM10.1826 6.54785C10.1826 6.50285 10.1451 6.46785 10.0976 6.46035L10.1826 6.54785ZM9.99256 6.53035L9.96006 6.50535C9.89159 6.43305 9.85316 6.33743 9.85256 6.23785C9.85256 6.13285 9.89256 6.02785 9.94256 5.98785L9.99256 6.53035ZM8.53005 8.10035L8.57505 8.06035L8.60505 8.03535L8.66255 8.00035L8.71755 7.97535L8.75755 7.96285L8.83255 7.94785L8.92255 7.93285L8.53005 8.10035Z" stroke="#703D29" stroke-width="0.6"/>
<path d="M7.86005 8.31494C7.8504 8.35384 7.83154 8.38986 7.80505 8.41994" stroke="#703D29" stroke-width="0.6" stroke-linecap="round"/>
<path d="M8.17502 8.4102C8.14252 8.4602 8.06752 8.5352 7.98502 8.5652C7.90835 8.53246 7.84249 8.47873 7.79502 8.4102M7.86752 8.2627L7.85752 8.3177L7.86752 8.2627ZM7.80002 8.4252L7.77502 8.4502L7.73252 8.4727L7.68252 8.4877L7.80002 8.4252ZM7.54252 4.0427C7.55002 4.0227 7.55502 4.0077 7.55502 3.9777C7.55252 3.8727 7.47502 3.8252 7.44252 3.7277C7.42502 3.6702 7.41752 3.6202 7.46002 3.5777C7.49502 3.5427 7.54002 3.5427 7.58502 3.5627C7.68502 3.6002 7.80002 3.7077 8.00252 3.7127C7.80002 3.7077 7.68252 3.6002 7.58752 3.5627C7.53752 3.5427 7.49252 3.5377 7.45502 3.5752C7.41252 3.6152 7.42502 3.6702 7.44252 3.7277C7.47502 3.8252 7.54752 3.8727 7.55002 3.9777C7.55002 4.0077 7.54252 4.0227 7.53752 4.0427H7.54252ZM8.00002 3.7002C8.20002 3.6902 8.37252 3.5552 8.42752 3.5427C8.47752 3.5327 8.50252 3.5377 8.54002 3.5702C8.50502 3.5377 8.46502 3.5402 8.41502 3.5577C8.32002 3.5952 8.20502 3.7027 8.00002 3.7077V3.7002ZM9.99001 6.5302C9.94189 6.4941 9.90283 6.4473 9.87592 6.39349C9.84902 6.33969 9.83501 6.28036 9.83501 6.2202C9.83501 6.1177 9.87751 6.0102 9.92501 5.9702L9.99001 6.5302Z" stroke="#703D29" stroke-width="0.6"/>
<path d="M7.66748 4.09264L7.72498 4.06014C7.74998 4.04514 7.78248 4.04764 7.79748 4.06514C7.81248 4.08264 7.81498 4.11514 7.79248 4.13514" stroke="#703D29" stroke-width="0.6" stroke-linecap="round"/>
<path d="M6.38006 4.87789C6.40153 4.89484 6.4188 4.91652 6.4305 4.94123C6.44221 4.96595 6.44805 4.99304 6.44756 5.02039C6.44756 5.09789 6.38256 5.22539 6.22256 5.27039C6.16949 5.28487 6.11284 5.27767 6.06506 5.25039M7.36756 4.23289C7.50506 4.20289 7.61756 4.14289 7.70256 4.09539L7.36756 4.23289ZM8.50756 8.20039C8.52006 8.20789 8.52756 8.22539 8.52756 8.22539C8.53006 8.23039 8.53506 8.23789 8.53506 8.24539C8.54256 8.28289 8.51756 8.30539 8.48506 8.31039C8.44256 8.31539 8.41006 8.29039 8.39756 8.26039L8.50756 8.20039ZM7.36006 4.22539C7.49756 4.19789 7.61006 4.13539 7.69506 4.08789L7.36006 4.22539ZM10.1351 6.76039C10.1101 6.77039 10.0951 6.76789 10.0601 6.75539L10.0151 6.73039C9.92386 6.67842 9.85062 6.59995 9.80506 6.50539C9.78593 6.46908 9.77164 6.43042 9.76256 6.39039C9.75457 6.36361 9.75036 6.33584 9.75006 6.30789C9.74734 6.17111 9.78852 6.03706 9.86756 5.92539C9.89506 5.88539 9.92006 5.86289 9.97256 5.86039L10.1351 6.76039Z" stroke="#703D29" stroke-width="0.6"/>
<path d="M6.40756 5.14014C6.43506 5.16014 6.44756 5.18264 6.44756 5.22264C6.44756 5.24764 6.43006 5.28264 6.40006 5.31514C6.37195 5.34569 6.338 5.37028 6.3002 5.38746C6.26241 5.40464 6.22156 5.41405 6.18006 5.41514C6.13006 5.41514 6.08006 5.40514 6.03006 5.37264C5.98243 5.3413 5.94848 5.29305 5.93506 5.23764" stroke="#703D29" stroke-width="0.6"/>
<path d="M6.4451 4.81764C6.43811 4.83977 6.42646 4.86015 6.41093 4.87739C6.39541 4.89464 6.37637 4.90837 6.3551 4.91764C6.3076 4.93764 6.2551 4.91764 6.2251 4.89764M6.4051 5.30764C6.4376 5.33764 6.4476 5.37514 6.4476 5.42264C6.4476 5.49014 6.4201 5.54264 6.3551 5.59764C6.3401 5.61264 6.3251 5.62264 6.3051 5.63514L6.4051 5.30764ZM9.5426 5.08264V5.17014V5.08264ZM9.5351 5.06014V5.18514V5.06014ZM9.5426 4.79014V4.95514V4.79014ZM9.5351 4.75514V4.97764V4.75514ZM9.4876 7.02764C9.46172 7.0805 9.4261 7.128 9.3826 7.16764C9.34091 7.21036 9.29177 7.24509 9.2376 7.27014C9.18548 7.2962 9.12993 7.31472 9.0726 7.32514C9.01687 7.33853 8.95989 7.34607 8.9026 7.34764C8.8401 7.34764 8.8051 7.34764 8.7426 7.34264C8.6776 7.33764 8.6426 7.32764 8.5751 7.32264C8.5201 7.31764 8.4901 7.31264 8.4351 7.31514C8.34136 7.31176 8.24788 7.32706 8.1601 7.36014C8.0951 7.38514 8.0176 7.43514 8.0026 7.45514C7.95505 7.41462 7.90094 7.38249 7.8426 7.36014C7.80166 7.34339 7.75885 7.33164 7.7151 7.32514C7.6576 7.31514 7.6276 7.31514 7.5701 7.31514C7.5151 7.31514 7.4851 7.31764 7.4301 7.32264C7.3651 7.33014 7.3301 7.33764 7.2626 7.34264C7.2001 7.34764 7.1651 7.35014 7.1026 7.34764C6.98691 7.34641 6.87277 7.32086 6.7676 7.27264C6.70654 7.24413 6.65206 7.20327 6.6076 7.15264L9.4876 7.02764ZM7.6601 8.48764L7.7051 8.48264L7.6601 8.48764ZM8.4626 8.42264L8.5076 8.42014L8.5501 8.40264L8.5801 8.38264L8.6226 8.33264L8.6301 8.31764L8.6376 8.27514V8.25514L8.4626 8.42264ZM9.8126 4.83764C9.8301 4.77264 9.8076 4.70264 9.7426 4.70514L9.8126 4.83764ZM6.4426 5.86764C6.4289 5.91625 6.39774 5.95809 6.3551 5.98514L6.4426 5.86764Z" stroke="#703D29" stroke-width="0.6"/>
<path d="M6.09509 5.06031C6.13259 5.08031 6.1726 5.05031 6.1651 5.00031C6.16159 4.98584 6.15371 4.97279 6.14253 4.96295C6.13134 4.95311 6.1174 4.94695 6.10259 4.94531" stroke="#703D29" stroke-width="0.6" stroke-linecap="round"/>
<path d="M6.25506 7.16502C6.26256 7.17252 6.26506 7.18252 6.27506 7.18502C6.29256 7.19002 6.30506 7.19502 6.32256 7.17252C6.34256 7.14502 6.33006 7.10252 6.31006 7.07502C6.29164 7.05606 6.26768 7.04342 6.24163 7.03893C6.21558 7.03443 6.18877 7.03832 6.16506 7.05002C6.14506 7.06252 6.12256 7.07502 6.10006 7.10502L6.07256 7.14502C6.05506 7.17252 6.04756 7.19502 6.04506 7.20502C5.99506 7.35252 6.05506 7.50502 6.14756 7.59752" stroke="#703D29" stroke-width="0.6"/>
<path d="M8.50502 8.19531L8.52252 8.21531L8.52752 8.23781C8.53502 8.27531 8.51002 8.29781 8.47752 8.30282C8.43752 8.30782 8.40752 8.28281 8.39502 8.25281" stroke="#703D29" stroke-width="0.6" stroke-linecap="round"/>
<path d="M10.1725 6.53512C10.1685 6.51415 10.1573 6.49522 10.1409 6.48155C10.1245 6.46788 10.1039 6.46031 10.0825 6.46012C10.058 6.46012 10.0345 6.46986 10.0171 6.48721C9.99977 6.50456 9.99003 6.52808 9.99003 6.55262C9.99003 6.57762 10 6.60262 10.015 6.61762M9.73503 3.87012C9.77752 3.87646 9.81647 3.8974 9.84521 3.92933C9.87395 3.96126 9.89068 4.0022 9.89253 4.04512C9.89253 4.15512 9.85503 4.19512 9.79753 4.27512C9.73503 4.36012 9.53003 4.51512 9.53003 4.69262C9.53003 4.80012 9.56003 4.86762 9.63753 4.90262C9.68753 4.92762 9.74503 4.90262 9.77253 4.87762C9.83753 4.81762 9.81003 4.71512 9.74253 4.70262C9.66253 4.68762 9.64503 4.81762 9.72503 4.81012L9.73503 3.87012Z" stroke="#703D29" stroke-width="0.6"/>
<path d="M6.34999 5.60244C6.41749 5.65744 6.44749 5.70744 6.44749 5.78994C6.449 5.82726 6.44053 5.86431 6.42295 5.89727C6.40538 5.93023 6.37933 5.95791 6.34749 5.97744M9.59749 4.87744C9.57602 4.89439 9.55875 4.91607 9.54705 4.94078C9.53534 4.9655 9.5295 4.99259 9.52999 5.01994C9.52999 5.09744 9.59499 5.22494 9.75499 5.26994C9.81499 5.28744 9.87499 5.28494 9.90999 5.26244L9.59749 4.87744ZM6.00999 5.00494C5.96158 5.02037 5.91948 5.05107 5.88999 5.09244C5.83043 5.18685 5.81066 5.301 5.83499 5.40994C5.84495 5.45988 5.86448 5.50742 5.89249 5.54994C5.89982 5.56073 5.9082 5.57078 5.91749 5.57994L5.94749 5.60494L6.00999 5.00494ZM7.54749 7.90494C7.66999 7.95744 7.75749 7.99744 7.83249 8.11744C7.85279 8.15504 7.86312 8.19722 7.86249 8.23994C7.86249 8.30744 7.83749 8.38244 7.77999 8.42994C7.75739 8.44996 7.73069 8.4648 7.70176 8.47344C7.67283 8.48208 7.64236 8.48429 7.61249 8.47994C7.56499 8.47494 7.51999 8.43994 7.51249 8.41494L7.54749 7.90494Z" stroke="#703D29" stroke-width="0.6"/>
<path d="M6.2876 5.91016C6.3876 6.03766 6.4451 6.11266 6.4476 6.26266C6.4501 6.40516 6.4051 6.50266 6.3226 6.60516" stroke="#703D29" stroke-width="0.6" stroke-linecap="round"/>
<path d="M9.5425 6.38764V6.79264L9.54 6.85514C9.53785 6.86936 9.53535 6.88353 9.5325 6.89764M8.245 4.23264C8.26327 4.21899 8.27646 4.19963 8.2825 4.17764C8.295 4.14014 8.295 4.10764 8.2775 4.07764C8.3025 4.11264 8.3025 4.14014 8.295 4.17764C8.2925 4.20264 8.275 4.21514 8.255 4.23514L8.245 4.23264Z" stroke="#703D29" stroke-width="0.6"/>
<path d="M6.50257 7.01256C6.50667 7.04687 6.50368 7.08166 6.49379 7.11477C6.4839 7.14788 6.46732 7.17861 6.44507 7.20506C6.42507 7.22756 6.38007 7.27006 6.32007 7.27006C6.22757 7.27006 6.20007 7.20756 6.19507 7.19006M9.53507 6.35006V6.84756L9.52257 6.91256L9.53507 6.35006ZM9.53507 5.83756V6.20256V5.83756ZM9.54257 5.86756V6.16256V5.86756ZM9.54257 5.49256V5.71256V5.49256ZM9.53507 5.46506V5.74006V5.46506ZM9.54257 5.26506V5.35256V5.26506ZM9.53507 5.24756V5.37256V5.24756ZM9.49007 7.00256L9.48007 7.02006C9.45521 7.0736 9.42043 7.12196 9.37757 7.16256C9.33493 7.20463 9.28493 7.23852 9.23007 7.26256C9.17874 7.28839 9.12404 7.30691 9.06757 7.31756C9.00007 7.33256 8.96257 7.33756 8.89507 7.34006C8.83257 7.34006 8.79757 7.34006 8.73757 7.33506C8.67007 7.33006 8.63507 7.32256 8.56757 7.31506C8.51257 7.31006 8.48257 7.30756 8.42757 7.30756C8.37257 7.30756 8.34007 7.30756 8.28507 7.31756C8.24046 7.32386 8.1968 7.33561 8.15507 7.35256C8.08757 7.38006 8.01257 7.42756 7.99507 7.44756C7.98007 7.42756 7.90257 7.38006 7.83757 7.35256C7.79583 7.33561 7.75217 7.32386 7.70757 7.31756C7.65257 7.30756 7.62007 7.30756 7.56257 7.30756C7.50757 7.30756 7.47757 7.31006 7.42257 7.31506C7.35757 7.32256 7.32257 7.33006 7.25507 7.33506C7.19257 7.34006 7.15757 7.34256 7.09757 7.34006C6.98103 7.33918 6.86601 7.31361 6.76007 7.26506C6.70587 7.24006 6.65672 7.20531 6.61507 7.16256C6.59228 7.14105 6.57137 7.11763 6.55257 7.09256L9.49007 7.00256Z" stroke="#703D29" stroke-width="0.6"/>
<path d="M8.19504 8.42516L8.21254 8.44266C8.23514 8.46267 8.26184 8.47752 8.29077 8.48615C8.3197 8.49479 8.35017 8.49701 8.38004 8.49266C8.4003 8.49031 8.41979 8.48348 8.43708 8.47267C8.45438 8.46186 8.46905 8.44734 8.48004 8.43016L8.49254 8.41266M6.39004 6.97266C6.40754 6.99016 6.42254 7.01016 6.43754 7.03516C6.46254 7.08016 6.45254 7.15516 6.43504 7.19016C6.43274 7.19363 6.43023 7.19697 6.42754 7.20016L6.39004 6.97266ZM5.92004 7.65016C5.97754 7.71016 6.06254 7.77516 6.19254 7.82766C6.37004 7.90266 6.64504 7.91766 6.83504 7.92766C7.08504 7.93516 7.31754 7.94516 7.46004 8.10266L5.92004 7.65016ZM7.89254 8.00266C7.93844 8.03789 7.97317 8.08564 7.99254 8.14016L7.89254 8.00266ZM7.81004 8.42766C7.80457 8.43384 7.79872 8.43968 7.79254 8.44516C7.77023 8.46483 7.74395 8.47948 7.71548 8.4881C7.68701 8.49673 7.65702 8.49914 7.62754 8.49516C7.57754 8.49016 7.53254 8.45516 7.52004 8.43016L7.81004 8.42766ZM7.38504 8.35766L7.39254 8.36766C7.42578 8.40326 7.47142 8.42474 7.52004 8.42766L7.38504 8.35766ZM8.19504 8.42766C8.14626 8.49535 8.07961 8.54815 8.00254 8.58016C7.92619 8.5481 7.86036 8.49527 7.81254 8.42766L7.80504 8.41516L8.19504 8.42766Z" stroke="#703D29" stroke-width="0.6"/>
<path d="M8.47503 8.41504L8.45753 8.44504L8.43003 8.47004L8.38753 8.48754H8.34753" stroke="#703D29" stroke-width="0.6"/>
<path d="M9.22509 3.8252C9.24931 3.84109 9.26842 3.86367 9.28009 3.8902C9.32509 4.0027 9.22509 4.0877 9.13009 4.1502C9.06753 4.19205 8.99681 4.22017 8.92259 4.2327M8.57509 8.1327C8.60078 8.15153 8.62139 8.17644 8.63509 8.2052C8.64259 8.2227 8.64509 8.2427 8.64759 8.2627C8.64857 8.28181 8.64577 8.30092 8.63933 8.31894C8.6329 8.33697 8.62296 8.35353 8.61009 8.3677C8.59282 8.38632 8.57195 8.40124 8.54875 8.41155C8.52554 8.42187 8.50048 8.42736 8.47509 8.4277C8.47176 8.42782 8.46842 8.42782 8.46509 8.4277L8.57509 8.1327ZM8.47009 8.4227C8.44574 8.42337 8.42154 8.41882 8.39911 8.40933C8.37668 8.39984 8.35655 8.38564 8.34009 8.3677L8.47009 8.4227ZM9.93259 6.6702C9.88385 6.62401 9.84327 6.56992 9.81259 6.5102C9.79366 6.47467 9.77938 6.43686 9.77009 6.3977C9.7621 6.37091 9.75789 6.34314 9.75759 6.3152C9.75483 6.17879 9.79506 6.04497 9.87259 5.9327C9.89009 5.9127 9.90759 5.8877 9.92509 5.8777L9.93259 6.6702ZM9.89259 3.9802C9.95509 3.9852 10.0126 4.0552 10.0126 4.1227C10.0126 4.2177 9.98009 4.2602 9.90259 4.3552C9.83759 4.4352 9.63759 4.5802 9.64509 4.7177C9.64509 4.7427 9.65759 4.7677 9.67259 4.7877L9.89259 3.9802ZM9.59259 4.8752C9.60708 4.8897 9.624 4.90155 9.64259 4.9102C9.65993 4.91704 9.67859 4.91992 9.69719 4.91862C9.71579 4.91733 9.73386 4.91188 9.75009 4.9027L9.59259 4.8752Z" stroke="#703D29" stroke-width="0.6"/>
<path d="M8.645 4.1C8.63364 4.09344 8.6235 4.08498 8.615 4.075C8.59 4.05 8.5775 4.0175 8.595 3.965C8.61 3.9175 8.6875 3.785 8.69 3.6925C8.695 3.5525 8.64 3.4675 8.5575 3.4375M9.115 4.04C9.10017 4.03958 9.08559 4.03602 9.07223 4.02956C9.05887 4.02309 9.04703 4.01387 9.0375 4.0025C9.03021 3.99529 9.02428 3.98682 9.02 3.9775L9.115 4.04Z" stroke="#703D29" stroke-width="0.6"/>
<path d="M9.53258 7.1751L9.54758 7.1951C9.56508 7.2201 9.62758 7.2701 9.68508 7.2701C9.77758 7.2701 9.80008 7.2051 9.80258 7.1901C9.81508 7.1176 9.79008 7.1001 9.75258 7.0776C9.75258 7.0776 9.73258 7.0676 9.70508 7.0726M8.68258 3.6626L8.68008 3.7126L8.66508 3.7676L8.64008 3.8426L8.61508 3.8901L8.59508 3.9376L8.58508 3.9701L8.58008 3.9951L8.58258 4.0176L8.68258 3.6626Z" stroke="#703D29" stroke-width="0.6" stroke-linecap="round"/>
<path d="M6.41499 5.14502C6.42749 5.15502 6.43749 5.16752 6.44249 5.17752M5.92499 6.86002C5.89473 6.86844 5.86275 6.86844 5.83249 6.86002C5.75999 6.83752 5.70249 6.77002 5.73249 6.68502L5.92499 6.86002ZM6.06749 5.89002C6.07499 5.89752 6.07749 5.90752 6.07749 5.91502C6.08749 6.01002 6.00749 6.03502 5.95249 6.02002C5.92158 6.01013 5.89507 5.9898 5.87749 5.96252C5.86677 5.94519 5.86074 5.92538 5.85999 5.90502L6.06749 5.89002ZM6.40999 5.31502C6.42499 5.32752 6.43499 5.34002 6.44249 5.35752L6.40999 5.31502Z" stroke="#703D29" stroke-width="0.6"/>
<path d="M6.4475 5.26273C6.43768 5.28487 6.42415 5.30516 6.4075 5.32273C6.37939 5.35328 6.34544 5.37788 6.30765 5.39506C6.26985 5.41223 6.229 5.42165 6.1875 5.42274C6.1375 5.42274 6.0875 5.41274 6.0375 5.38024C5.98784 5.34771 5.95217 5.29776 5.9375 5.24023" stroke="#703D29" stroke-width="0.6" stroke-linecap="round"/>
<path d="M6.38501 4.88281C6.41234 4.90519 6.43308 4.93457 6.44501 4.96781" stroke="#703D29" stroke-width="0.6"/>
<path d="M6.44506 5.08008C6.42256 5.15508 6.35756 5.24508 6.23006 5.27758C6.17006 5.29258 6.09006 5.27258 6.06506 5.25258" stroke="#703D29" stroke-width="0.6" stroke-linecap="round"/>
<path d="M6 5.06508C6.0075 5.13008 6.05 5.18008 6.135 5.18008C6.2525 5.18258 6.325 5.01258 6.22 4.89258" stroke="#703D29" stroke-width="0.6"/>
<path d="M6.07498 5.79242C6.17998 5.77992 6.23998 5.69992 6.22498 5.60992C6.21748 5.53992 6.15498 5.48492 6.10998 5.48242M5.73499 5.63742C5.75249 5.65992 5.77249 5.67992 5.79499 5.69742C5.83879 5.73493 5.88985 5.76301 5.94498 5.77992L5.73499 5.63742Z" stroke="#703D29" stroke-width="0.6" stroke-linecap="round"/>
<path d="M6.245 4.70264C6.29249 4.70264 6.31999 4.74264 6.31749 4.77764" stroke="#703D29" stroke-width="0.6"/>
<path d="M9.96499 4.99769C10.0075 5.05519 9.97999 5.17269 9.86499 5.17269C9.84243 5.17294 9.82019 5.1673 9.80046 5.15634C9.78074 5.14538 9.76421 5.12948 9.75249 5.11019M6.23499 4.0752C6.25837 4.13732 6.30254 4.18943 6.35999 4.22269L6.23499 4.0752Z" stroke="#703D29" stroke-width="0.6" stroke-linecap="round"/>
<path d="M9.54248 4.22754V4.62504" stroke="#703D29" stroke-width="0.6"/>
<path d="M9.35004 3.77268C9.41754 3.73768 9.47004 3.74268 9.50754 3.79768C9.54356 3.85029 9.55789 3.91477 9.54754 3.97768C9.53788 4.03538 9.50659 4.08724 9.46004 4.12268M6.09504 5.05768C6.13004 5.08268 6.17754 5.04018 6.15754 4.99268C6.14504 4.96268 6.10254 4.92768 6.04004 4.97018C5.97004 5.01768 5.99004 5.16518 6.12004 5.16768C6.23754 5.16768 6.31004 4.99768 6.20504 4.87768C6.10504 4.76268 5.92254 4.78768 5.80504 4.88268C5.71452 4.95775 5.65126 5.06055 5.62504 5.17518C5.6092 5.25103 5.6092 5.32933 5.62504 5.40518C5.63761 5.47196 5.66309 5.53565 5.70004 5.59268L5.73254 5.63518C5.75254 5.65518 5.75754 5.66518 5.78254 5.68518C5.8543 5.74794 5.94727 5.78102 6.04254 5.77768C6.15754 5.77268 6.22504 5.69268 6.21254 5.59518C6.20254 5.50018 6.10754 5.45268 6.04504 5.49768C6.00254 5.52768 5.98754 5.62018 6.06254 5.64268C6.10254 5.65518 6.14004 5.60018 6.11254 5.56768L6.09504 5.05768Z" stroke="#703D29" stroke-width="0.6" stroke-linecap="round"/>
<path d="M9.51257 3.80007C9.59007 3.75007 9.67507 3.77257 9.72007 3.84007C9.75257 3.89007 9.76257 3.93007 9.76007 3.99257C9.75768 4.03982 9.74336 4.0857 9.71845 4.12592C9.69353 4.16614 9.65882 4.19939 9.61757 4.22256" stroke="#703D29" stroke-width="0.6" stroke-linecap="round"/>
<path d="M9.87509 3.97998C9.94009 3.98498 9.99009 4.04248 9.99009 4.10748C9.99009 4.20248 9.96509 4.24498 9.89009 4.33998C9.8226 4.42248 9.6251 4.56498 9.6301 4.70498C9.6301 4.75748 9.6751 4.80498 9.7126 4.80998" stroke="#703D29" stroke-width="0.6"/>
<path d="M9.88498 5.05758C9.84748 5.08258 9.80248 5.04258 9.82248 4.99758C9.83498 4.96758 9.87748 4.92758 9.93998 4.97008C10.0075 5.01758 9.98998 5.16508 9.85748 5.16758C9.73998 5.16758 9.65748 5.00258 9.77248 4.87758C9.87248 4.76258 10.065 4.78508 10.185 4.88008C10.235 4.92008 10.3375 5.03008 10.36 5.18008C10.385 5.35508 10.3825 5.57008 10.2 5.70508C10.125 5.75758 10.025 5.78258 9.93498 5.78008C9.81998 5.77508 9.75248 5.69258 9.76498 5.59508C9.77748 5.50008 9.86498 5.46008 9.93248 5.49758C10.0025 5.53508 9.98998 5.63258 9.91498 5.64258C9.87248 5.64758 9.83748 5.60008 9.86498 5.56758" stroke="#703D29" stroke-width="0.6" stroke-linecap="round"/>
<path d="M9.82251 4.99783C9.84251 4.91033 9.91501 4.90283 9.97751 4.90283C10.14 4.90533 10.255 5.10283 10.2575 5.29033C10.2575 5.52783 10.1575 5.67033 9.98251 5.67783C9.93501 5.67783 9.85751 5.65783 9.85751 5.60283" stroke="#703D29" stroke-width="0.6"/>
<path d="M9.92509 4.95752C10.0976 4.99752 10.1576 5.15252 10.1576 5.30252C10.1576 5.42502 10.1451 5.59252 9.90759 5.65002" stroke="#703D29" stroke-width="0.6" stroke-linecap="square"/>
<path d="M10.2101 6.63286C10.2128 6.61594 10.2111 6.59859 10.2051 6.58255C10.199 6.56652 10.1888 6.55237 10.1755 6.54152C10.1623 6.53068 10.1464 6.52352 10.1294 6.52078C10.1125 6.51804 10.0952 6.51982 10.0791 6.52592C10.0631 6.53202 10.049 6.54224 10.0382 6.55555C10.0274 6.56885 10.0203 6.58477 10.0176 6.6017C10.0149 6.61863 10.0167 6.63597 10.0228 6.65197C10.029 6.66798 10.0392 6.68208 10.0526 6.69286" stroke="#703D29" stroke-width="0.6"/>
<path d="M9.98503 6.89785C9.90503 6.84285 9.74753 6.77285 9.61003 6.84285C9.58497 6.85239 9.56222 6.86712 9.54326 6.88608C9.5243 6.90504 9.50957 6.92779 9.50003 6.95285C9.48684 6.99302 9.48405 7.03587 9.49192 7.0774C9.49979 7.11894 9.51806 7.1578 9.54503 7.19035C9.56753 7.21535 9.61253 7.25535 9.67003 7.25785C9.76503 7.25785 9.78753 7.19285 9.79003 7.17785C9.80003 7.10785 9.76003 7.08035 9.74003 7.07535C9.72253 7.06785 9.67003 7.07035 9.66003 7.10785C9.65503 7.12035 9.65503 7.14035 9.66503 7.15785M9.86003 6.48535C9.89503 6.53535 9.93503 6.58785 10.0175 6.63535L9.86003 6.48535Z" stroke="#703D29" stroke-width="0.6" stroke-linecap="round"/>
<path d="M8.51252 8.21001C8.53752 8.26501 8.50752 8.29001 8.47252 8.29501C8.41752 8.30251 8.39002 8.26001 8.38752 8.22001C8.38651 8.20515 8.38851 8.19024 8.39343 8.17619C8.39834 8.16213 8.40606 8.14922 8.41611 8.13823C8.42616 8.12725 8.43834 8.11842 8.4519 8.11227C8.46547 8.10613 8.48014 8.10281 8.49502 8.10251C8.55252 8.10251 8.59752 8.14001 8.62002 8.19001C8.62752 8.20751 8.63252 8.22751 8.63252 8.25001C8.63453 8.28741 8.62199 8.32414 8.59752 8.35251C8.58048 8.37159 8.5597 8.38697 8.53649 8.39772C8.51327 8.40847 8.4881 8.41435 8.46252 8.41501C8.35752 8.41751 8.27502 8.32001 8.27502 8.22001C8.27502 8.02751 8.56002 7.92001 8.67502 7.89501C8.8216 7.85898 8.97163 7.83887 9.12252 7.83501C9.21002 7.83251 9.27752 7.83501 9.37502 7.82251C9.46252 7.81501 9.51002 7.81001 9.60002 7.79001C9.71729 7.76536 9.82595 7.71016 9.91502 7.63001C9.98752 7.56251 10.0275 7.51751 10.0625 7.42501C10.082 7.36808 10.0892 7.30767 10.0836 7.24777C10.078 7.18786 10.0597 7.12983 10.03 7.07751C10.0025 7.03174 9.96512 6.99271 9.92056 6.96329C9.876 6.93388 9.82541 6.91481 9.77252 6.90751C9.68002 6.89501 9.59752 6.93501 9.54752 7.02751C9.52252 7.07251 9.53252 7.14751 9.55002 7.18251C9.56231 7.20392 9.57969 7.22196 9.60062 7.23505C9.62155 7.24813 9.64539 7.25584 9.67002 7.25751C9.76502 7.25751 9.78752 7.19251 9.79002 7.17751C9.80002 7.10751 9.76002 7.08001 9.74002 7.07251C9.72252 7.06751 9.67002 7.07001 9.66002 7.10751C9.65502 7.12001 9.65502 7.14001 9.66502 7.15751" stroke="#703D29" stroke-width="0.6" stroke-linecap="round"/>
<path d="M8.43003 7.90527C8.31003 7.95777 8.22003 7.99777 8.14503 8.11777C8.12462 8.15533 8.11428 8.19753 8.11503 8.24027C8.11503 8.30777 8.14253 8.38277 8.19753 8.43027C8.22013 8.45029 8.24683 8.46514 8.27576 8.47377C8.30469 8.48241 8.33515 8.48463 8.36503 8.48027C8.41503 8.47527 8.45753 8.44027 8.46503 8.41527" stroke="#703D29" stroke-width="0.6" stroke-linecap="round"/>
<path d="M9.62758 5.60254C9.57008 5.62254 9.53008 5.70754 9.53008 5.79004C9.52857 5.82736 9.53703 5.86441 9.55461 5.89737C9.57219 5.93033 9.59824 5.958 9.63008 5.97754" stroke="#703D29" stroke-width="0.6"/>
<path d="M9.69002 5.91016C9.59003 6.03766 9.53253 6.11266 9.53003 6.26266C9.53003 6.40516 9.57253 6.50266 9.65752 6.60516" stroke="#703D29" stroke-width="0.6" stroke-linecap="round"/>
<path d="M9.14758 3.80006L9.15508 3.78756C9.19758 3.72756 9.27258 3.71006 9.32758 3.75006C9.39259 3.80006 9.41009 3.88506 9.39259 3.97506C9.38009 4.03006 9.34259 4.07756 9.29258 4.11256" stroke="#703D29" stroke-width="0.6"/>
<path d="M6.6275 3.77003C6.5625 3.74003 6.51 3.74503 6.47 3.79503C6.45056 3.82027 6.4369 3.84948 6.42998 3.88058C6.42307 3.91168 6.42308 3.94393 6.43 3.97503C6.445 4.04253 6.465 4.07003 6.5175 4.12003" stroke="#703D29" stroke-width="0.6" stroke-linecap="round"/>
<path d="M6.46501 3.79995C6.44896 3.78835 6.43071 3.78016 6.41138 3.77589C6.39205 3.77161 6.37205 3.77133 6.35261 3.77508C6.33317 3.77883 6.3147 3.78652 6.29834 3.79768C6.28199 3.80883 6.26809 3.82322 6.25751 3.83995C6.22642 3.88439 6.21224 3.93848 6.21751 3.99245C6.22251 4.09745 6.28751 4.18245 6.36251 4.22245" stroke="#703D29" stroke-width="0.6"/>
<path d="M6.24253 3.87012C6.20184 3.87493 6.16426 3.89427 6.1367 3.92459C6.10914 3.9549 6.09345 3.99416 6.09253 4.03512C6.09253 4.14762 6.11753 4.19262 6.18003 4.27512C6.24253 4.36012 6.44753 4.51512 6.44753 4.69262C6.44753 4.80012 6.41753 4.86762 6.34003 4.90262C6.29003 4.92762 6.23253 4.90262 6.20503 4.87762C6.14003 4.81762 6.16753 4.71512 6.23503 4.70262C6.31753 4.68762 6.33253 4.81762 6.25253 4.81012" stroke="#703D29" stroke-width="0.6"/>
<path d="M6.1001 3.97998C6.0376 3.98498 5.9751 4.03748 5.9751 4.10498C5.9751 4.19998 6.0126 4.24498 6.0901 4.33998C6.1551 4.42248 6.3426 4.56498 6.3376 4.70248C6.3376 4.75248 6.3001 4.81748 6.2651 4.80998" stroke="#703D29" stroke-width="0.6"/>
<path d="M5.9501 5.90277C5.9826 5.83027 6.0601 5.86277 6.0651 5.90277C6.0751 5.99527 5.9951 6.02277 5.9376 6.00777C5.9243 6.00419 5.91189 5.9979 5.90113 5.9893C5.89038 5.9807 5.88151 5.96996 5.8751 5.95777C5.86736 5.9438 5.86249 5.92842 5.86077 5.91253C5.85905 5.89665 5.86053 5.88058 5.8651 5.86527C5.87001 5.85064 5.87765 5.83707 5.8876 5.82527C5.89582 5.81364 5.90596 5.80349 5.9176 5.79527C5.9426 5.78027 5.9651 5.78027 6.0026 5.78027C6.1401 5.78027 6.2626 5.94277 6.3026 6.11527C6.3176 6.17027 6.3351 6.29777 6.3101 6.41527C6.29004 6.52146 6.23968 6.61957 6.1651 6.69777C6.09381 6.7644 6.00833 6.81397 5.9151 6.84277C5.88349 6.85283 5.84968 6.8537 5.8176 6.84527C5.7476 6.82277 5.7026 6.75777 5.7376 6.67027C5.7676 6.60527 5.8726 6.57027 5.9201 6.65527C5.9251 6.66277 5.9301 6.67777 5.9301 6.69277C5.9301 6.71527 5.9201 6.74277 5.9051 6.75277C5.8701 6.77527 5.8126 6.76777 5.8151 6.70277" stroke="#703D29" stroke-width="0.6" stroke-linecap="round"/>
<path d="M5.76755 6.63535C5.76437 6.61843 5.76572 6.60097 5.77148 6.58475C5.77723 6.56852 5.78718 6.55411 5.80031 6.54297C5.81345 6.53184 5.82929 6.52438 5.84624 6.52136C5.86319 6.51833 5.88063 6.51985 5.89681 6.52575C5.91298 6.53166 5.9273 6.54174 5.93831 6.55497C5.94932 6.5682 5.95664 6.58412 5.95951 6.60109C5.96237 6.61807 5.9607 6.6355 5.95465 6.65162C5.94859 6.66773 5.93838 6.68196 5.92505 6.69285M5.84505 6.76035C5.87005 6.77035 5.88505 6.76785 5.91755 6.75535L5.96255 6.73035C6.02755 6.69285 6.10255 6.63535 6.17255 6.50285C6.19147 6.46733 6.20576 6.42952 6.21505 6.39035C6.22255 6.36535 6.22755 6.33535 6.23005 6.30785C6.23204 6.17079 6.18998 6.03671 6.11005 5.92535C6.08255 5.88535 6.06005 5.86285 6.00505 5.86035L5.84505 6.76035Z" stroke="#703D29" stroke-width="0.6"/>
<path d="M5.80505 6.53498C5.80917 6.51358 5.82071 6.49433 5.83763 6.48061C5.85455 6.46689 5.87577 6.45958 5.89755 6.45998C5.92165 6.46063 5.94454 6.47066 5.96135 6.48794C5.97816 6.50521 5.98756 6.52837 5.98755 6.55248C5.98775 6.57653 5.97882 6.59975 5.96255 6.61748" stroke="#703D29" stroke-width="0.6"/>
<path d="M5.98499 6.53266C6.03311 6.49656 6.07217 6.44976 6.09908 6.39595C6.12598 6.34215 6.13999 6.28281 6.13999 6.22266C6.13999 6.12016 6.09999 6.01266 6.04999 5.97266" stroke="#703D29" stroke-width="0.6"/>
<path d="M6.11758 6.48535C6.07945 6.54854 6.02506 6.60034 5.96008 6.63535" stroke="#703D29" stroke-width="0.6" stroke-linecap="round"/>
<path d="M6.365 6.84249C6.34 6.78749 6.295 6.76249 6.22 6.75499C6.145 6.74749 6.0825 6.76749 6.015 6.80249C5.93395 6.83993 5.86538 6.89991 5.8175 6.97528C5.76962 7.05064 5.74446 7.1382 5.745 7.22748C5.74599 7.30916 5.76298 7.38984 5.795 7.46498C5.8175 7.50498 5.87 7.68998 6.1775 7.81498C6.3855 7.87981 6.60214 7.91269 6.82 7.91248C7.08 7.92248 7.32 7.93248 7.46 8.10248" stroke="#703D29" stroke-width="0.6"/>
<path d="M5.99255 6.89786C6.07505 6.84286 6.23005 6.77286 6.37005 6.84286C6.39435 6.8532 6.41635 6.86823 6.4348 6.88711C6.45325 6.90599 6.46778 6.92834 6.47756 6.95286C6.49075 6.99302 6.49354 7.03588 6.48567 7.07741C6.4778 7.11895 6.45952 7.15781 6.43255 7.19036C6.41005 7.21536 6.36505 7.25536 6.30755 7.25786C6.21255 7.25786 6.19005 7.19286 6.18755 7.17786C6.17755 7.10786 6.21755 7.08036 6.23755 7.07286C6.25505 7.06786 6.30755 7.07036 6.31755 7.10786C6.32255 7.12036 6.32255 7.14036 6.31255 7.15786" stroke="#703D29" stroke-width="0.6" stroke-linecap="round"/>
<path d="M6.31758 7.14254C6.32508 7.11754 6.32258 7.08754 6.29758 7.06004C6.27858 7.04032 6.25373 7.02723 6.22671 7.02273C6.1997 7.01823 6.17195 7.02254 6.14758 7.03504C6.13008 7.04754 6.10758 7.06004 6.08758 7.09004C6.07758 7.10004 6.06258 7.11754 6.05758 7.13004C6.04008 7.15754 6.03258 7.18004 6.03258 7.19254C5.97008 7.36754 6.07008 7.55254 6.19508 7.63254C6.30508 7.70254 6.41508 7.72254 6.55508 7.73254C6.61758 7.74004 6.65508 7.74004 6.71758 7.74504H6.95758C7.01754 7.74196 7.07762 7.74196 7.13758 7.74504C7.21258 7.75254 7.26508 7.75504 7.32758 7.76504C7.36758 7.77004 7.41508 7.77754 7.46258 7.79004C7.47758 7.79004 7.49258 7.79504 7.50758 7.80004L7.53758 7.80754C7.62758 7.83504 7.71258 7.86754 7.78258 7.91254C7.80258 7.92504 7.82758 7.93754 7.84508 7.95504L7.87758 7.98504C7.92758 8.03504 7.97758 8.08504 7.98758 8.15254V8.19254C7.98758 8.23754 7.95258 8.30004 7.85508 8.31754" stroke="#703D29" stroke-width="0.6"/>
<path d="M7.46506 8.21001C7.44006 8.26501 7.47006 8.29001 7.50506 8.29501C7.56006 8.30251 7.58756 8.26001 7.59256 8.22001C7.59359 8.20494 7.59151 8.18983 7.58644 8.17561C7.58138 8.16138 7.57344 8.14835 7.56312 8.13733C7.5528 8.12631 7.54032 8.11753 7.52646 8.11154C7.5126 8.10555 7.49766 8.10247 7.48256 8.10251C7.45541 8.10312 7.42906 8.11176 7.40681 8.12733C7.38457 8.1429 7.36743 8.16471 7.35756 8.19001C7.34985 8.2091 7.34561 8.22942 7.34506 8.25001C7.34305 8.28741 7.35559 8.32414 7.38006 8.35251C7.39711 8.37159 7.41788 8.38697 7.4411 8.39772C7.46432 8.40847 7.48949 8.41435 7.51506 8.41501C7.62006 8.41751 7.70256 8.32001 7.70256 8.22001C7.70256 8.02751 7.41756 7.92001 7.30256 7.89501C7.15598 7.85898 7.00595 7.83887 6.85506 7.83501C6.76756 7.83251 6.70006 7.83501 6.60256 7.82251C6.51506 7.81501 6.46756 7.81001 6.37756 7.79001C6.26119 7.76495 6.15343 7.70978 6.06506 7.63001C5.98183 7.56839 5.92396 7.4785 5.90232 7.37722C5.88069 7.27595 5.89677 7.17026 5.94756 7.08001C5.97479 7.03377 6.01207 6.99426 6.05665 6.9644C6.10122 6.93454 6.15195 6.91509 6.20506 6.90751C6.30006 6.89501 6.38006 6.93501 6.43006 7.02751C6.45506 7.07251 6.44506 7.14751 6.42756 7.18251C6.41527 7.20392 6.39789 7.22196 6.37696 7.23505C6.35603 7.24813 6.33219 7.25584 6.30756 7.25751C6.21256 7.25751 6.19006 7.19251 6.18756 7.17751C6.17756 7.10751 6.21756 7.08001 6.23756 7.07251C6.25506 7.06751 6.30756 7.07001 6.31756 7.10751C6.32256 7.12001 6.32256 7.14001 6.31256 7.15751" stroke="#703D29" stroke-width="0.6"/>
<path d="M6.83253 3.80006L6.82253 3.78756C6.78003 3.72756 6.70503 3.71006 6.65003 3.75006C6.58503 3.80006 6.56753 3.88506 6.58753 3.97506C6.6016 4.03221 6.6375 4.08157 6.68753 4.11256" stroke="#703D29" stroke-width="0.6" stroke-linecap="round"/>
<path d="M9.17006 3.99015C9.07006 4.10015 8.96756 4.13515 8.81756 4.14015C8.76756 4.14015 8.68006 4.12515 8.62756 4.08765C8.59506 4.06265 8.55756 4.02265 8.58006 3.95015C8.59506 3.90265 8.67256 3.77015 8.67506 3.67765C8.68256 3.53765 8.62756 3.46015 8.54256 3.43015C8.38756 3.37515 8.21756 3.53015 8.11756 3.56515C8.06506 3.58265 8.03756 3.58515 7.99006 3.58515C7.94006 3.58515 7.91506 3.58265 7.86006 3.56515C7.76006 3.53015 7.59256 3.37515 7.43506 3.43015C7.35006 3.46015 7.29756 3.53765 7.30256 3.68015C7.30506 3.77015 7.38256 3.90515 7.39756 3.95015C7.42256 4.02265 7.38506 4.06265 7.35006 4.08765C7.30006 4.12515 7.20756 4.14015 7.16256 4.13765C7.01256 4.13515 6.91006 4.10015 6.81006 3.99015" stroke="#703D29" stroke-width="0.6"/>
<path d="M7.4325 7.86035C7.4525 7.86785 7.4375 7.85535 7.565 7.91035C7.68143 7.95077 7.78092 8.02913 7.8475 8.13285C7.87675 8.18898 7.88475 8.2538 7.87 8.31535" stroke="#703D29" stroke-width="0.6" stroke-linecap="round"/>
<path d="M7.4425 8.40023C7.4673 8.41325 7.49456 8.42092 7.5225 8.42273C7.6275 8.42523 7.71 8.32773 7.71 8.22773C7.71 8.15773 7.6725 8.09773 7.62 8.05273" stroke="#703D29" stroke-width="0.6"/>
<path d="M7.46501 8.21006C7.44001 8.26756 7.47501 8.29756 7.51001 8.30256C7.56501 8.30756 7.59501 8.26756 7.60001 8.22756C7.60152 8.20667 7.59717 8.18578 7.58746 8.16723C7.57774 8.14868 7.56304 8.13321 7.54501 8.12256" stroke="#703D29" stroke-width="0.6" stroke-linecap="round"/>
<path d="M9.75257 3.87012C9.83257 3.87012 9.90257 3.96012 9.90257 4.05012C9.90257 4.15762 9.84757 4.22262 9.80507 4.27012C9.77257 4.31012 9.73757 4.34512 9.69507 4.38762" stroke="#703D29" stroke-width="0.6"/>
<path d="M5.845 6.60531C5.875 6.60531 5.9075 6.62781 5.9275 6.66281C5.93 6.66781 5.9375 6.68281 5.9375 6.70031C5.9375 6.72281 5.9275 6.74531 5.9125 6.75531C5.875 6.78031 5.8125 6.76781 5.8125 6.70531M9.6575 3.78531C9.68472 3.80027 9.70856 3.8207 9.7275 3.84531C9.76 3.89531 9.77 3.93781 9.7675 4.00031C9.7625 4.10531 9.6875 4.17781 9.6175 4.22531L9.6575 3.78531ZM9.5 3.78531L9.515 3.80281C9.5625 3.85781 9.565 3.93781 9.555 3.98281C9.54939 4.01067 9.53804 4.03706 9.52169 4.0603C9.50533 4.08354 9.48433 4.10312 9.46 4.11781L9.5 3.78531ZM9.335 3.75781C9.4 3.80781 9.42 3.89281 9.3975 3.98281C9.3825 4.04531 9.3425 4.08281 9.2925 4.11281L9.335 3.75781ZM9.57 5.14031C9.5775 5.16531 9.5925 5.17281 9.6075 5.19031C9.65041 5.23282 9.70393 5.26304 9.7625 5.27781C9.8225 5.29531 9.8775 5.28281 9.92 5.25531L9.57 5.14031Z" stroke="#703D29" stroke-width="0.6" stroke-linecap="round"/>
<path d="M5.89758 6.46272C5.94758 6.46272 5.99258 6.51022 5.99258 6.56272C5.99278 6.58677 5.98384 6.60999 5.96758 6.62772M6.03758 5.78271C6.16258 5.80771 6.28008 5.95521 6.31758 6.11522C6.33258 6.17272 6.35008 6.29772 6.32508 6.41522C6.30407 6.52285 6.25191 6.62195 6.17508 6.70022C6.15898 6.71752 6.14141 6.73342 6.12258 6.74772L6.09758 6.76522L6.03758 5.78271Z" stroke="#703D29" stroke-width="0.6"/>
<path d="M5.86499 6.51758C5.91749 6.51758 5.96749 6.56758 5.96749 6.62258C5.96751 6.63688 5.96439 6.65101 5.95834 6.66397C5.95229 6.67694 5.94347 6.68841 5.93249 6.69758" stroke="#703D29" stroke-width="0.6"/>
<path d="M6.44501 6.39279C6.43669 6.42755 6.42409 6.46114 6.40751 6.49279C6.38428 6.53671 6.35385 6.57643 6.3175 6.61029M6.35001 5.98779C6.39674 6.04336 6.42933 6.1094 6.44501 6.18029L6.35001 5.98779Z" stroke="#703D29" stroke-width="0.6" stroke-linecap="round"/>
<path d="M6.35754 5.60742C6.40254 5.64492 6.43254 5.68242 6.44504 5.72742" stroke="#703D29" stroke-width="0.6"/>
<path d="M6.13257 5.17246L6.18757 5.15746L6.22007 5.13246L6.24007 5.10496L6.25757 5.05996L6.26507 5.02246M6.44757 5.48746C6.43104 5.53325 6.40149 5.57322 6.36257 5.60246L6.44757 5.48746Z" stroke="#703D29" stroke-width="0.6" stroke-linecap="round"/>
<path d="M6.02505 4.98242C6.00755 4.98742 5.98505 4.99242 5.96255 5.00242C5.92737 5.0194 5.89721 5.04525 5.87505 5.07742C5.81576 5.17193 5.796 5.28597 5.82005 5.39492C5.83002 5.44486 5.84954 5.4924 5.87755 5.53492L5.90255 5.56992C5.93755 5.60242 5.96755 5.61992 6.01755 5.61242" stroke="#703D29" stroke-width="0.6"/>
<path d="M6.325 4.74512C6.3175 4.77762 6.3 4.81762 6.25 4.81262" stroke="#703D29" stroke-width="0.6" stroke-linecap="round"/>
<path d="M6.14257 4.96259C6.09257 4.91509 5.99257 4.90259 5.89007 4.96759L5.85007 5.00009C5.83683 5.01196 5.82508 5.02539 5.81507 5.04009C5.78856 5.0783 5.7683 5.12049 5.75507 5.16509C5.73757 5.24009 5.73758 5.30509 5.74008 5.32259C5.74008 5.34759 5.74507 5.37009 5.74757 5.39009C5.76257 5.46009 5.78257 5.51009 5.80507 5.54509C5.82757 5.58259 5.88007 5.67009 5.99757 5.68009C6.04257 5.68259 6.11757 5.66259 6.12257 5.60509" stroke="#703D29" stroke-width="0.6"/>
<path d="M9.09506 3.92517C9.10256 3.88517 9.15256 3.87767 9.17006 3.90017C9.20006 3.94017 9.18006 4.00517 9.12006 4.02267C9.10255 4.02582 9.08451 4.02423 9.06781 4.01808C9.05111 4.01193 9.03635 4.00143 9.02506 3.98767C9.00006 3.95517 9.00256 3.91767 9.01256 3.88767C9.01756 3.86767 9.03506 3.85017 9.05506 3.83267C9.12256 3.78267 9.23256 3.79267 9.27006 3.88267C9.31506 3.99267 9.21506 4.07767 9.12006 4.14017C9.00506 4.22017 8.87006 4.23517 8.77007 4.23267C8.54007 4.23267 8.36757 4.12267 8.25257 4.05767C8.22757 4.04517 8.20007 4.04767 8.18507 4.06517C8.17759 4.0753 8.17421 4.08787 8.1756 4.10039C8.17699 4.1129 8.18305 4.12443 8.19257 4.13267" stroke="#703D29" stroke-width="0.6" stroke-linecap="round"/>
<path d="M9.57257 5.3177C9.48507 5.4127 9.56757 5.5752 9.63257 5.6127C9.65507 5.6302 9.66507 5.6202 9.68257 5.6302M9.14006 3.8877C9.16506 3.8877 9.17006 3.8977 9.17756 3.9077C9.20756 3.9452 9.18506 4.0102 9.12756 4.0302L9.14006 3.8877Z" stroke="#703D29" stroke-width="0.6" stroke-linecap="round"/>
<path d="M9.57751 5.13492C9.55001 5.15492 9.54001 5.17742 9.53751 5.21742C9.53615 5.2356 9.53856 5.25387 9.54458 5.27107C9.5506 5.28828 9.56011 5.30406 9.57251 5.31742C9.63596 5.37585 9.71876 5.40879 9.80501 5.40992C9.85501 5.40992 9.90501 5.39992 9.95501 5.36742C10.0026 5.33608 10.0366 5.28783 10.05 5.23242L9.57751 5.13492ZM9.53001 6.77742L9.52501 6.83992C9.51984 6.90094 9.50286 6.96038 9.47501 7.01492C9.44913 7.06778 9.41351 7.11528 9.37001 7.15492C9.32737 7.19699 9.27738 7.23088 9.22251 7.25492C9.17131 7.28162 9.11661 7.30098 9.06001 7.31242C8.9514 7.33408 8.84014 7.33914 8.73001 7.32742C8.66251 7.32242 8.62751 7.31492 8.56001 7.30742C8.50501 7.30492 8.47501 7.29992 8.42001 7.29992C8.32694 7.29767 8.23433 7.31381 8.14751 7.34742C8.08001 7.37242 8.00501 7.42242 7.98751 7.44242C7.97251 7.41992 7.89501 7.37242 7.83001 7.34742C7.78839 7.32962 7.74472 7.31702 7.70001 7.30992C7.64501 7.29992 7.61251 7.29992 7.55501 7.29992C7.50001 7.29992 7.47001 7.30492 7.41501 7.30992C7.35001 7.31492 7.31501 7.32492 7.24751 7.32742C7.18501 7.33242 7.15001 7.33492 7.09001 7.33242C7.03113 7.33202 6.97246 7.32531 6.91501 7.31242C6.85854 7.30177 6.80384 7.28326 6.75251 7.25742C6.69834 7.23237 6.6492 7.19763 6.60751 7.15492C6.56375 7.11454 6.52812 7.06618 6.50251 7.01242C6.47503 6.95862 6.45806 6.90008 6.45251 6.83992C6.44751 6.81492 6.44751 6.77742 6.44751 6.77742V4.23242H9.52751V6.77742H9.53001Z" stroke="#703D29" stroke-width="0.6"/>
<path d="M6.2 7.14008C6.2 7.1235 6.20658 7.1076 6.21831 7.09588C6.23003 7.08416 6.24592 7.07758 6.2625 7.07758C6.27908 7.07758 6.29497 7.08416 6.30669 7.09588C6.31841 7.1076 6.325 7.1235 6.325 7.14008C6.325 7.15665 6.31841 7.17255 6.30669 7.18427C6.29497 7.19599 6.27908 7.20258 6.2625 7.20258C6.24592 7.20258 6.23003 7.19599 6.21831 7.18427C6.20658 7.17255 6.2 7.15665 6.2 7.14008ZM5.8125 6.70008C5.8125 6.66758 5.8325 6.64258 5.8575 6.64258C5.8825 6.64258 5.9 6.66758 5.9 6.70008C5.9 6.73008 5.88 6.75508 5.8575 6.75508C5.8325 6.75508 5.8125 6.73008 5.8125 6.70008Z" fill="#C7B37F" stroke="#C7B37F" stroke-width="0.3"/>
<path d="M6.03247 5.59014C6.03247 5.56514 6.05247 5.54514 6.07497 5.54514C6.09997 5.54514 6.11747 5.56514 6.11747 5.59014C6.11747 5.61514 6.09997 5.63514 6.07497 5.63514C6.04997 5.63514 6.03247 5.61514 6.03247 5.59014ZM6.79997 3.95014C6.79997 3.92514 6.81247 3.90014 6.83497 3.90014C6.85747 3.89764 6.87747 3.91514 6.87997 3.94014C6.87997 3.96514 6.86747 3.99014 6.84497 3.99014C6.82247 3.99264 6.80497 3.97514 6.79997 3.95014Z" fill="#C7B37F"/>
<path d="M6.34501 5.9551L6.32501 5.9351L6.30001 5.9151L6.27751 5.8951M5.98251 5.8501C5.97251 5.8526 5.9675 5.8551 5.9625 5.8626C5.955 5.8701 5.9525 5.8726 5.9475 5.8851L5.9425 5.9151L5.98251 5.8501ZM6.06 6.5826L6.085 6.5576L6.10001 6.5326L6.11251 6.5076L6.13001 6.4751L6.06 6.5826ZM6.0975 6.8251L6.06 6.8426L6.03251 6.8576C6.02138 6.86379 6.01054 6.87046 6.00001 6.8776L5.97001 6.9026L6.0975 6.8251Z" stroke="#C7B37F" stroke-width="0.6" stroke-linecap="round"/>
<path d="M6.3551 5.625L6.3251 5.6375C6.31305 5.64187 6.3004 5.6444 6.2876 5.645" stroke="#C7B37F" stroke-width="0.6"/>
<path d="M6.57506 3.99268C6.58256 4.01018 6.58256 4.01768 6.59256 4.03268C6.59756 4.04518 6.60256 4.05268 6.61256 4.06268L6.64506 4.09518C6.66256 4.11018 6.67506 4.11268 6.69506 4.12268M5.93506 5.21018C5.94006 5.22518 5.94006 5.23518 5.94756 5.24768C5.95256 5.26518 5.96006 5.27518 5.97006 5.29018C5.98629 5.31734 6.00853 5.34043 6.03506 5.35768L6.07256 5.37768L5.93506 5.21018ZM6.04756 5.23268L6.08006 5.24768C6.10374 5.25785 6.12929 5.26295 6.15506 5.26268L6.20006 5.26018L6.04756 5.23268ZM6.38006 4.24268L6.33006 4.21268C6.30756 4.20018 6.29756 4.19018 6.28006 4.17518C6.26992 4.16521 6.26071 4.15433 6.25256 4.14268L6.23256 4.11018L6.38006 4.24268ZM6.42006 3.99518L6.43506 4.03768C6.44403 4.05608 6.45584 4.07295 6.47006 4.08768C6.49506 4.11268 6.51256 4.12018 6.54006 4.14268L6.42006 3.99518Z" stroke="#C7B37F" stroke-width="0.6" stroke-linecap="round"/>
<path d="M8.33252 3.79012C8.33252 3.74762 8.29002 3.74512 8.27252 3.74512C8.22752 3.74512 8.21502 3.77262 8.15752 3.80262C8.10796 3.83568 8.0496 3.8531 7.99002 3.85262C7.93046 3.85295 7.87215 3.83554 7.82252 3.80262C7.76502 3.77262 7.75502 3.74512 7.70752 3.74512C7.69997 3.74544 7.69255 3.74725 7.6857 3.75044C7.67885 3.75363 7.67269 3.75814 7.66758 3.76371C7.66247 3.76928 7.65851 3.77581 7.65593 3.78291C7.65334 3.79002 7.65219 3.79756 7.65252 3.80512V3.82762L7.66002 3.83262C7.66002 3.81262 7.66252 3.80262 7.67252 3.79012C7.67742 3.78417 7.68351 3.77931 7.6904 3.77587C7.69729 3.77242 7.70483 3.77046 7.71252 3.77012C7.75752 3.77012 7.77502 3.80012 7.83252 3.83012C7.90752 3.87012 7.93752 3.87762 8.00002 3.88012C8.06043 3.88095 8.11968 3.86352 8.17002 3.83012C8.22752 3.80012 8.24502 3.76762 8.29002 3.76762C8.30502 3.76762 8.31502 3.77762 8.32252 3.79262V3.81512L8.32752 3.81762C8.32752 3.81012 8.33252 3.80762 8.33252 3.79262V3.79012Z" fill="#703D29" stroke="#703D29" stroke-width="0.2"/>
<path d="M6.61001 7.34992C6.62251 7.33742 6.63251 7.34242 6.63501 7.33492C6.63501 7.32992 6.63501 7.32992 6.62751 7.32742L6.60501 7.32242L6.58501 7.31242C6.58251 7.31242 6.57501 7.30742 6.57251 7.31242C6.57001 7.32242 6.59751 7.32242 6.58751 7.34742C6.58288 7.35863 6.57608 7.36883 6.56751 7.37742L6.50251 7.45242L6.49751 7.45492V7.34742L6.50001 7.30242C6.50501 7.29242 6.52001 7.30242 6.52251 7.29242C6.52251 7.28992 6.52251 7.28742 6.51501 7.28492C6.51001 7.28492 6.50251 7.28492 6.48751 7.27742L6.46251 7.26492C6.45751 7.26492 6.45001 7.25992 6.44751 7.26492L6.45001 7.27242C6.46001 7.27742 6.46251 7.28242 6.46251 7.29742V7.48242C6.46251 7.49492 6.46501 7.49742 6.46751 7.49992C6.47001 7.49992 6.47251 7.49992 6.47751 7.49242L6.61001 7.34992Z" fill="#703D29"/>
<path d="M6.68746 7.37967C6.69496 7.35217 6.71246 7.36967 6.71246 7.35967C6.71496 7.35467 6.71246 7.35467 6.70746 7.35217L6.67496 7.34217C6.66496 7.34217 6.65496 7.33467 6.64496 7.33217C6.64496 7.33217 6.63746 7.32967 6.63496 7.33217C6.63246 7.34467 6.66246 7.34467 6.65496 7.36967L6.61246 7.50716C6.60496 7.53216 6.58746 7.52216 6.58496 7.53216V7.53466L6.61496 7.54466L6.65496 7.55716H6.66246C6.66746 7.54716 6.63246 7.54966 6.64496 7.51466L6.68746 7.37967ZM6.77996 7.40467C6.78496 7.38967 6.79246 7.39217 6.80246 7.39467C6.82746 7.40217 6.83746 7.42716 6.82746 7.45716C6.82246 7.47216 6.81746 7.48716 6.77746 7.47716C6.76996 7.47466 6.75996 7.47217 6.76246 7.46467L6.77996 7.40717V7.40467ZM6.70996 7.52966C6.69746 7.56466 6.67996 7.54966 6.67746 7.55966C6.67746 7.56466 6.68246 7.56466 6.68496 7.56716L6.72496 7.57716L6.74496 7.58466H6.75496C6.75746 7.57216 6.72996 7.57716 6.73746 7.54716L6.75246 7.49716C6.75496 7.48716 6.75496 7.48466 6.76746 7.48966C6.78246 7.49216 6.78496 7.49716 6.78746 7.50966L6.79496 7.55966C6.79996 7.58216 6.80246 7.60216 6.81996 7.60966C6.83246 7.60966 6.84996 7.60966 6.85496 7.59966L6.84996 7.59466H6.84246C6.84246 7.59466 6.83496 7.59466 6.83496 7.58716L6.81746 7.49716C6.81746 7.49216 6.82746 7.49216 6.83746 7.48966C6.84369 7.48632 6.84914 7.4817 6.85345 7.4761C6.85775 7.47049 6.86083 7.46404 6.86246 7.45716C6.86496 7.44466 6.87246 7.40217 6.81746 7.38467L6.76496 7.37217L6.73496 7.36217H6.72746C6.72496 7.37467 6.75496 7.37217 6.74496 7.40467L6.70746 7.52966H6.70996ZM6.91996 7.59216C6.90996 7.62716 6.88496 7.60466 6.88246 7.61716C6.88246 7.62216 6.88496 7.62466 6.88996 7.62466L6.92746 7.63216L6.96246 7.64216C6.96996 7.64216 6.97496 7.64716 6.97746 7.63966C6.97746 7.63216 6.94496 7.63216 6.95246 7.59466L6.98496 7.46467C6.98496 7.44967 6.98996 7.44967 6.99996 7.45217L7.02496 7.45716C7.05246 7.46466 7.03746 7.49466 7.04996 7.49716C7.05496 7.49716 7.05496 7.48716 7.05496 7.48216L7.05746 7.45716V7.44716L6.97496 7.42967L6.89496 7.40967C6.89246 7.40967 6.88996 7.40967 6.88996 7.41467L6.87746 7.45217C6.87496 7.45467 6.87246 7.46216 6.87746 7.46216C6.88996 7.46466 6.88996 7.42466 6.91996 7.43216L6.94246 7.43717C6.95246 7.43967 6.95496 7.44216 6.95246 7.45716L6.91996 7.59216ZM7.23746 7.50966C7.24746 7.49466 7.25746 7.49716 7.25996 7.49216C7.25996 7.48717 7.25496 7.48716 7.24996 7.48466H7.22746L7.20496 7.47716C7.20246 7.47716 7.19496 7.47467 7.19496 7.47967C7.19246 7.48967 7.21996 7.48466 7.21496 7.51216C7.21496 7.51716 7.21246 7.52716 7.19996 7.54466L7.14996 7.62716L7.14246 7.63216V7.62716L7.12496 7.52716C7.12161 7.51241 7.12077 7.4972 7.12246 7.48216C7.12246 7.46966 7.13996 7.47716 7.13996 7.46966C7.13996 7.46466 7.13996 7.46466 7.12996 7.46216L7.10246 7.45966C7.09246 7.45966 7.08496 7.45467 7.07746 7.45217C7.07246 7.45217 7.06496 7.44967 7.06246 7.45467L7.06496 7.45966C7.07746 7.46466 7.07996 7.46966 7.08246 7.48216L7.11496 7.66466C7.11746 7.67716 7.11996 7.68216 7.12246 7.68216C7.12496 7.68216 7.12746 7.68216 7.13246 7.67466L7.23746 7.50966ZM7.25246 7.67966C7.25246 7.68716 7.25246 7.68716 7.25746 7.69216C7.27246 7.69716 7.28246 7.70716 7.29996 7.70966C7.33496 7.71466 7.36496 7.69216 7.36996 7.65466C7.37746 7.61716 7.36246 7.60216 7.33496 7.58216C7.30246 7.55966 7.28996 7.55466 7.29246 7.53216C7.29496 7.51466 7.30996 7.50716 7.32746 7.50716C7.37246 7.51466 7.36746 7.57216 7.37246 7.57216C7.37996 7.57216 7.37996 7.56966 7.37996 7.56216L7.38496 7.52216V7.51216H7.36996C7.35996 7.51216 7.35246 7.49966 7.32996 7.49466C7.29996 7.48966 7.27246 7.51216 7.26746 7.54466C7.26246 7.57466 7.27746 7.58966 7.29746 7.60466C7.33746 7.63216 7.35246 7.63966 7.34746 7.66466C7.34496 7.68966 7.32496 7.69966 7.30496 7.69716C7.27496 7.69216 7.26496 7.66216 7.25996 7.63216C7.25996 7.62716 7.25996 7.62466 7.25496 7.62466C7.24996 7.62466 7.24996 7.63216 7.24996 7.63716V7.67966H7.25246ZM7.64746 7.56716C7.65496 7.54966 7.66746 7.55216 7.66746 7.54466C7.66746 7.53966 7.66496 7.54216 7.65746 7.53966H7.63496L7.61246 7.53716C7.60996 7.53716 7.60246 7.53716 7.60246 7.54216C7.60246 7.55216 7.62746 7.54216 7.62746 7.56966C7.62746 7.57466 7.62496 7.58466 7.61496 7.60466L7.56996 7.69216L7.56746 7.69966L7.56496 7.69216L7.53746 7.59216C7.53295 7.57929 7.53043 7.5658 7.52996 7.55216C7.52996 7.53966 7.54746 7.54466 7.54746 7.53716C7.54746 7.53216 7.54746 7.53216 7.53746 7.53216H7.50746L7.48246 7.52716C7.47746 7.52716 7.46996 7.52466 7.46746 7.52966L7.47246 7.53466C7.48246 7.53966 7.48746 7.54216 7.48996 7.55466L7.54246 7.73216L7.55246 7.74966C7.55496 7.74966 7.55746 7.74966 7.55996 7.73966L7.64746 7.56466V7.56716Z" fill="#703D29"/>
<path d="M7.69003 7.71237C7.69003 7.74237 7.66503 7.73737 7.66503 7.74987C7.66503 7.75487 7.66753 7.75237 7.67253 7.75237H7.72753L7.73753 7.74987C7.73753 7.73487 7.70253 7.75487 7.70253 7.69987V7.59487L7.70503 7.59237L7.71003 7.59487L7.83753 7.75237L7.84503 7.75487L7.85003 7.74737V7.57987C7.85003 7.54737 7.87503 7.55487 7.87503 7.54737C7.87503 7.54737 7.87503 7.54237 7.86753 7.54237H7.81003C7.80503 7.54237 7.80503 7.54487 7.80503 7.54737C7.80503 7.55737 7.83753 7.55237 7.83753 7.57987V7.67987L7.83503 7.68987L7.82503 7.68237L7.72003 7.54987C7.71503 7.54237 7.71753 7.54237 7.71003 7.54237H7.66503L7.66003 7.54487C7.66003 7.55987 7.69003 7.53987 7.69003 7.59737V7.71237ZM7.95003 7.57487C7.95003 7.54737 7.97003 7.55737 7.97003 7.54737C7.97003 7.54487 7.97003 7.54237 7.96003 7.54237H7.89503C7.89503 7.54237 7.88753 7.54237 7.88753 7.54737C7.88753 7.55737 7.91503 7.54737 7.91503 7.57737V7.71987C7.91503 7.74737 7.89503 7.73987 7.89503 7.74987C7.89503 7.74987 7.89503 7.75487 7.90003 7.75487H7.97003C7.97503 7.75487 7.97753 7.75487 7.97753 7.74987C7.97753 7.73987 7.94753 7.75487 7.94753 7.71737L7.95003 7.57487ZM8.06253 7.71237C8.06253 7.74987 8.03253 7.73737 8.03253 7.74737C8.03253 7.75237 8.03753 7.75237 8.04253 7.75237H8.11753C8.12503 7.75237 8.13003 7.75237 8.13003 7.74487C8.13003 7.73737 8.09503 7.74487 8.09503 7.70987V7.57487C8.09503 7.55987 8.09503 7.55987 8.10753 7.55987H8.13253C8.16253 7.55737 8.15253 7.58987 8.16503 7.58987C8.17003 7.58987 8.16753 7.57987 8.16753 7.57487L8.16503 7.54987C8.16503 7.54487 8.16503 7.53987 8.16003 7.53987L8.07753 7.54237H7.99503L7.99003 7.54987L7.98753 7.58987L7.99003 7.59987C8.00253 7.59987 7.99503 7.55987 8.02503 7.55987H8.04753C8.05753 7.55987 8.06003 7.55987 8.06253 7.57487V7.71487V7.71237ZM8.22003 7.65737H8.21003L8.21253 7.64487L8.23003 7.58987V7.58487L8.23503 7.58737L8.26003 7.63987L8.26503 7.64987C8.26503 7.65487 8.26003 7.65487 8.25503 7.65487H8.22003V7.65737ZM8.26503 7.66987C8.27253 7.66987 8.27253 7.66987 8.28503 7.69487L8.29003 7.71487C8.29003 7.73237 8.27253 7.72987 8.27253 7.73987C8.27253 7.74237 8.27753 7.74237 8.28253 7.73987H8.31253L8.34503 7.73737C8.35253 7.73737 8.35503 7.73737 8.35503 7.73237C8.35503 7.72237 8.34003 7.73237 8.33003 7.71487L8.24503 7.53987L8.23753 7.52987C8.23253 7.52987 8.23253 7.53487 8.23003 7.53987L8.17503 7.72487C8.17003 7.74237 8.15503 7.74237 8.15753 7.74987H8.21503C8.22003 7.74737 8.22753 7.74987 8.22753 7.74237C8.22753 7.73487 8.19753 7.74237 8.19503 7.71987L8.20003 7.69487C8.20503 7.67487 8.21003 7.67487 8.21503 7.67487L8.26753 7.66987H8.26503ZM8.47253 7.54487C8.47003 7.52487 8.47253 7.52487 8.50253 7.51987C8.55253 7.51487 8.53753 7.55237 8.55253 7.54987C8.55753 7.54987 8.55253 7.53987 8.55253 7.53487L8.55003 7.50737C8.55003 7.50487 8.54753 7.50237 8.54253 7.50237C8.51753 7.50237 8.50003 7.50737 8.48253 7.50987L8.41253 7.51987C8.40753 7.51987 8.40503 7.51987 8.40503 7.52487C8.40753 7.53737 8.43753 7.52487 8.44003 7.54987L8.45753 7.68737C8.46253 7.72487 8.44003 7.71237 8.44253 7.72487C8.44253 7.72487 8.44253 7.72737 8.44753 7.72487L8.48253 7.72237L8.51253 7.71987C8.52003 7.71987 8.52503 7.71987 8.52503 7.71237C8.52503 7.70487 8.49503 7.71487 8.49003 7.68237L8.48503 7.63987C8.48253 7.62237 8.48253 7.61737 8.49253 7.61487H8.51253C8.54003 7.60987 8.53753 7.64237 8.54503 7.63987C8.55253 7.63987 8.55003 7.62987 8.54753 7.62737L8.54003 7.57487C8.54003 7.56737 8.53503 7.56737 8.53503 7.56737C8.52753 7.56737 8.53253 7.59487 8.51003 7.59737L8.49253 7.59987C8.48003 7.60237 8.48003 7.59987 8.47753 7.58737L8.47253 7.54487ZM8.57253 7.61487C8.58253 7.67237 8.62503 7.70737 8.67753 7.69737C8.76253 7.67987 8.76503 7.60737 8.75753 7.56487C8.74503 7.50237 8.70003 7.47237 8.64753 7.48237C8.58503 7.49487 8.56003 7.54987 8.57253 7.61487ZM8.60003 7.58987C8.59253 7.54987 8.60003 7.50487 8.64253 7.49737C8.67753 7.48987 8.71753 7.51737 8.72753 7.58237C8.73503 7.63237 8.72753 7.67237 8.68253 7.68237C8.63503 7.69237 8.60753 7.63237 8.60003 7.59237V7.58987ZM8.80753 7.48737C8.80503 7.46987 8.81253 7.46737 8.82253 7.46487C8.84753 7.45987 8.86753 7.47737 8.87503 7.50487C8.88003 7.52237 8.88253 7.53987 8.84253 7.54987C8.83503 7.54987 8.82503 7.55237 8.82253 7.54487L8.81003 7.48737H8.80753ZM8.80753 7.62987C8.81753 7.66487 8.79503 7.66237 8.79503 7.66987C8.79753 7.67737 8.80253 7.67487 8.80503 7.67237C8.82003 7.67237 8.83003 7.66487 8.84503 7.66237L8.87003 7.65737C8.87503 7.65737 8.87503 7.65487 8.87503 7.65237C8.87503 7.64237 8.85003 7.65987 8.84253 7.62737L8.83003 7.57737C8.83003 7.56737 8.82503 7.56737 8.84003 7.56487C8.85253 7.55987 8.85753 7.56237 8.86753 7.57237L8.90003 7.61237C8.91253 7.62737 8.92503 7.64487 8.94503 7.63987C8.95753 7.63737 8.97003 7.62737 8.97003 7.61737L8.96503 7.61487L8.95753 7.61737C8.95753 7.61737 8.95003 7.61987 8.94753 7.61737L8.88753 7.54487L8.90003 7.52987C8.90503 7.51987 8.91003 7.50737 8.90503 7.48987C8.90253 7.47737 8.88753 7.43737 8.83003 7.44987L8.77753 7.46487L8.74753 7.46987C8.74253 7.46987 8.74003 7.47237 8.74253 7.47487C8.74253 7.48737 8.77003 7.46987 8.77753 7.49987L8.80753 7.62987ZM9.02503 7.57987C9.03253 7.61487 9.00003 7.60987 9.00253 7.61987C9.00253 7.62737 9.01003 7.62487 9.01503 7.62487L9.05003 7.61237L9.08753 7.60487C9.09503 7.60487 9.10003 7.60487 9.09753 7.59487C9.09753 7.58737 9.06503 7.60487 9.05503 7.56987L9.02253 7.43737C9.01753 7.42487 9.02253 7.42237 9.03004 7.41987L9.05503 7.41487C9.08254 7.40487 9.08254 7.43987 9.09254 7.43737C9.10003 7.43737 9.09254 7.42487 9.09254 7.41987L9.08253 7.39487C9.08253 7.39487 9.08253 7.38737 9.07753 7.38987L8.99753 7.41237L8.91753 7.42987V7.43737L8.92003 7.47737C8.92003 7.48237 8.92003 7.48737 8.92753 7.48737C8.94003 7.48487 8.92003 7.44737 8.95253 7.43987L8.97253 7.43487C8.98253 7.43237 8.98753 7.43487 8.99003 7.44737L9.02503 7.57987ZM9.16253 7.39737C9.15503 7.37237 9.17753 7.37487 9.17253 7.36487H9.16503L9.13004 7.37487L9.10003 7.38237C9.10003 7.38237 9.09254 7.38237 9.09254 7.38737C9.09503 7.39737 9.12253 7.38237 9.13004 7.40737L9.17003 7.54737C9.17503 7.57237 9.15503 7.57237 9.15753 7.57987C9.15753 7.58237 9.15753 7.58487 9.16253 7.58237L9.19003 7.57487L9.23004 7.56487C9.23753 7.56487 9.23753 7.56237 9.23753 7.55737C9.23503 7.54987 9.21003 7.56987 9.20003 7.53487L9.16253 7.39737ZM9.22003 7.46487C9.23753 7.52237 9.28503 7.54987 9.33753 7.53237C9.41753 7.50487 9.41253 7.42987 9.39753 7.38987C9.37753 7.32987 9.32753 7.30737 9.27753 7.32237C9.21753 7.34487 9.19753 7.40237 9.22003 7.46487ZM9.24503 7.43987C9.23003 7.39737 9.23003 7.35237 9.27253 7.33987C9.30503 7.32737 9.34753 7.34987 9.37003 7.41237C9.38503 7.45737 9.38253 7.50237 9.34003 7.51737C9.29503 7.53237 9.26003 7.47987 9.24503 7.43737V7.43987ZM9.43503 7.30237C9.43003 7.28487 9.43503 7.28237 9.44503 7.27737C9.47003 7.26987 9.49504 7.28487 9.50504 7.31237C9.51004 7.32737 9.51503 7.34487 9.47753 7.35987C9.47003 7.35987 9.46003 7.36487 9.45753 7.35987L9.43503 7.30237ZM9.45504 7.44237C9.47004 7.47737 9.44503 7.47737 9.45003 7.48487C9.45003 7.49237 9.45503 7.48737 9.46003 7.48737L9.49753 7.46987L9.52003 7.46487C9.52503 7.46237 9.52503 7.45987 9.52503 7.45737C9.52003 7.44737 9.50003 7.46737 9.49003 7.43737L9.47003 7.38987C9.46503 7.37987 9.46503 7.37737 9.47753 7.37237C9.49003 7.36737 9.49504 7.36987 9.50504 7.37987L9.54503 7.41487C9.55753 7.42737 9.57253 7.44237 9.59503 7.43487C9.60253 7.42987 9.61753 7.41737 9.61253 7.40987L9.60753 7.40737L9.60253 7.41237H9.59003L9.52003 7.34987L9.53004 7.33237C9.53279 7.32606 9.53421 7.31925 9.53421 7.31237C9.53421 7.30548 9.53279 7.29868 9.53004 7.29237C9.52754 7.27737 9.50503 7.24237 9.45253 7.26237L9.40253 7.28487L9.37253 7.29487L9.36753 7.29987C9.37253 7.30987 9.39503 7.28987 9.40753 7.31987L9.45753 7.44487L9.45504 7.44237Z" fill="#703D29"/>
<path d="M6.60315 4.38867H7.91675V5.70067H6.60315V4.38867Z" fill="#D52B1E"/>
<path d="M7.21916 5.42083C7.21916 5.42083 7.21916 5.46883 7.20636 5.50563C7.19036 5.54883 7.19036 5.54883 7.17596 5.56963C7.16042 5.595 7.1397 5.61681 7.11516 5.63363C7.08316 5.65283 7.05116 5.66243 7.01916 5.65923C6.93276 5.65283 6.89116 5.55683 6.87196 5.48003C6.85116 5.39843 6.79196 5.35203 6.75196 5.38403C6.72956 5.40003 6.72956 5.42883 6.74716 5.45763C6.76439 5.47842 6.78712 5.49394 6.81276 5.50243L6.76636 5.56163C6.76636 5.56163 6.66556 5.54883 6.64636 5.44323C6.63836 5.40323 6.65756 5.32963 6.72476 5.30723C6.80956 5.27843 6.86236 5.33923 6.88956 5.39043C6.92476 5.46083 6.94076 5.58883 7.03996 5.56963C7.09436 5.55843 7.11996 5.48003 7.11996 5.44323L7.15836 5.40163L7.21756 5.42083H7.21916Z" fill="white"/>
<path d="M7.3776 4.86385L7.5504 4.67665C7.5504 4.67665 7.576 4.65585 7.576 4.62225L7.5408 4.62865L7.5328 4.60945L7.5312 4.59185L7.5792 4.58065V4.55985L7.584 4.53905L7.5328 4.54225L7.5376 4.51985L7.5456 4.50385L7.576 4.49745H7.6064C7.6352 4.44305 7.7536 4.39505 7.8368 4.48145C7.8976 4.54545 7.8848 4.66065 7.8048 4.69265C7.78692 4.70059 7.7671 4.70316 7.74778 4.70003C7.72846 4.69691 7.71047 4.68823 7.696 4.67505L7.728 4.61105C7.7712 4.63825 7.808 4.60625 7.8048 4.57265C7.8016 4.52945 7.7728 4.50385 7.736 4.50065C7.6992 4.49745 7.672 4.51665 7.656 4.54865C7.6464 4.56945 7.6512 4.58385 7.648 4.60625C7.6448 4.63025 7.648 4.64305 7.64 4.66705C7.63219 4.68914 7.619 4.70894 7.6016 4.72465L7.4256 4.91665L6.7376 5.65905L6.6864 5.61105L7.3776 4.86385Z" fill="#FEDF00"/>
<path d="M6.87196 4.92764C6.87196 4.92764 6.91516 5.14204 7.06236 5.46364C7.13756 5.43644 7.18076 5.41884 7.26076 5.41884C7.33916 5.41884 7.38236 5.43484 7.45756 5.46364C7.53948 5.29207 7.60329 5.11244 7.64796 4.92764L7.26076 4.43164L6.87036 4.92764H6.87196Z" fill="white"/>
<path d="M7.29749 4.59814L7.56629 4.94534C7.56629 4.94534 7.53109 5.11334 7.42229 5.36614C7.37909 5.35654 7.34229 5.34854 7.29749 5.34534V4.59814ZM7.22229 4.59814L6.95349 4.94534C6.95349 4.94534 6.98869 5.11334 7.09749 5.36614C7.14069 5.35654 7.17749 5.34854 7.22229 5.34534V4.59814Z" fill="#FEDF00"/>
<path d="M8.0575 4.3877H9.3725V5.7002H8.0575V4.3877Z" fill="#FEDF00"/>
<path d="M8.24255 4.3877H8.43755V5.7002H8.24255V4.3877ZM8.61755 4.3877H8.81255V5.7002H8.61755V4.3877ZM8.99255 4.3877H9.19005V5.7002H8.99255V4.3877Z" fill="#D52B1E"/>
<path d="M6.60754 6.83728C6.61004 6.86228 6.62004 6.90228 6.64254 6.94478C6.66754 6.98228 6.65754 6.97978 6.71004 7.03978C6.73922 7.06921 6.773 7.0937 6.81004 7.11228C6.92818 7.16315 7.05667 7.18542 7.18504 7.17728C7.25254 7.17478 7.30504 7.16728 7.35004 7.15978C7.44118 7.14767 7.53312 7.14265 7.62504 7.14478C7.66254 7.14478 7.70004 7.15228 7.74254 7.15978C7.83004 7.17728 7.91754 7.20978 7.91754 7.20978V5.84229H6.60254V6.77478L6.60754 6.83478V6.83728Z" fill="#FEDF00"/>
<path d="M6.76001 7.07734L6.82251 7.11484L6.90751 7.14484V5.83984H6.76001V7.07734ZM7.49001 7.13734V5.83984H7.34501V7.15984L7.49001 7.14234V7.13734ZM7.78251 5.83984H7.63751V7.14234C7.68501 7.14734 7.73251 7.15734 7.78251 7.16734V5.84234V5.83984ZM7.19751 5.83984V7.17484C7.19751 7.17484 7.10251 7.17984 7.05251 7.17484V5.83984H7.19751Z" fill="#D52B1E" stroke="#D52B1E" stroke-width="0.3"/>
<path d="M9.36802 6.83824C9.3623 6.87517 9.3504 6.91087 9.33282 6.94384C9.30882 6.98064 9.31682 6.98064 9.26402 7.03984C9.2068 7.09627 9.13462 7.13514 9.05602 7.15184C8.96945 7.17467 8.87975 7.18331 8.79042 7.17744C8.72162 7.17424 8.67042 7.16624 8.62562 7.16144C8.56482 7.15184 8.51842 7.14704 8.44962 7.14544C8.41657 7.14381 8.38346 7.14381 8.35042 7.14544C8.2506 7.15674 8.15237 7.17928 8.05762 7.21264V5.83984H9.37282V6.77584L9.36802 6.83664V6.83824Z" fill="#FEDF00"/>
<path d="M8.39363 5.95193L8.38403 5.95513L8.37123 5.96793C8.36483 5.97433 8.36003 5.97593 8.35203 5.98073L8.34243 5.98873C8.33763 5.99353 8.34243 5.99833 8.33763 6.00473C8.33603 6.01113 8.33283 6.01433 8.32803 6.02073C8.32163 6.02713 8.31683 6.02873 8.31203 6.03673L8.29283 6.05273L8.28803 6.05433H8.27843C8.27203 6.05753 8.27043 6.06393 8.26562 6.06713L8.27043 6.07673L8.28323 6.09913C8.28643 6.10393 8.28643 6.11033 8.29123 6.11193C8.29923 6.11513 8.30563 6.11513 8.31203 6.11353C8.32483 6.11673 8.33283 6.11673 8.34403 6.12153L8.36803 6.13433C8.37603 6.13913 8.38083 6.14073 8.38883 6.14233H8.41763V6.14713L8.44963 6.16313C8.44884 6.16519 8.4483 6.16734 8.44803 6.16953C8.44643 6.17433 8.44483 6.18073 8.44643 6.18233C8.45603 6.21273 8.46563 6.23033 8.47043 6.23353C8.48003 6.23673 8.48323 6.24793 8.48803 6.25753L8.48323 6.26233C8.47363 6.27193 8.46403 6.27833 8.45603 6.29113C8.44483 6.31033 8.43683 6.31033 8.45123 6.33593L8.47523 6.37433C8.48163 6.38553 8.48483 6.39353 8.48803 6.40633C8.49123 6.41753 8.49283 6.42553 8.49283 6.43833L8.50883 6.44313L8.52003 6.43353L8.52963 6.41433V6.39833C8.52643 6.39673 8.52483 6.39193 8.52643 6.38713C8.52643 6.38073 8.53443 6.38233 8.53763 6.37753C8.54243 6.36953 8.53123 6.36473 8.52643 6.35993C8.51683 6.34873 8.50403 6.34553 8.50083 6.32953C8.50083 6.32633 8.50083 6.32313 8.50723 6.31833L8.53923 6.28953C8.54243 6.29113 8.54883 6.29273 8.55523 6.29113L8.57603 6.29753C8.58563 6.30073 8.59043 6.29753 8.59523 6.29753H8.60163L8.60323 6.30713C8.60483 6.32313 8.60163 6.35513 8.60643 6.36313L8.61123 6.37273L8.61443 6.38233V6.41433L8.61123 6.44153C8.61123 6.44793 8.60803 6.45273 8.60323 6.45753C8.60003 6.46393 8.59363 6.46393 8.58723 6.46873V6.48473L8.60483 6.49273L8.62563 6.49753L8.63683 6.49273L8.63843 6.48313L8.64643 6.47513C8.65283 6.47193 8.65923 6.47513 8.66083 6.47353C8.66403 6.46873 8.66083 6.46713 8.66083 6.46073C8.66083 6.45113 8.65763 6.44473 8.65603 6.43513C8.65372 6.42032 8.65318 6.40528 8.65443 6.39033C8.65443 6.38073 8.65443 6.37433 8.65763 6.36633C8.65923 6.35033 8.66403 6.34393 8.66723 6.33113C8.67203 6.31513 8.67203 6.30553 8.67363 6.29113C8.72757 6.29926 8.78263 6.29599 8.83523 6.28153C8.84803 6.29273 8.86243 6.30073 8.87843 6.30713V6.32313C8.87843 6.32793 8.87843 6.32953 8.88163 6.33433L8.88643 6.33913C8.89123 6.33913 8.89443 6.33913 8.89763 6.33593C8.90083 6.33273 8.90083 6.32953 8.90083 6.32473V6.31353H8.92963V6.33113C8.93123 6.33593 8.93443 6.33753 8.93763 6.33753C8.93913 6.33824 8.94077 6.33861 8.94243 6.33861C8.94409 6.33861 8.94573 6.33824 8.94723 6.33753C8.95203 6.33433 8.95043 6.32793 8.95203 6.32153V6.31033L8.96803 6.30393C8.96846 6.30872 8.96846 6.31354 8.96803 6.31833L8.96323 6.33273C8.96003 6.34233 8.95523 6.34553 8.95043 6.35513C8.94403 6.36473 8.94243 6.37113 8.93443 6.37913L8.92483 6.39033L8.91523 6.40473L8.90083 6.42073C8.88963 6.43033 8.88163 6.42393 8.86883 6.43513L8.86403 6.45113L8.88643 6.46073L8.90723 6.46393L8.91363 6.46073C8.91363 6.45593 8.91363 6.45113 8.91843 6.44793C8.92163 6.44313 8.92483 6.44313 8.92963 6.44153C8.93603 6.44153 8.94243 6.44153 8.94563 6.43833C8.95203 6.43353 8.95203 6.42233 8.95683 6.41433C8.96861 6.3906 8.98492 6.3694 9.00483 6.35193L9.03203 6.32953C9.03523 6.32313 9.04003 6.32153 9.04003 6.31353L9.03683 6.30393L9.03363 6.28793C9.05763 6.29913 9.04963 6.29913 9.05283 6.31033C9.05763 6.31993 9.05283 6.32633 9.05443 6.33753C9.05603 6.35033 9.06243 6.35513 9.06243 6.36793C9.06403 6.38233 9.06083 6.39033 9.05763 6.40473C9.05603 6.41753 9.05603 6.42553 9.04963 6.43673C9.04584 6.44607 9.0398 6.45431 9.03203 6.46073L9.02243 6.46873L9.02083 6.48473L9.03843 6.49113L9.06403 6.49753L9.07043 6.49273C9.07363 6.48153 9.07043 6.46553 9.07683 6.46553C9.08323 6.46393 9.08803 6.46553 9.08963 6.46073V6.44953L9.10083 6.37753L9.10723 6.34713L9.11363 6.31993C9.12483 6.28793 9.11043 6.28313 9.09763 6.26233C9.08963 6.25113 9.08643 6.24633 9.08643 6.23833V6.19193C9.08594 6.177 9.08594 6.16206 9.08643 6.14713L9.09283 6.14393C9.11203 6.13273 9.12003 6.12953 9.13123 6.10393C9.13464 6.0964 9.13628 6.08819 9.13603 6.07993V6.06393L9.12963 6.04793C9.12712 6.04319 9.12388 6.03887 9.12003 6.03513C9.10883 6.01913 9.09283 6.01753 9.07683 6.01113C9.05283 6.00313 9.03683 6.00473 9.01283 6.00313C8.98403 5.99993 8.96963 5.99993 8.94243 6.00313C8.91043 6.00313 8.89283 6.00953 8.86083 6.01433L8.78243 6.02073C8.74563 6.02073 8.71203 6.01273 8.68963 6.01433C8.65123 6.01753 8.64963 6.02713 8.59043 6.03193C8.5702 6.03357 8.54992 6.03464 8.52963 6.03513L8.49443 6.02393C8.50883 6.01913 8.51203 6.01593 8.51843 6.00793C8.52323 6.00153 8.52163 5.99673 8.52803 5.99033L8.53923 5.97433C8.53497 5.97114 8.53005 5.96895 8.52483 5.96793H8.50883C8.50216 5.96818 8.49562 5.96981 8.48963 5.97273L8.47683 5.98233L8.44163 5.96313C8.42662 5.9555 8.41036 5.95062 8.39363 5.94873V5.95193Z" fill="#D52B1E"/>
<path d="M9.10077 6.15158L9.08797 6.15638C9.07357 6.16278 9.06237 6.16278 9.04637 6.16438C9.00477 6.16758 8.97757 6.14678 8.93437 6.14998C8.91196 6.15158 8.90236 6.16918 8.87836 6.17558C8.86942 6.17748 8.86031 6.17855 8.85116 6.17878L8.85916 6.16278C8.85916 6.16278 8.83996 6.16758 8.82716 6.16758C8.81854 6.16744 8.80996 6.16637 8.80156 6.16438L8.81756 6.14838L8.79676 6.14518C8.79089 6.14229 8.78549 6.13851 8.78076 6.13398C8.78989 6.13276 8.79897 6.13116 8.80796 6.12918C8.83196 6.12278 8.83996 6.10998 8.87036 6.10678C8.88796 6.10678 8.91836 6.10678 8.99197 6.11958C9.03997 6.12758 9.06237 6.12278 9.07997 6.11478C9.09277 6.10998 9.09597 6.09878 9.09757 6.08598C9.09917 6.07318 9.09117 6.06358 9.08477 6.05718C9.08317 6.05718 9.07677 6.05238 9.06717 6.05078" stroke="#FEDF00" stroke-width="0.64" stroke-linecap="round"/>
<path d="M8.39679 6.00928C8.38879 6.00928 8.38239 6.00928 8.37599 6.01408C8.36799 6.01888 8.36639 6.02528 8.35999 6.03168C8.36799 6.03328 8.37279 6.03808 8.37919 6.03648C8.38559 6.03648 8.38719 6.03328 8.39199 6.02848C8.39679 6.02208 8.39839 6.01728 8.39839 6.00928H8.39679Z" fill="#FCD900" stroke="#FEDF00" stroke-width="0.32"/>
<path d="M8.5072 6.22664C8.5216 6.22984 8.5168 6.27943 8.5376 6.29063M8.576 6.22024C8.58019 6.23297 8.58555 6.24529 8.59201 6.25703C8.59521 6.26983 8.59201 6.27623 8.59521 6.28903V6.31463L8.576 6.22024ZM8.70401 6.20264L8.69921 6.22344L8.68321 6.27943V6.29063L8.70401 6.20264Z" stroke="#FEDF00" stroke-width="0.64" stroke-linecap="round"/>
<path d="M8.96155 6.31632L8.96795 6.31152C8.98412 6.30489 8.99881 6.2951 9.01115 6.28271" stroke="#FEDF00" stroke-width="0.64"/>
<path d="M8.89598 6.21726H8.90878C8.93278 6.21246 8.93598 6.22686 8.95198 6.23646C8.98238 6.25246 8.98558 6.27326 9.02078 6.29086L9.02718 6.29246L9.03998 6.29886M8.83838 6.28766C8.89438 6.27326 8.93278 6.24606 8.95998 6.24126L8.83838 6.28766Z" stroke="#FEDF00" stroke-width="0.64" stroke-linecap="round"/>
<path d="M8.2832 6.07156H8.2944L8.3072 6.06836C8.312 6.06836 8.3152 6.06836 8.3184 6.07156C8.3216 6.07156 8.3216 6.07316 8.3232 6.07636C8.3232 6.07956 8.3264 6.08116 8.3248 6.08436C8.3248 6.08756 8.32 6.09076 8.3152 6.09076C8.312 6.09076 8.3088 6.09076 8.3072 6.08596C8.30676 6.08495 8.30653 6.08386 8.30653 6.08276C8.30653 6.08166 8.30676 6.08057 8.3072 6.07956C8.30497 6.08068 8.3025 6.08127 8.3 6.08127C8.2975 6.08127 8.29503 6.08068 8.2928 6.07956C8.29075 6.07894 8.28884 6.07791 8.28719 6.07653C8.28554 6.07516 8.28418 6.07347 8.2832 6.07156Z" fill="#FCD900" stroke="#FEDF00" stroke-width="0.32"/>
<path d="M8.40158 6.22708L8.36958 6.21268C8.37598 6.20948 8.38078 6.20948 8.38558 6.20468C8.39038 6.19828 8.39038 6.19188 8.39358 6.18388C8.39678 6.17588 8.39678 6.16788 8.40478 6.16148C8.40958 6.15828 8.41758 6.15828 8.42238 6.15988C8.42878 6.15988 8.43518 6.16628 8.43678 6.17108C8.43678 6.18068 8.43358 6.18708 8.43198 6.19508C8.43198 6.20468 8.42718 6.20948 8.42878 6.21748C8.42878 6.22388 8.43198 6.22708 8.43518 6.23348L8.40318 6.22708H8.40158ZM8.38558 6.24308C8.38529 6.24122 8.38556 6.23931 8.38636 6.2376C8.38715 6.23588 8.38843 6.23444 8.39004 6.23346C8.39165 6.23247 8.39351 6.23198 8.3954 6.23204C8.39729 6.23211 8.39911 6.23273 8.40065 6.23382C8.40218 6.23492 8.40336 6.23645 8.40403 6.23821C8.40471 6.23997 8.40485 6.24189 8.40443 6.24374C8.40402 6.24558 8.40307 6.24726 8.40171 6.24856C8.40035 6.24987 8.39863 6.25075 8.39678 6.25108C8.39539 6.25132 8.39397 6.25124 8.39261 6.25087C8.39125 6.25049 8.39 6.24982 8.38893 6.24891C8.38786 6.24799 8.38701 6.24685 8.38643 6.24557C8.38585 6.24428 8.38556 6.24289 8.38558 6.24148V6.24308ZM8.35838 5.97748H8.35518C8.34878 5.97108 8.34878 5.96468 8.34558 5.95828C8.34299 5.95217 8.34137 5.94569 8.34078 5.93908V5.90708C8.34078 5.90228 8.34078 5.89748 8.33758 5.89268C8.33758 5.88948 8.33118 5.88788 8.33278 5.88628C8.33278 5.88468 8.33758 5.88628 8.33918 5.88628C8.34558 5.88628 8.34878 5.88788 8.35518 5.89268C8.35998 5.89748 8.36318 5.90228 8.36478 5.90868L8.37118 5.93268L8.37598 5.94548L8.38398 5.95508L8.37278 5.96788L8.35838 5.97748ZM8.41598 6.14708L8.45118 6.16308C8.47527 6.14858 8.4947 6.12748 8.50718 6.10228C8.52158 6.07348 8.52318 6.05908 8.52958 6.03188L8.50078 6.02388H8.49438C8.48638 6.05268 8.48318 6.06708 8.46878 6.09108C8.45598 6.11188 8.44158 6.12788 8.42718 6.13908L8.41598 6.14708ZM8.49598 6.43828L8.50878 6.41748L8.53118 6.39988H8.53758C8.53739 6.41515 8.53468 6.43029 8.52958 6.44468L8.52318 6.46068L8.51518 6.46868C8.50718 6.45588 8.49438 6.44788 8.49438 6.43668L8.49598 6.43828ZM9.02398 6.46708L9.04638 6.47668L9.07038 6.49108V6.49908L9.04638 6.50228C9.03946 6.50282 9.0325 6.50282 9.02558 6.50228H9.00958L8.99998 6.49588C9.00798 6.48468 9.01278 6.47028 9.02238 6.46708H9.02398ZM8.86718 6.43508L8.88958 6.44308L8.91358 6.45908C8.91358 6.46068 8.91518 6.46388 8.91358 6.46548C8.8995 6.46926 8.88494 6.47088 8.87038 6.47028L8.85438 6.46868L8.84318 6.46388C8.85278 6.45268 8.85758 6.43668 8.86718 6.43508ZM8.58878 6.46868L8.61278 6.47668L8.63678 6.49268V6.50068C8.6221 6.50408 8.60699 6.50516 8.59198 6.50388H8.57598L8.56638 6.49748C8.57438 6.48628 8.57918 6.47188 8.58878 6.46868ZM8.44478 5.99188C8.43518 5.98708 8.42878 5.97588 8.43518 5.96628C8.43678 5.96308 8.44158 5.96308 8.44478 5.95988C8.44798 5.95508 8.44638 5.95188 8.44478 5.94708L8.44318 5.93108L8.43998 5.91508C8.43998 5.90548 8.43998 5.89908 8.44638 5.88948C8.44958 5.88468 8.45758 5.87988 8.45918 5.87988C8.46238 5.88148 8.45918 5.88788 8.45918 5.89268C8.45918 5.90068 8.46078 5.90388 8.46398 5.91188L8.47518 5.93268C8.47838 5.94228 8.48158 5.94548 8.48158 5.95508C8.48158 5.96308 8.48158 5.96628 8.47838 5.97428C8.47631 5.97929 8.47301 5.9837 8.46878 5.98708C8.46505 5.99016 8.46067 5.99234 8.45598 5.99348C8.45284 5.99437 8.44952 5.99437 8.44638 5.99348L8.44478 5.99188Z" fill="#0065BD"/>
<path d="M6.60254 4.3877H7.91754V5.7002H6.60254V4.3877ZM8.05754 4.3877H9.37254V5.7002H8.05754V4.3877ZM6.60754 6.8377C6.61004 6.8627 6.62004 6.90269 6.64254 6.94519C6.66754 6.98269 6.65754 6.9802 6.71004 7.0402C6.73922 7.06962 6.773 7.09411 6.81004 7.1127C6.92818 7.16356 7.05667 7.18583 7.18504 7.1777C7.25254 7.1752 7.30504 7.16769 7.35004 7.16019C7.44118 7.14808 7.53312 7.14307 7.62504 7.14519C7.66254 7.14519 7.70004 7.15269 7.74254 7.16019C7.83004 7.17769 7.91754 7.21019 7.91754 7.21019V5.8427H6.60254V6.7752L6.60754 6.8352V6.8377ZM9.36754 6.8377C9.36224 6.8753 9.3504 6.91168 9.33254 6.94519C9.30754 6.98269 9.31754 6.9802 9.26504 7.0402C9.23582 7.06959 9.20206 7.09407 9.16504 7.1127C9.13254 7.1302 9.10754 7.1377 9.05504 7.1527C8.96867 7.17549 8.87915 7.18394 8.79004 7.1777C8.72254 7.1752 8.67004 7.16519 8.62754 7.16019C8.56783 7.15214 8.50775 7.14714 8.44754 7.14519C8.41506 7.14363 8.38252 7.14363 8.35004 7.14519C8.31254 7.14519 8.27504 7.15269 8.23254 7.16019C8.14504 7.17769 8.05754 7.21019 8.05754 7.21019V5.8402H9.37504V6.7777L9.37004 6.8377H9.36754Z" stroke="#703D29" stroke-width="0.5"/>
<path fill-rule="evenodd" clip-rule="evenodd" d="M0 0H80V60H0V0Z" fill="black"/>
</g>
<defs>
<clipPath id="clip0_914_31779">
<rect width="16" height="12" fill="white"/>
</clipPath>
</defs>
</svg>
