<svg width="16" height="12" viewBox="0 0 16 12" fill="none" xmlns="http://www.w3.org/2000/svg">
<path d="M0 0H16V12H0V0Z" fill="#74ACDF"/>
<path d="M0 4H16V8H0V4Z" fill="white"/>
<path d="M7.92322 6.03115L8.60722 7.51915C8.60722 7.51915 8.61922 7.54795 8.63842 7.54075C8.65762 7.53115 8.64562 7.50475 8.64562 7.50475L8.07682 5.96875L7.92322 6.03115ZM8.06002 6.54715C8.05042 6.77275 8.18962 6.89755 8.17282 7.09915C8.15362 7.30315 8.26402 7.41595 8.29282 7.49515C8.31682 7.57435 8.26162 7.61995 8.28562 7.63195C8.30962 7.64395 8.35762 7.58155 8.34322 7.46875C8.32642 7.35835 8.24242 7.32475 8.26162 7.07755C8.28082 6.83035 8.16082 6.77275 8.18962 6.54955" fill="#F6B40E"/>
<path d="M8.06002 6.54715C8.05042 6.77275 8.18962 6.89755 8.17282 7.09915C8.15362 7.30315 8.26402 7.41595 8.29282 7.49515C8.31682 7.57435 8.26162 7.61995 8.28562 7.63195C8.30962 7.64395 8.35762 7.58155 8.34322 7.46875C8.32642 7.35835 8.24242 7.32475 8.26162 7.07755C8.28082 6.83035 8.16082 6.77275 8.18962 6.54955M7.92322 6.03115L8.60722 7.51915C8.60722 7.51915 8.61922 7.54795 8.63842 7.54075C8.65762 7.53115 8.64562 7.50475 8.64562 7.50475L8.07682 5.96875L7.92322 6.03115Z" stroke="#85340A" stroke-width="1.056"/>
<path d="M8.10327 6.58535C8.11527 6.80135 8.23767 6.89735 8.21367 7.09655C8.26647 6.94055 8.13927 6.81815 8.14647 6.58775L8.10327 6.58535ZM7.96167 6.01655L8.42967 7.03895L8.03847 5.98535" fill="#85340A"/>
<path d="M8.00002 6.66752C8.36867 6.66752 8.66752 6.36867 8.66752 6.00002C8.66752 5.63137 8.36867 5.33252 8.00002 5.33252C7.63137 5.33252 7.33252 5.63137 7.33252 6.00002C7.33252 6.36867 7.63137 6.66752 8.00002 6.66752Z" fill="#F6B40E" stroke="#85340A" stroke-width="1.4"/>
<path d="M8.22755 5.85742C8.18255 5.85742 8.13755 5.87742 8.11255 5.91742C8.16255 5.96492 8.27755 5.96742 8.35505 5.91242C8.33867 5.89504 8.31891 5.88119 8.29699 5.87173C8.27506 5.86228 8.25143 5.85741 8.22755 5.85742ZM8.22755 5.86742C8.27005 5.86742 8.31255 5.88742 8.31755 5.90742C8.26755 5.96492 8.18505 5.95742 8.13255 5.91742C8.14261 5.90149 8.15669 5.88849 8.17336 5.87971C8.19003 5.87094 8.20872 5.8667 8.22755 5.86742Z" fill="#843511"/>
<path d="M7.89996 6.09234C7.89193 6.09315 7.88425 6.09599 7.87763 6.10059C7.871 6.10518 7.86566 6.11139 7.8621 6.11862C7.85854 6.12586 7.85688 6.13388 7.85727 6.14193C7.85767 6.14998 7.86011 6.1578 7.86436 6.16465C7.86861 6.1715 7.87454 6.17716 7.88158 6.18109C7.88862 6.18501 7.89654 6.18708 7.9046 6.1871C7.91267 6.18712 7.9206 6.18509 7.92766 6.18119C7.93472 6.1773 7.94067 6.17167 7.94496 6.16484C7.96144 6.17507 7.98056 6.18028 7.99996 6.17984H8.00496C8.02522 6.18095 8.04532 6.1757 8.06246 6.16484C8.06707 6.17118 8.07319 6.17628 8.08026 6.17968C8.08733 6.18309 8.09513 6.18468 8.10297 6.18433C8.1108 6.18399 8.11843 6.1817 8.12517 6.17769C8.13191 6.17367 8.13755 6.16805 8.14158 6.16132C8.14562 6.15459 8.14793 6.14697 8.1483 6.13914C8.14867 6.1313 8.1471 6.12349 8.14372 6.11642C8.14034 6.10934 8.13526 6.1032 8.12893 6.09857C8.1226 6.09393 8.11522 6.09093 8.10746 6.08984C8.11996 6.09734 8.12746 6.10734 8.12746 6.12234C8.12746 6.13734 8.11496 6.15234 8.09746 6.15234C8.0895 6.15234 8.08187 6.14918 8.07624 6.14356C8.07062 6.13793 8.06746 6.1303 8.06746 6.12234C8.06153 6.13468 8.05234 6.14517 8.04089 6.15266C8.02943 6.16015 8.01614 6.16437 8.00246 6.16484C7.98921 6.16393 7.97644 6.15951 7.96546 6.15204C7.95448 6.14457 7.94568 6.13433 7.93996 6.12234C7.93997 6.1265 7.93912 6.13062 7.93746 6.13443C7.9358 6.13824 7.93336 6.14167 7.9303 6.14449C7.92725 6.14731 7.92364 6.14947 7.91971 6.15082C7.91577 6.15217 7.9116 6.15269 7.90746 6.15234C7.89246 6.15234 7.87746 6.13734 7.87746 6.12234C7.87746 6.10734 7.88496 6.09734 7.89746 6.09234H7.89996ZM7.94996 6.22984C7.89746 6.22984 7.87496 6.27484 7.82996 6.30484C7.85496 6.29484 7.87746 6.27484 7.91246 6.25484C7.94746 6.23484 7.97996 6.25984 7.99996 6.25984C8.01996 6.25984 8.04996 6.23484 8.08746 6.25484C8.12246 6.27484 8.14496 6.29484 8.16996 6.30484C8.12246 6.27484 8.10246 6.22984 8.04996 6.22984C8.03248 6.2316 8.01551 6.2367 7.99996 6.24484C7.98458 6.23582 7.9676 6.22988 7.94996 6.22734V6.22984Z" fill="#85340A"/>
<path d="M7.92997 6.2901C7.90997 6.2901 7.88497 6.2951 7.84497 6.3051C7.93747 6.28511 7.95747 6.3176 7.99997 6.3176C8.03997 6.3176 8.05997 6.28511 8.15247 6.3051C8.05247 6.27511 8.02997 6.2951 7.99997 6.2951C7.97997 6.2951 7.96497 6.28761 7.92997 6.2901Z" fill="#85340A"/>
<path d="M7.84996 6.30521H7.82996C7.93746 6.31771 7.88746 6.38021 7.99996 6.38021C8.11246 6.38021 8.06246 6.31771 8.16996 6.30521C8.05746 6.29521 8.09246 6.36271 7.99996 6.36271C7.91246 6.36271 7.93996 6.30521 7.84996 6.30521ZM8.09246 6.47271C8.09246 6.44818 8.08271 6.42465 8.06536 6.4073C8.04802 6.38996 8.02449 6.38021 7.99996 6.38021C7.97542 6.38021 7.9519 6.38996 7.93455 6.4073C7.9172 6.42465 7.90746 6.44818 7.90746 6.47271C7.91234 6.45184 7.92414 6.43324 7.94093 6.41992C7.95772 6.40661 7.97852 6.39936 7.99996 6.39936C8.02139 6.39936 8.04219 6.40661 8.05898 6.41992C8.07577 6.43324 8.08757 6.45184 8.09246 6.47271Z" fill="#85340A"/>
<path d="M7.58496 5.85742C7.70246 5.75492 7.85246 5.73742 7.93496 5.81492C7.95432 5.84065 7.96719 5.87066 7.97246 5.90242C7.98246 5.95992 7.96496 6.02242 7.91996 6.08742L7.93996 6.09742C7.97922 6.02577 7.9933 5.94303 7.97996 5.86242C7.97669 5.84285 7.97167 5.8236 7.96496 5.80492C7.85246 5.71242 7.69746 5.70492 7.58496 5.85492V5.85742Z" fill="#85340A"/>
<path d="M7.77001 5.8252C7.83751 5.8252 7.85251 5.84269 7.88251 5.86769C7.91251 5.89269 7.93001 5.88769 7.93251 5.89269C7.94001 5.89769 7.93251 5.91269 7.92501 5.90769C7.91251 5.90269 7.89251 5.89269 7.86251 5.86769C7.83251 5.84269 7.80001 5.84269 7.77001 5.84269C7.67751 5.84269 7.62751 5.91769 7.61501 5.91269C7.60751 5.90769 7.66751 5.8252 7.77001 5.8252Z" fill="#85340A"/>
<path d="M7.77248 5.95486C7.79871 5.95486 7.81997 5.9336 7.81997 5.90736C7.81997 5.88113 7.79871 5.85986 7.77248 5.85986C7.74624 5.85986 7.72498 5.88113 7.72498 5.90736C7.72498 5.9336 7.74624 5.95486 7.77248 5.95486Z" fill="#85340A"/>
<path d="M7.64746 5.93773C7.73496 6.00523 7.82246 6.00023 7.87246 5.97023C7.92246 5.93773 7.92246 5.92773 7.91246 5.92773C7.90246 5.92773 7.89246 5.93773 7.85246 5.96023C7.80996 5.98023 7.74996 5.98023 7.64746 5.93773Z" fill="#85340A"/>
</svg>
