<svg width="16" height="12" viewBox="0 0 16 12" fill="none" xmlns="http://www.w3.org/2000/svg">
<g clip-path="url(#clip0_914_31989)">
<path fill-rule="evenodd" clip-rule="evenodd" d="M0 0H16V12H0V0Z" fill="black"/>
<path fill-rule="evenodd" clip-rule="evenodd" d="M10.6675 0H16V12H10.6675V0Z" fill="#009900"/>
<path fill-rule="evenodd" clip-rule="evenodd" d="M5.33252 0H10.6675V12H5.33252V0Z" fill="#BF0000"/>
<path fill-rule="evenodd" clip-rule="evenodd" d="M8.5194 6.68555H8.74007C8.74007 6.77062 8.79324 6.86102 8.85971 6.91153H8.43433C8.50079 6.85304 8.5194 6.7786 8.5194 6.68555Z" fill="white" stroke="#BD6B00" stroke-width="0.53173"/>
<path fill-rule="evenodd" clip-rule="evenodd" d="M7.1156 5.42807L7.2379 5.561L8.75333 5.56632L8.87563 5.43339L8.48746 5.42541L8.30136 5.29248H7.68987L7.5144 5.42807H7.1156Z" fill="white"/>
<path fill-rule="evenodd" clip-rule="evenodd" d="M7.73509 5.27388H8.25885C8.32798 5.23665 8.3519 5.11702 8.3519 5.05055C8.3519 4.85381 8.21099 4.7581 8.07274 4.75278C8.05147 4.75278 8.02755 4.73683 8.02223 4.71822C8.00894 4.67568 8.01159 4.64643 7.99564 4.64909C7.98501 4.64909 7.98767 4.67568 7.97703 4.7129C7.96906 4.73417 7.94779 4.75278 7.92386 4.75544C7.7537 4.76342 7.64204 4.88837 7.6447 5.05055C7.64736 5.1569 7.66065 5.2207 7.73509 5.27388Z" fill="white" stroke="#BD6B00" stroke-width="0.53173"/>
<path fill-rule="evenodd" clip-rule="evenodd" d="M6.87632 7.13776H9.11756L8.91816 6.97559H7.07306L6.87366 7.13776H6.87632Z" fill="white"/>
<path fill-rule="evenodd" clip-rule="evenodd" d="M7.90527 6.52341L7.94515 6.6457H8.03821L7.96376 6.52341H7.90527ZM7.8521 6.6457L7.87869 6.768H7.98503L7.94515 6.6457H7.8521ZM8.03821 6.6457L8.11265 6.768H8.26951L8.14721 6.6457H8.03821ZM7.12097 6.9222C7.20339 6.8451 7.25656 6.78129 7.25656 6.68824H7.45862C7.45862 6.74142 7.47723 6.77066 7.50648 6.768H7.71119V6.64836H7.56231V5.99168C7.55699 5.75772 7.84412 5.62478 7.96111 5.62478H7.26188V5.60352H8.73211V5.62478H8.02757C8.2376 5.62478 8.43966 5.82418 8.44232 5.99168V6.17778H8.41573L8.41308 5.99434C8.41308 5.81089 8.18177 5.64074 7.99567 5.64605C7.83615 5.64871 7.58624 5.80291 7.58889 5.99168V6.05017L7.96908 6.05283L7.96642 6.11929L8.02491 6.15651L8.14455 6.19373V6.29476L8.22963 6.31869V6.41706L8.33066 6.46226V6.56329L8.39712 6.60317L8.39446 6.70685L8.4822 6.768H8.27483L8.4051 6.91423H8.21102L8.11531 6.768H7.99035L8.04618 6.91157H7.91325L7.87869 6.768H7.71385V6.9222H7.12363H7.12097ZM7.71119 6.52341V6.6457H7.8521L7.82551 6.52341H7.70853H7.71119Z" fill="white" stroke="#BD6B00" stroke-width="0.53173"/>
<path fill-rule="evenodd" clip-rule="evenodd" d="M7.71912 6.31104H7.80685V6.5131H7.71912V6.31104Z" stroke="#BD6B00" stroke-width="0.53173"/>
<path fill-rule="evenodd" clip-rule="evenodd" d="M7.59424 6.5264H7.67931V6.37752C7.67931 6.31371 7.73781 6.24724 7.76439 6.24458C7.7963 6.24458 7.84149 6.30573 7.84415 6.3722V6.5264H7.93455V6.14355H7.59424V6.5264V6.5264ZM8.27485 6.61414H8.3812V6.69922H8.27485V6.61414ZM8.21105 6.47323H8.31739V6.55565H8.21105V6.47323ZM8.10736 6.32966H8.21371V6.41208H8.10736V6.32966ZM8.01962 6.21002H8.12597V6.29244H8.01962V6.21002Z" stroke="#BD6B00" stroke-width="0.53173"/>
<path fill-rule="evenodd" clip-rule="evenodd" d="M7.94775 6.52618L8.05942 6.5315L8.2535 6.70165V6.60062L8.18703 6.55277V6.47301L8.09132 6.41984V6.3321L7.99827 6.3002V6.18588L7.95307 6.146L7.95041 6.52884L7.94775 6.52618Z" stroke="#BD6B00" stroke-width="0.53173"/>
<path fill-rule="evenodd" clip-rule="evenodd" d="M8.4104 6.27344H8.43698V6.4622H8.4104V6.27344Z" fill="white" stroke="#BD6B00" stroke-width="0.53173"/>
<path fill-rule="evenodd" clip-rule="evenodd" d="M6.86568 5.64094C6.83378 5.58777 6.7939 5.71538 6.65831 5.80844C6.59716 5.85098 6.55196 5.9653 6.55196 6.03974C6.55196 6.09291 6.55728 6.14343 6.55196 6.19394C6.5493 6.22319 6.51474 6.29497 6.53867 6.31358C6.59716 6.35612 6.67426 6.45715 6.70882 6.49171C6.74072 6.5183 6.76731 6.3508 6.78858 6.27902C6.81517 6.19926 6.80453 6.10089 6.87366 6.02911C6.92151 5.97593 7.04381 5.92808 7.03318 5.90681L6.86568 5.64094Z" fill="white" stroke="#BD6B00" stroke-width="0.53173"/>
<path fill-rule="evenodd" clip-rule="evenodd" d="M6.85776 6.05069C6.8472 6.02561 6.83285 6.0023 6.81522 5.98157C6.79826 5.96056 6.77633 5.94411 6.75141 5.93371C6.72692 5.92645 6.70486 5.91267 6.6876 5.89383C6.67743 5.88243 6.67014 5.86876 6.66633 5.85395C6.66331 5.83636 6.66331 5.81838 6.66633 5.80078L6.65836 5.80876C6.59721 5.8513 6.55201 5.96562 6.55201 6.04006C6.55119 6.06044 6.55119 6.08083 6.55201 6.10121C6.55733 6.1145 6.55998 6.1278 6.56796 6.13577L6.59721 6.15704L6.66899 6.17565C6.69587 6.18774 6.71954 6.20595 6.73812 6.22883C6.75747 6.24932 6.7736 6.27262 6.78597 6.29795L6.79129 6.27668C6.81256 6.2049 6.8099 6.11982 6.86042 6.05069H6.85776Z" fill="#BF0000" stroke="#BD6B00" stroke-width="0.53173"/>
<path d="M6.54675 6.0903C6.56802 6.17006 6.6212 6.15943 6.66905 6.17538C6.71691 6.19399 6.76742 6.25514 6.78869 6.30299M6.66639 5.79785C6.6531 5.88559 6.70361 5.91749 6.75147 5.93344C6.79933 5.95205 6.83921 6.00257 6.85782 6.05042L6.66639 5.79785Z" stroke="#BD6B00" stroke-width="0.53173"/>
<path fill-rule="evenodd" clip-rule="evenodd" d="M6.82056 5.58773L6.84714 5.57178L7.31772 6.36671L7.29114 6.38267L6.82056 5.58507V5.58773Z" fill="white" stroke="#BD6B00" stroke-width="0.53173"/>
<path fill-rule="evenodd" clip-rule="evenodd" d="M6.87099 5.55622C6.87099 5.57033 6.86539 5.58385 6.85542 5.59382C6.84545 5.60379 6.83192 5.6094 6.81782 5.6094C6.80372 5.6094 6.79019 5.60379 6.78022 5.59382C6.77025 5.58385 6.76465 5.57033 6.76465 5.55622C6.76465 5.54212 6.77025 5.5286 6.78022 5.51862C6.79019 5.50865 6.80372 5.50305 6.81782 5.50305C6.83192 5.50305 6.84545 5.50865 6.85542 5.51862C6.86539 5.5286 6.87099 5.54212 6.87099 5.55622ZM7.27511 4.91815H7.46653V4.96069H7.27511V4.91815ZM7.27511 5.00057H7.46653V5.36746H7.27511V5.00057ZM7.26447 4.86763H7.47717C7.48248 4.79585 7.4107 4.71875 7.37082 4.71875C7.32828 4.72141 7.26182 4.79851 7.26447 4.86763Z" fill="white" stroke="#BD6B00" stroke-width="0.53173"/>
<path fill-rule="evenodd" clip-rule="evenodd" d="M7.80422 4.82464C7.76434 4.84059 7.73244 4.88579 7.71383 4.93896C7.69522 4.99214 7.68724 5.05328 7.69788 5.10114C7.69788 5.11975 7.70585 5.13039 7.71117 5.14102C7.71649 5.149 7.72181 5.15431 7.72712 5.15431C7.7351 5.15431 7.74308 5.15431 7.74573 5.14634L7.75105 5.12507C7.74839 5.0719 7.74839 5.02404 7.75903 4.9815C7.77085 4.93426 7.79913 4.89279 7.83879 4.86452C7.84676 4.8592 7.84942 4.85123 7.85208 4.84591C7.85198 4.8389 7.84911 4.83221 7.8441 4.8273C7.83347 4.81932 7.81752 4.81666 7.80422 4.82464ZM7.80954 4.83527C7.82018 4.82996 7.83081 4.83527 7.83613 4.83793L7.83879 4.84325C7.83879 4.84591 7.83879 4.84857 7.83081 4.85389C7.78997 4.88384 7.76082 4.92708 7.74839 4.97618C7.73736 5.02501 7.73466 5.07535 7.74042 5.12507C7.74042 5.13082 7.73855 5.13642 7.7351 5.14102C7.7351 5.14102 7.7351 5.14368 7.72978 5.14102C7.72978 5.14102 7.72446 5.14102 7.71915 5.13304C7.71389 5.12306 7.7103 5.11228 7.70851 5.10114C7.70054 5.05328 7.70851 4.99479 7.72712 4.94162C7.74573 4.89377 7.77498 4.85123 7.80688 4.83527H7.80954Z" fill="#BD6B00"/>
<path fill-rule="evenodd" clip-rule="evenodd" d="M7.87335 4.87532C7.83347 4.89394 7.80689 4.93647 7.79359 4.98699C7.77947 5.03806 7.77675 5.09161 7.78562 5.14385C7.79093 5.17841 7.8122 5.19702 7.82815 5.19702C7.83613 5.19968 7.84411 5.19702 7.84942 5.18904C7.85474 5.18107 7.8574 5.17309 7.85474 5.16246C7.84411 5.11992 7.84145 5.07206 7.84676 5.02687C7.85474 4.98167 7.87335 4.94179 7.90525 4.91786C7.91323 4.90989 7.91855 4.90457 7.91855 4.89659C7.91879 4.89371 7.91845 4.89081 7.91753 4.88807C7.91662 4.88533 7.91515 4.8828 7.91323 4.88064C7.9026 4.87267 7.88664 4.87001 7.87335 4.87532ZM7.87867 4.88862C7.8893 4.8833 7.89994 4.88596 7.90525 4.88862L7.90791 4.89659L7.89994 4.90723C7.88209 4.92153 7.86726 4.93924 7.85631 4.95932C7.84535 4.9794 7.83849 5.00146 7.83613 5.02421C7.82815 5.07206 7.83347 5.12258 7.84145 5.16246C7.84411 5.17309 7.84145 5.17841 7.84145 5.18373L7.82815 5.18639C7.82018 5.18639 7.80157 5.17309 7.79625 5.14119C7.78827 5.09599 7.79093 5.0375 7.80423 4.98965C7.81752 4.94179 7.84411 4.90191 7.87867 4.88862Z" fill="#BD6B00"/>
<path fill-rule="evenodd" clip-rule="evenodd" d="M7.26454 5.66504H7.47723V5.95749H7.26454V5.66504ZM7.27783 6.12764H7.48255V6.19145H7.27783V6.12764ZM7.27252 6.23665H7.48521V6.46795H7.27252V6.23665ZM7.25657 6.5158H7.48787V6.64608H7.25657V6.5158ZM7.28581 6.07447H7.47192L7.50914 6.01066H7.25391L7.28581 6.07447ZM7.53572 5.84583L7.53838 5.68631H7.666C7.61114 5.72902 7.56661 5.78354 7.53572 5.84583Z" fill="white" stroke="#BD6B00" stroke-width="0.53173"/>
<path fill-rule="evenodd" clip-rule="evenodd" d="M7.29907 5.91203C7.29907 5.9466 7.33895 5.9333 7.33895 5.91469V5.76581C7.33895 5.73922 7.40276 5.74454 7.40276 5.76315V5.92267C7.40276 5.94925 7.44796 5.9466 7.4453 5.92267V5.73656C7.4453 5.67807 7.29907 5.68073 7.29907 5.7339V5.91203ZM7.29907 6.26563H7.45061V6.45174H7.29907V6.26563Z" stroke="#BD6B00" stroke-width="0.53173"/>
<path fill-rule="evenodd" clip-rule="evenodd" d="M7.3948 6.34561H7.44797V6.3722H7.3948V6.34561ZM7.30174 6.34561H7.35492V6.3722H7.30174V6.34561ZM7.35492 6.26585H7.3948V6.34561H7.35492V6.26585ZM7.35492 6.3722H7.3948V6.45462H7.35492V6.3722ZM6.51212 4.37821C6.52276 4.52444 6.4749 4.60685 6.3978 4.59356C6.37653 4.5138 6.42439 4.45797 6.51212 4.37821ZM6.33931 4.70522C6.27018 4.67066 6.3207 4.39948 6.34729 4.28516C6.3659 4.43138 6.40046 4.63876 6.33931 4.70522Z" fill="white" stroke="#BD6B00" stroke-width="0.53173"/>
<path fill-rule="evenodd" clip-rule="evenodd" d="M6.36324 4.7185C6.48022 4.75838 6.57593 4.63343 6.60518 4.4872C6.50947 4.62013 6.35261 4.62013 6.3659 4.7185H6.36324ZM6.27551 4.85409C6.18511 4.83017 6.23829 4.54303 6.2569 4.42871C6.27551 4.54835 6.33931 4.81421 6.27551 4.85409ZM6.30741 4.84612C6.31273 4.74775 6.4111 4.77433 6.48022 4.72116C6.46693 4.77433 6.42705 4.85941 6.30741 4.84612ZM6.19575 4.97905C6.10535 4.95246 6.15853 4.64406 6.15321 4.51645C6.1798 4.62811 6.26487 4.94981 6.19575 4.97905ZM6.23829 4.96576C6.31273 4.98969 6.4111 4.93917 6.41907 4.85144C6.35261 4.89663 6.25158 4.86207 6.23829 4.96576Z" fill="white" stroke="#BD6B00" stroke-width="0.53173"/>
<path fill-rule="evenodd" clip-rule="evenodd" d="M6.12664 5.11457C6.04156 5.12255 6.07878 4.85934 6.07878 4.61475C6.11069 4.84339 6.19842 5.05342 6.12664 5.11457Z" fill="white" stroke="#BD6B00" stroke-width="0.53173"/>
<path fill-rule="evenodd" clip-rule="evenodd" d="M6.15857 5.10389C6.21706 5.13048 6.32075 5.08528 6.34999 4.98691C6.24365 5.03211 6.17452 4.98691 6.15857 5.10389ZM6.83918 4.51367C6.82323 4.64395 6.77006 4.71839 6.69296 4.70509C6.67169 4.62534 6.73549 4.57216 6.83918 4.51367ZM6.63181 4.84334C6.76208 4.86196 6.80728 4.76359 6.89767 4.63331C6.77272 4.72371 6.62649 4.73966 6.63181 4.846V4.84334Z" fill="white" stroke="#BD6B00" stroke-width="0.53173"/>
<path fill-rule="evenodd" clip-rule="evenodd" d="M6.59187 4.83037C6.52274 4.7453 6.59187 4.63629 6.64504 4.5459C6.63441 4.68149 6.6796 4.75859 6.59187 4.83037ZM6.56528 4.97128C6.55465 4.88621 6.69821 4.86759 6.76202 4.8224C6.73809 4.87025 6.70885 5.00053 6.56262 4.97128H6.56528Z" fill="white" stroke="#BD6B00" stroke-width="0.53173"/>
<path fill-rule="evenodd" clip-rule="evenodd" d="M6.5334 4.97116C6.43503 4.96053 6.47491 4.79303 6.5467 4.70264C6.51745 4.83025 6.59987 4.91799 6.5334 4.97116Z" fill="white" stroke="#BD6B00" stroke-width="0.53173"/>
<path fill-rule="evenodd" clip-rule="evenodd" d="M6.45902 5.11222C6.34736 5.05905 6.41914 4.9208 6.45902 4.83838C6.44307 4.94738 6.53346 5.0298 6.45902 5.10956V5.11222Z" fill="white" stroke="#BD6B00" stroke-width="0.53173"/>
<path fill-rule="evenodd" clip-rule="evenodd" d="M6.48023 5.09626C6.53872 5.17602 6.65305 5.07499 6.67697 4.95801C6.5786 5.04043 6.50416 5.02713 6.48023 5.09892V5.09626ZM6.225 5.63596C6.21437 5.52164 6.29945 5.31693 6.2383 5.20526C6.23032 5.18931 6.25691 5.14943 6.27552 5.17336C6.3021 5.21324 6.32869 5.3249 6.34198 5.28236C6.35262 5.23717 6.35528 5.16006 6.39516 5.14411C6.42174 5.13614 6.45631 5.12816 6.44567 5.1707C6.43504 5.20792 6.41377 5.26109 6.4377 5.26375C6.45099 5.26375 6.49087 5.21058 6.52543 5.18399C6.55202 5.16272 6.59456 5.19994 6.55202 5.23185C6.4244 5.33819 6.29945 5.38871 6.225 5.63596ZM5.9937 7.35079C5.97775 7.35079 5.95914 7.34281 5.97775 7.36674C6.12929 7.55285 6.17183 7.60602 6.3925 7.57943C6.61317 7.55019 6.66634 7.48904 6.8232 7.4013C6.86861 7.37741 6.91831 7.36276 6.96942 7.35819C7.02053 7.35363 7.07204 7.35925 7.12097 7.37472C7.16351 7.38801 7.19009 7.38801 7.15819 7.35611C7.12629 7.32686 7.09172 7.28432 7.05184 7.25508C6.95266 7.18874 6.83179 7.16304 6.7142 7.18329C6.55468 7.20988 6.41908 7.31357 6.25691 7.35345C6.17005 7.37099 6.08056 7.37099 5.9937 7.35345V7.35079ZM7.26454 7.68312C7.29112 7.68844 7.30973 7.74161 7.32569 7.70705C7.34696 7.6459 7.331 7.6007 7.30442 7.60336C7.27251 7.61134 7.222 7.68312 7.26454 7.68312Z" fill="white" stroke="#BD6B00" stroke-width="0.53173"/>
<path fill-rule="evenodd" clip-rule="evenodd" d="M5.89007 5.54823C5.85817 5.51101 5.86614 5.50038 5.91666 5.49772C5.95388 5.49772 6.02832 5.5243 6.05756 5.50038C6.08415 5.48177 6.07086 5.40201 6.08415 5.36744C6.08947 5.34352 6.10276 5.31427 6.13732 5.36213C6.23304 5.51633 6.35002 5.70243 6.40319 5.88322C6.42978 5.98425 6.40319 6.14377 6.3128 6.25011C6.3128 6.15972 6.28089 6.09857 6.24101 6.02147C6.18784 5.9231 5.99907 5.64926 5.89007 5.54557V5.54823Z" fill="white"/>
<path fill-rule="evenodd" clip-rule="evenodd" d="M6.28613 6.35608C6.39248 6.35608 6.41109 6.21517 6.41109 6.17529C6.35791 6.18593 6.26752 6.27366 6.28613 6.35608ZM7.20336 7.73592C7.27781 7.75187 7.27515 7.57108 7.19805 7.49398C7.23261 7.61096 7.14487 7.71731 7.20071 7.73326L7.20336 7.73592ZM7.17146 7.73326C7.17678 7.81834 6.95877 7.72263 6.90559 7.6535C7.03321 7.70933 7.16614 7.66414 7.17146 7.73326ZM7.07841 7.61096C7.08638 7.69338 6.8923 7.61894 6.83115 7.55513C6.96143 7.59767 7.07043 7.54184 7.07841 7.60831V7.61096ZM7.11297 7.6216C7.19007 7.64021 7.17678 7.45144 7.10234 7.38764C7.13956 7.51259 7.05448 7.60299 7.11297 7.6216ZM7.03321 7.50728C7.11031 7.52589 7.06511 7.36371 7.00928 7.2999C7.01992 7.41688 6.9827 7.4993 7.03587 7.50728H7.03321ZM6.99333 7.50728C7.00131 7.59235 6.84976 7.52855 6.79127 7.44613C6.91889 7.48601 6.98535 7.43815 6.99333 7.50728ZM6.95345 7.44081C7.00131 7.40625 6.95079 7.3132 6.85508 7.31851C6.86572 7.37434 6.89762 7.47537 6.95345 7.44081ZM7.32566 7.83163C7.32832 7.91671 7.11297 7.87417 7.04385 7.78378C7.1821 7.81036 7.31769 7.76251 7.323 7.83163H7.32566ZM6.46426 7.67743C6.47223 7.76251 6.23561 7.6668 6.17712 7.58704C6.30208 7.62957 6.45628 7.60831 6.46426 7.67743ZM6.60783 7.71199C6.65834 7.67743 6.55731 7.58704 6.47489 7.56577C6.48553 7.6216 6.55465 7.74655 6.60783 7.71465V7.71199ZM6.62378 7.77314C6.6291 7.85024 6.37121 7.8077 6.30474 7.73592C6.52541 7.7758 6.6158 7.70668 6.62378 7.77314Z" fill="white" stroke="#BD6B00" stroke-width="0.53173"/>
<path fill-rule="evenodd" clip-rule="evenodd" d="M6.74615 7.82366C6.77274 7.89544 6.52548 7.87683 6.43774 7.83695C6.57865 7.83695 6.72488 7.77314 6.74615 7.82366Z" fill="white" stroke="#BD6B00" stroke-width="0.53173"/>
<path fill-rule="evenodd" clip-rule="evenodd" d="M6.86047 7.8772C6.88706 7.941 6.65842 7.941 6.54675 7.90378C6.69564 7.90378 6.83389 7.81339 6.86047 7.8772ZM7.02797 7.91176C7.07051 7.98886 6.82591 7.99418 6.74881 7.95696C6.88706 7.93835 6.99341 7.85061 7.02797 7.91176ZM6.74349 7.78148C6.66639 7.82934 6.67171 7.68577 6.61056 7.5874C6.70627 7.67514 6.79667 7.73629 6.74349 7.78148Z" fill="white" stroke="#BD6B00" stroke-width="0.53173"/>
<path fill-rule="evenodd" clip-rule="evenodd" d="M6.88171 7.83447C6.8179 7.89031 6.76473 7.69357 6.70624 7.5819C6.80195 7.68825 6.9402 7.78662 6.88171 7.83182V7.83447ZM7.06249 7.88765C7.00932 7.95145 6.8498 7.70154 6.79131 7.56861C6.87905 7.6723 7.10503 7.83447 7.06249 7.88765ZM6.90829 8.07907C6.88171 8.17478 6.47759 7.98868 6.42974 7.89031C6.6637 8.0126 6.91361 7.98602 6.90829 8.07641V8.07907ZM5.61353 6.11698C5.6029 6.10369 5.57631 6.11698 5.58163 6.14623C5.5896 6.18611 5.64809 6.39082 5.74912 6.45995C5.82091 6.51312 6.20109 6.59554 6.37125 6.63276C6.46696 6.65137 6.54406 6.69923 6.60787 6.77367C6.58602 6.68544 6.55939 6.59846 6.52811 6.51312C6.4962 6.43336 6.41113 6.34828 6.32073 6.34563C6.15855 6.33765 5.94586 6.32436 5.789 6.25789C5.71795 6.22793 5.65638 6.17923 5.61087 6.11698H5.61353Z" fill="white" stroke="#BD6B00" stroke-width="0.53173"/>
<path fill-rule="evenodd" clip-rule="evenodd" d="M6.55203 6.92787C6.6052 6.96509 6.66104 6.82949 6.59723 6.69922C6.59457 6.82418 6.4962 6.86672 6.55203 6.92787Z" fill="white" stroke="#BD6B00" stroke-width="0.53173"/>
<path fill-rule="evenodd" clip-rule="evenodd" d="M6.60251 7.05259C6.67429 7.07386 6.69556 6.94624 6.65036 6.84521C6.65834 6.95422 6.53604 7.02069 6.60251 7.05259Z" fill="white" stroke="#BD6B00" stroke-width="0.53173"/>
<path fill-rule="evenodd" clip-rule="evenodd" d="M6.6584 7.15361C6.72753 7.18817 6.75146 7.0579 6.7036 6.96484C6.70892 7.08448 6.60523 7.1217 6.6584 7.15095V7.15361Z" fill="white" stroke="#BD6B00" stroke-width="0.53173"/>
<path fill-rule="evenodd" clip-rule="evenodd" d="M6.62907 7.16202C6.60248 7.24178 6.44297 7.09023 6.41638 7.00781C6.51475 7.10618 6.64768 7.09289 6.62907 7.15936V7.16202Z" fill="white" stroke="#BD6B00" stroke-width="0.53173"/>
<path fill-rule="evenodd" clip-rule="evenodd" d="M6.55738 7.03697C6.52548 7.11673 6.32608 6.90403 6.28088 6.80566C6.37925 6.90403 6.57865 6.97848 6.55738 7.03431V7.03697Z" fill="white" stroke="#BD6B00" stroke-width="0.53173"/>
<path fill-rule="evenodd" clip-rule="evenodd" d="M6.51748 6.91202C6.48558 7.00508 6.27023 6.75782 6.20642 6.67009C6.31277 6.7658 6.54141 6.84556 6.51748 6.91202ZM6.50951 6.82163C6.58927 6.80568 6.50685 6.74187 6.41114 6.63818C6.40848 6.74719 6.42443 6.82429 6.50951 6.82163Z" fill="white" stroke="#BD6B00" stroke-width="0.53173"/>
<path fill-rule="evenodd" clip-rule="evenodd" d="M6.3792 6.75785C6.41377 6.72328 6.34996 6.70733 6.2702 6.61694C6.25691 6.67809 6.34464 6.78975 6.38186 6.75785H6.3792ZM6.75141 7.16196C6.79395 7.18855 6.82054 7.10081 6.77002 7.02371C6.75673 7.10879 6.71419 7.13006 6.75141 7.16196ZM5.84216 6.62225C5.75442 6.67543 5.61351 6.46274 5.57629 6.375C5.65339 6.47603 5.85811 6.56642 5.84216 6.62225Z" fill="white" stroke="#BD6B00" stroke-width="0.53173"/>
<path fill-rule="evenodd" clip-rule="evenodd" d="M5.91927 6.74465C5.86875 6.79782 5.71455 6.65159 5.66138 6.57715C5.74114 6.64893 5.94053 6.65691 5.91927 6.74465Z" fill="white" stroke="#BD6B00" stroke-width="0.53173"/>
<path fill-rule="evenodd" clip-rule="evenodd" d="M6.00168 6.85592C5.98573 6.93036 5.7624 6.76286 5.70923 6.68311C5.80494 6.77616 6.01763 6.76818 6.00168 6.85592Z" fill="white" stroke="#BD6B00" stroke-width="0.53173"/>
<path fill-rule="evenodd" clip-rule="evenodd" d="M5.96706 6.93842C5.9325 7.00488 5.74905 6.83739 5.70386 6.75231C5.81818 6.84802 5.99631 6.87195 5.96972 6.93842H5.96706ZM5.87401 6.6114C5.92984 6.55025 5.90592 6.52101 5.86338 6.42529C5.84211 6.52366 5.80754 6.56354 5.87401 6.6114ZM5.95111 6.72572C6.05746 6.73104 5.95111 6.60342 5.92453 6.49442C5.93516 6.61672 5.89794 6.71509 5.95111 6.72572Z" fill="white" stroke="#BD6B00" stroke-width="0.53173"/>
<path fill-rule="evenodd" clip-rule="evenodd" d="M6.01767 6.82663C6.08946 6.81068 6.07085 6.70699 6.01236 6.58203C6.02565 6.71762 5.95121 6.79473 6.01767 6.82663ZM5.99109 7.03135C5.9645 7.11111 5.75712 6.925 5.72522 6.85056C5.83157 6.94095 6.0097 6.9702 5.99109 7.03135Z" fill="white" stroke="#BD6B00" stroke-width="0.53173"/>
<path fill-rule="evenodd" clip-rule="evenodd" d="M6.11597 7.15936C6.08672 7.23912 5.86871 7.07428 5.80225 6.98389C5.93252 7.09023 6.13192 7.0796 6.11597 7.15936Z" fill="white" stroke="#BD6B00" stroke-width="0.53173"/>
<path fill-rule="evenodd" clip-rule="evenodd" d="M6.24361 7.28949C6.20905 7.40381 5.98041 7.22037 5.91394 7.12997C6.05751 7.24163 6.25957 7.20973 6.24361 7.28949ZM6.03092 6.99704C6.09207 7.02628 6.116 6.85347 6.08144 6.72852C6.08144 6.86145 5.95648 6.96248 6.02826 6.99438L6.03092 6.99704Z" fill="white" stroke="#BD6B00" stroke-width="0.53173"/>
<path fill-rule="evenodd" clip-rule="evenodd" d="M6.13458 7.13506C6.20902 7.15633 6.18775 6.96756 6.12128 6.84261C6.11331 6.96756 6.06014 7.08188 6.13458 7.13506ZM6.26751 7.26533C6.34727 7.26799 6.2941 7.10315 6.22497 7.0101C6.23561 7.12974 6.19839 7.24938 6.26751 7.26533ZM6.12128 7.33446C6.0947 7.377 6.03621 7.29989 5.93518 7.2414C6.02557 7.26799 6.13192 7.29458 6.12128 7.33446ZM6.07343 5.93335C6.15319 5.87486 6.09204 5.76851 6.07343 5.66748C6.04684 5.76319 5.98304 5.89081 6.07343 5.93335ZM6.07343 6.07425C5.95379 6.06096 5.9724 5.91208 5.96708 5.81637C6.0043 5.94664 6.10002 5.96791 6.07343 6.07691V6.07425ZM6.08938 6.05564C6.18775 6.05033 6.18243 5.93866 6.18775 5.827C6.13724 5.93069 6.08141 5.94664 6.08938 6.05564Z" fill="white" stroke="#BD6B00" stroke-width="0.53173"/>
<path fill-rule="evenodd" clip-rule="evenodd" d="M6.08679 6.19408C6.00703 6.20206 5.96981 6.12496 5.95386 6.00798C6.02564 6.11698 6.08945 6.08242 6.08679 6.19408ZM6.11338 6.18611C6.21175 6.1994 6.19314 6.08508 6.19314 6C6.16123 6.07976 6.08147 6.10635 6.11338 6.18611Z" fill="white" stroke="#BD6B00" stroke-width="0.53173"/>
<path fill-rule="evenodd" clip-rule="evenodd" d="M5.95911 6.13818C5.96708 6.21262 6.01494 6.34024 6.09204 6.31099C6.12128 6.2206 6.02291 6.20199 5.95911 6.13818Z" fill="white" stroke="#BD6B00" stroke-width="0.53173"/>
<path fill-rule="evenodd" clip-rule="evenodd" d="M6.11336 6.31899C6.08146 6.25518 6.19312 6.22062 6.21439 6.13554C6.22768 6.25784 6.21705 6.3376 6.11336 6.32165V6.31899ZM5.79698 5.54267C5.85813 5.47886 5.80496 5.37251 5.78635 5.27148C5.75976 5.3672 5.71988 5.49481 5.79698 5.54267ZM5.79698 5.66496C5.69064 5.67826 5.66405 5.46025 5.65076 5.36454C5.68798 5.49481 5.81028 5.55064 5.79698 5.66762V5.66496ZM5.81825 5.66496C5.89269 5.62508 5.87674 5.54001 5.89801 5.47886C5.85016 5.55596 5.8023 5.56659 5.81825 5.66496Z" fill="white" stroke="#BD6B00" stroke-width="0.53173"/>
<path fill-rule="evenodd" clip-rule="evenodd" d="M5.79431 5.80868C5.68531 5.81665 5.61884 5.57472 5.61353 5.479C5.64809 5.60928 5.81027 5.6784 5.79697 5.80868H5.79431ZM5.81824 5.80336C5.92459 5.77943 5.9113 5.71031 5.89534 5.6013C5.86078 5.71297 5.80229 5.68904 5.81824 5.80336Z" fill="white" stroke="#BD6B00" stroke-width="0.53173"/>
<path fill-rule="evenodd" clip-rule="evenodd" d="M5.79436 5.94675C5.67206 5.96802 5.68003 5.77128 5.58167 5.63037C5.66674 5.73672 5.82094 5.86965 5.79436 5.94675ZM5.82094 5.93877C5.91665 5.94409 5.92729 5.80318 5.92197 5.74469C5.89804 5.80318 5.78904 5.85636 5.8236 5.94143L5.82094 5.93877Z" fill="white" stroke="#BD6B00" stroke-width="0.53173"/>
<path fill-rule="evenodd" clip-rule="evenodd" d="M5.60291 5.79541C5.6481 5.94695 5.71457 6.0985 5.79433 6.08786C5.83421 6.00013 5.71723 5.98949 5.60291 5.79541Z" fill="white" stroke="#BD6B00" stroke-width="0.53173"/>
<path fill-rule="evenodd" clip-rule="evenodd" d="M5.82353 6.06382C5.79163 5.99735 5.90329 5.96545 5.92456 5.88037C5.93785 6.00267 5.92722 6.08243 5.82353 6.06382ZM5.63477 5.96811C5.70123 6.1037 5.73048 6.26056 5.82087 6.23663C5.85543 6.13029 5.71984 6.10902 5.63477 5.96811Z" fill="white" stroke="#BD6B00" stroke-width="0.53173"/>
<path fill-rule="evenodd" clip-rule="evenodd" d="M5.83949 6.21271C5.79961 6.13827 5.91128 6.11434 5.94052 6.01597C5.95382 6.14358 5.94052 6.23664 5.83949 6.21005V6.21271ZM6.03092 5.29547C6.09472 5.31143 6.16385 5.23964 6.13992 5.13064C6.06548 5.14659 6.03357 5.21571 6.03092 5.29547ZM5.82088 5.23964C5.8262 5.27155 5.86608 5.27421 5.85279 5.22901C5.84286 5.19969 5.84286 5.16793 5.85279 5.13861C5.8656 5.09885 5.8656 5.05608 5.85279 5.01632C5.84215 4.98973 5.80493 5.00568 5.82088 5.02695C5.83683 5.05088 5.83949 5.10139 5.8262 5.12532C5.81025 5.15988 5.81557 5.20508 5.82088 5.23964ZM6.42971 5.66503C6.40313 5.69959 6.35261 5.67566 6.39249 5.62515C6.4244 5.58527 6.47225 5.5507 6.47225 5.50817C6.47757 5.45499 6.50681 5.37523 6.53606 5.34599C6.5653 5.31674 6.59987 5.35662 6.56796 5.37789C6.5334 5.39916 6.50947 5.49487 6.51213 5.53209C6.50947 5.58527 6.45896 5.62515 6.42971 5.66503ZM6.34995 5.60388C6.32337 5.6411 6.28615 5.61717 6.30742 5.55868C6.32603 5.5188 6.32868 5.46563 6.34995 5.43638C6.38186 5.39119 6.42971 5.35396 6.45896 5.32472C6.49086 5.29813 6.51213 5.32472 6.48554 5.35131C6.45295 5.38386 6.42357 5.41947 6.39781 5.45765C6.36059 5.51614 6.37654 5.564 6.34995 5.60388ZM5.93255 5.41245C5.92989 5.46563 5.97243 5.47626 5.96977 5.40182C5.96977 5.32206 5.91128 5.24762 5.94318 5.12798C5.96445 5.06949 5.96445 4.96048 5.95382 4.90465C5.94318 4.84616 5.90064 4.88338 5.91925 4.92858C5.9352 4.98175 5.91659 5.07746 5.9033 5.12798C5.86342 5.27155 5.9352 5.34067 5.92989 5.41245H5.93255ZM6.04687 5.12C6.04155 5.17052 5.99901 5.17318 6.01231 5.10671C6.02294 5.05354 6.02294 5.011 6.01231 4.9658C5.99635 4.90997 6.00167 4.81426 6.01231 4.77438C6.0256 4.73184 6.06548 4.75577 6.04953 4.78767C6.03097 4.83793 6.02818 4.89265 6.04155 4.94453C6.0575 4.99771 6.05484 5.07215 6.04687 5.12266V5.12ZM5.63212 6.10636C5.65339 6.13029 5.68529 6.11434 5.65871 6.07978C5.63212 6.05319 5.6401 6.04787 5.62414 6.01597C5.60819 5.97875 5.61085 5.96014 5.59224 5.93621C5.57363 5.90962 5.5497 5.93621 5.56565 5.95482C5.58692 5.98141 5.5816 5.99736 5.59224 6.02129C5.61883 6.06117 5.61085 6.08243 5.63212 6.10636ZM6.17448 6.76039C6.20698 6.77835 6.23461 6.80396 6.25499 6.83499C6.27538 6.86603 6.28789 6.90156 6.29146 6.93852C6.29424 7.00472 6.31245 7.06936 6.34464 7.12728C6.29146 7.11399 6.26488 7.02891 6.2569 6.9465C6.24892 6.86142 6.20373 6.82686 6.17714 6.76039H6.17448ZM6.31007 6.91725C6.35527 6.99967 6.41642 7.03157 6.42174 7.09272C6.42705 7.16451 6.43237 7.16716 6.45098 7.23629C6.39781 7.223 6.38452 7.21768 6.37122 7.11133C6.36325 7.03689 6.3021 6.98638 6.31007 6.91725Z" fill="white" stroke="#BD6B00" stroke-width="0.53173"/>
<path fill-rule="evenodd" clip-rule="evenodd" d="M7.70851 7.68303C7.7351 7.73088 7.76169 7.80267 7.81486 7.78937C7.81486 7.75481 7.75903 7.72822 7.70851 7.68303ZM7.78827 7.69898C7.88664 7.74152 7.97438 7.73088 7.98767 7.79469C7.89196 7.80532 7.85474 7.7681 7.78561 7.69898H7.78827ZM7.36023 7.36133C7.42629 7.41268 7.47312 7.4848 7.49316 7.56604C7.51459 7.63954 7.54685 7.70943 7.58887 7.77342C7.51973 7.72696 7.46969 7.6571 7.44797 7.57668C7.42935 7.49692 7.40543 7.43577 7.36023 7.36399V7.36133ZM7.44265 7.36133C7.51709 7.41982 7.58622 7.48894 7.60748 7.57136C7.62875 7.64846 7.64205 7.70695 7.69256 7.78406C7.6128 7.73354 7.58356 7.6591 7.55963 7.57668C7.54102 7.49692 7.49316 7.43843 7.44265 7.36399V7.36133ZM7.68724 7.55541C7.6862 7.54876 7.68748 7.54196 7.69087 7.53615C7.69427 7.53034 7.69956 7.52587 7.70585 7.52351C7.7286 7.51548 7.75166 7.50839 7.77498 7.50224C7.80157 7.49426 7.81752 7.51287 7.81752 7.52617V7.57934C7.81752 7.59795 7.8122 7.60061 7.79891 7.60327C7.7803 7.60592 7.75371 7.60858 7.7351 7.62188C7.71915 7.63251 7.7032 7.62454 7.69522 7.60858L7.68724 7.55541ZM7.96906 7.55541C7.96906 7.53946 7.96374 7.52616 7.95311 7.52351C7.93293 7.51515 7.9111 7.51152 7.8893 7.51287C7.86271 7.51287 7.86006 7.51819 7.86006 7.52882V7.58466C7.86006 7.60593 7.86006 7.60593 7.87069 7.61124C7.8893 7.61124 7.91855 7.61124 7.93716 7.62719C7.95045 7.63517 7.96374 7.62719 7.9664 7.61124L7.96906 7.55541Z" fill="white"/>
<path fill-rule="evenodd" clip-rule="evenodd" d="M8.75865 8.30208C8.75865 8.33398 8.76396 8.36057 8.78523 8.3845C8.66361 8.34776 8.53261 8.3582 8.41834 8.41374C8.37048 8.43501 8.31199 8.38716 8.36782 8.34196C8.44758 8.28081 8.62571 8.31537 8.75865 8.30208ZM7.22992 8.30208C7.23224 8.32912 7.22861 8.35635 7.21929 8.38184C7.33627 8.33664 7.46123 8.37652 7.58086 8.42438C7.66062 8.45894 7.6686 8.39779 7.65531 8.37918C7.6406 8.35695 7.62094 8.33842 7.59788 8.32504C7.57482 8.31166 7.54898 8.30381 7.52237 8.30208H7.22992ZM7.33095 7.72515C7.29639 7.71185 7.25917 7.72515 7.22461 7.76237C7.11028 7.87403 6.97469 7.98304 6.86569 8.07077C6.82581 8.10534 6.78593 8.16914 6.95608 8.23029C6.96406 8.23561 7.08901 8.28347 7.16877 8.28347C7.20334 8.28347 7.20334 8.33132 7.19536 8.34462C7.18207 8.3712 7.1927 8.38184 7.16612 8.40577C7.13687 8.43235 7.16612 8.4616 7.1927 8.44033C7.28841 8.35525 7.44793 8.41108 7.59947 8.45894C7.6367 8.46957 7.7005 8.46692 7.7005 8.4164C7.7005 8.36323 7.74038 8.32601 7.76431 8.32335C7.82812 8.33398 8.13652 8.33664 8.22958 8.32601C8.28275 8.31803 8.28807 8.40311 8.31731 8.43235C8.33858 8.45628 8.41568 8.4616 8.47151 8.43767C8.57786 8.38981 8.73738 8.38981 8.80384 8.43767C8.83043 8.45628 8.85436 8.43767 8.83841 8.41906C8.81714 8.39247 8.8198 8.37652 8.80916 8.35525C8.78257 8.30208 8.80384 8.29144 8.83043 8.28879C9.12288 8.24891 9.21859 8.15053 9.1282 8.06812C9.01122 7.96709 8.8836 7.8634 8.77194 7.74376C8.74004 7.71185 8.71877 7.69856 8.65762 7.72515C8.4459 7.82115 8.21732 7.87445 7.98498 7.88201C7.75989 7.86747 7.53883 7.81535 7.33095 7.72781V7.72515Z" fill="white"/>
<path fill-rule="evenodd" clip-rule="evenodd" d="M8.70819 7.74121L8.66565 7.75185C8.42637 7.83692 8.20836 7.89541 7.98238 7.89541C7.76171 7.89541 7.53041 7.8316 7.32037 7.74653C7.30745 7.74207 7.29341 7.74207 7.28049 7.74653C7.2672 7.74919 7.25391 7.75716 7.24593 7.76514C7.14767 7.86341 7.04286 7.9549 6.93221 8.03898C6.9136 8.05227 6.91626 8.08683 6.9455 8.09747C7.16617 8.17723 7.38152 8.32345 7.99833 8.31813C8.62311 8.31282 8.84378 8.16925 9.04052 8.10278C9.05381 8.09747 9.0671 8.08949 9.07508 8.0762C9.07697 8.07303 9.07819 8.06951 9.07864 8.06584C9.0791 8.06218 9.07879 8.05846 9.07774 8.05493C9.07431 8.0466 9.06882 8.03928 9.06178 8.03366C8.94746 7.94061 8.82782 7.86617 8.74806 7.75716C8.74009 7.74387 8.72414 7.74121 8.70819 7.74387V7.74121ZM8.70819 7.7545C8.72148 7.7545 8.73477 7.7545 8.73743 7.76248C8.81719 7.8768 8.94215 7.94858 9.05381 8.04164L9.06444 8.06025C9.06518 8.06192 9.06555 8.06373 9.06555 8.06556C9.06555 8.06739 9.06518 8.0692 9.06444 8.07088C9.06178 8.07886 9.04849 8.08683 9.03786 8.08949C8.8358 8.15862 8.62045 8.30218 8.00099 8.3075C7.38418 8.31282 7.17149 8.16659 6.95082 8.08683C6.92955 8.0762 6.93221 8.05493 6.94019 8.04961C7.05185 7.96454 7.1582 7.86883 7.25391 7.77311C7.26214 7.7654 7.27221 7.75991 7.28315 7.75716H7.31506C7.52518 7.84846 7.75073 7.89898 7.97972 7.90605C8.21102 7.90605 8.43169 7.84756 8.67096 7.76514C8.6838 7.76006 8.69718 7.75649 8.71084 7.7545H8.70819Z" fill="#BD6B00"/>
<path fill-rule="evenodd" clip-rule="evenodd" d="M7.19538 3.72933C7.19538 3.69211 7.24856 3.68945 7.24324 3.73997C7.23526 3.80111 7.36288 3.96063 7.37351 4.059C7.38149 4.12547 7.33363 4.1813 7.28844 4.21852C7.26237 4.23698 7.23175 4.24798 7.19989 4.25032C7.16803 4.25267 7.13614 4.24627 7.10765 4.23182C7.08372 4.21055 7.06245 4.14408 7.08106 4.11749C7.08638 4.10952 7.11562 4.21586 7.17943 4.21586C7.26717 4.21586 7.33895 4.1494 7.33895 4.09091C7.34427 3.98988 7.19804 3.83036 7.19538 3.72933ZM7.44795 3.97924C7.46391 3.96861 7.48518 4.01381 7.46922 4.02444C7.45593 4.03242 7.42934 3.98988 7.44795 3.97659V3.97924ZM7.48783 3.88619C7.47986 3.89151 7.46657 3.88619 7.46922 3.88087C7.49478 3.84538 7.52735 3.81551 7.56494 3.79314C7.57557 3.78782 7.59152 3.80377 7.5862 3.81175C7.55908 3.84327 7.52554 3.86865 7.48783 3.88619ZM7.82282 3.62033C7.8308 3.60437 7.87866 3.58576 7.89195 3.57513C7.90258 3.56184 7.9079 3.58576 7.90258 3.59374C7.89461 3.61235 7.85207 3.63894 7.83346 3.6416C7.82548 3.6416 7.81751 3.63096 7.82282 3.62298V3.62033ZM7.93715 3.6283C7.95114 3.59295 7.97404 3.56181 8.00361 3.53791C8.01691 3.52993 8.03817 3.53791 8.03286 3.54854C8.0148 3.58371 7.98831 3.61385 7.95576 3.63628C7.94778 3.64425 7.93449 3.63628 7.93715 3.6283ZM7.83878 3.70009C7.8308 3.7054 7.83612 3.7187 7.84143 3.72135C7.85739 3.72667 7.88131 3.72667 7.89461 3.72135C7.91056 3.71072 7.90258 3.64425 7.88131 3.67882C7.86536 3.70009 7.85473 3.69477 7.83878 3.70009ZM7.64469 3.84897C7.61013 3.82238 7.65533 3.78516 7.68989 3.81175C7.76167 3.86492 7.58355 4.0723 7.48783 4.16801C7.46922 4.18662 7.45327 4.14142 7.4772 4.11749C7.54642 4.0595 7.60647 3.99138 7.65533 3.91544C7.66596 3.90214 7.67394 3.8729 7.64469 3.84897ZM8.05147 3.6735C8.05413 3.64691 8.00893 3.6735 8.00893 3.63894C8.00893 3.62033 8.05944 3.60703 8.08071 3.6283C8.11528 3.66552 8.08869 3.72667 8.02754 3.73199C7.97968 3.73199 7.89461 3.80377 7.9079 3.81707C7.92119 3.83568 8.05147 3.84631 8.12857 3.83568C8.17642 3.8277 8.16579 3.87024 8.11793 3.87556C8.07008 3.88087 8.03286 3.87556 7.99032 3.89151C7.93715 3.9048 7.91588 3.97127 7.88663 3.99785C7.88131 4.00317 7.86536 3.97659 7.87068 3.96595C7.89195 3.93405 7.92385 3.88619 7.96107 3.87024C7.98234 3.86226 7.89727 3.8596 7.87068 3.85163C7.84941 3.84631 7.85473 3.81707 7.8627 3.80111C7.87334 3.77985 7.9531 3.69743 7.98766 3.70009C8.01691 3.70009 8.04881 3.69211 8.05147 3.6735ZM8.1844 3.67882C8.20035 3.66552 8.21099 3.64425 8.22428 3.63096C8.23226 3.62298 8.24821 3.63096 8.24555 3.65223C8.24289 3.67084 8.21896 3.68413 8.20567 3.69743C8.19238 3.7054 8.17908 3.68679 8.18706 3.67882H8.1844ZM8.35721 3.61767C8.38114 3.61767 8.3838 3.66021 8.36253 3.66552C8.34658 3.67084 8.33594 3.62033 8.35721 3.61767ZM8.30138 3.7506C8.30138 3.79048 8.31999 3.78782 8.35455 3.78516C8.38912 3.78516 8.41836 3.78516 8.41836 3.75326C8.41836 3.7187 8.39975 3.68679 8.39177 3.71072C8.38912 3.73199 8.3838 3.76921 8.3705 3.75326C8.35987 3.73997 8.36519 3.73731 8.34392 3.75858C8.33063 3.77187 8.33063 3.75326 8.32265 3.74262C8.31733 3.73465 8.30138 3.74794 8.30138 3.75326V3.7506ZM8.05678 3.94202C8.04881 3.99254 8.05678 4.06166 8.08071 4.06166C8.11262 4.06166 8.17642 3.95532 8.20833 3.89683C8.22694 3.86492 8.25618 3.8596 8.24289 3.89417C8.22428 3.94468 8.22694 4.05369 8.24289 4.08559C8.25352 4.10154 8.32265 4.06964 8.33328 4.04571C8.35455 4.00051 8.33594 3.91809 8.34392 3.86758C8.34658 3.83568 8.37848 3.8277 8.37582 3.8596C8.37164 3.92599 8.37075 3.99253 8.37316 4.059C8.37316 4.08559 8.45026 4.12281 8.4609 4.04305C8.46622 3.9952 8.4928 3.94468 8.4609 3.89151C8.43963 3.85695 8.49014 3.8596 8.51673 3.90746C8.53534 3.93936 8.50078 3.99254 8.50344 4.03242C8.50344 4.09622 8.45558 4.13345 8.42102 4.13345C8.38912 4.13345 8.36785 4.09357 8.34126 4.09357C8.31467 4.09357 8.28277 4.13876 8.2615 4.1361C8.16579 4.13079 8.2163 3.9952 8.18706 3.99254C8.15515 3.99254 8.12059 4.12547 8.08071 4.12281C8.04349 4.11749 8.00095 4.01115 8.01956 3.96861C8.03286 3.92607 8.05944 3.91544 8.05678 3.94202ZM8.5061 3.72933C8.4609 3.70274 8.5061 3.63096 8.53002 3.65489C8.57256 3.70806 8.6151 3.8277 8.647 3.83834C8.66561 3.84365 8.66296 3.74794 8.67625 3.7054C8.68688 3.67084 8.72411 3.68148 8.71879 3.72401C8.71613 3.73731 8.66562 3.89417 8.67093 3.89948C8.70635 3.96583 8.73571 4.03524 8.75867 4.10686C8.76664 4.13876 8.72942 4.11749 8.72411 4.11218C8.70018 4.07495 8.6603 3.93936 8.6603 3.94734L8.6151 4.15206C8.60978 4.17864 8.5699 4.17332 8.58054 4.12547C8.58851 4.08825 8.64169 3.9048 8.63903 3.89683C8.60858 3.83127 8.56302 3.77387 8.5061 3.72933Z" fill="white"/>
<path fill-rule="evenodd" clip-rule="evenodd" d="M8.58584 4.17066C8.57521 4.17066 8.55394 4.19725 8.61775 4.21054C8.70017 4.22649 8.79322 4.19725 8.81981 4.11483C8.85437 4.01646 8.87298 3.92341 8.89159 3.88884C8.91286 3.84896 8.93945 3.85162 8.91818 3.79313C8.90488 3.74793 8.8783 3.76123 8.87298 3.78516C8.85969 3.8463 8.80385 4.05102 8.78524 4.08558C8.75334 4.15471 8.68687 4.1813 8.58584 4.17066Z" fill="white"/>
<path fill-rule="evenodd" clip-rule="evenodd" d="M8.75606 3.84647C8.74543 3.82786 8.72416 3.84647 8.72948 3.86508C8.73075 3.87259 8.73466 3.8794 8.74051 3.88428C8.74636 3.88915 8.75377 3.89177 8.76138 3.89167C8.77999 3.89167 8.81987 3.89433 8.81987 3.86508C8.81987 3.84381 8.80126 3.8252 8.79063 3.84913C8.77733 3.8704 8.76404 3.86774 8.75606 3.84913V3.84647ZM8.77467 3.76671C8.76936 3.77203 8.77467 3.79596 8.78265 3.7933C8.8132 3.79352 8.84333 3.78621 8.87039 3.77203C8.8757 3.76671 8.87304 3.75342 8.86507 3.75342C8.83848 3.75342 8.79594 3.75342 8.77467 3.76671ZM9.00863 3.82786C9.0299 3.79596 9.08308 3.7933 9.06181 3.83849C9.0072 3.94812 8.95137 4.05714 8.89431 4.16551C8.87304 4.20273 8.85709 4.18412 8.87304 4.15488C8.89165 4.11765 9.00332 3.83584 9.00863 3.82786Z" fill="white"/>
<path fill-rule="evenodd" clip-rule="evenodd" d="M8.80392 4.21871C8.7986 4.19744 8.76404 4.16553 8.76935 4.22402C8.77467 4.32505 8.91558 4.29315 8.95546 4.25859C8.99534 4.22402 8.96343 4.37291 9.01395 4.38886C9.04054 4.39683 9.09371 4.35961 9.12029 4.32505C9.19208 4.232 9.23993 4.09641 9.3064 4.00601C9.33299 3.96879 9.29311 3.94221 9.27981 3.97145C9.21601 4.07248 9.14156 4.27985 9.05915 4.33303C8.99268 4.37557 9.01395 4.27985 9.01129 4.24795C9.00863 4.22668 8.98204 4.19478 8.94748 4.22402C8.91967 4.24628 8.88469 4.25763 8.84911 4.25593C8.8305 4.25593 8.81189 4.25593 8.80392 4.21871Z" fill="white"/>
<path fill-rule="evenodd" clip-rule="evenodd" d="M9.05378 4.03235C9.05378 4.02437 9.02453 4.02172 9.02719 4.05096C9.02719 4.07223 9.05378 4.07755 9.05644 4.07755C9.09632 4.04564 9.04846 4.06159 9.05378 4.02969V4.03235ZM8.99263 4.14933C8.98465 4.14933 8.97668 4.17592 8.99795 4.17858L9.10163 4.17326C9.11227 4.17326 9.11758 4.14933 9.091 4.15199C9.05909 4.15199 9.01921 4.14401 8.99263 4.15199V4.14933ZM7.34426 3.70799C7.35756 3.70799 7.3868 3.74522 7.38414 3.75851C7.38414 3.76383 7.35224 3.75851 7.34426 3.75053C7.33629 3.74256 7.33895 3.70799 7.34426 3.70799ZM7.20336 3.98449C7.17677 4.00045 7.20867 4.02969 7.22994 4.0164C7.30438 3.96588 7.41605 3.91537 7.44263 3.817C7.45061 3.7851 7.47986 3.73458 7.5091 3.72395C7.53569 3.71065 7.57823 3.77446 7.60481 3.72395C7.62076 3.69736 7.67659 3.74256 7.68989 3.71331C7.70584 3.67875 7.69786 3.66014 7.69786 3.62292C7.69786 3.60165 7.67925 3.59633 7.66596 3.63089C7.66064 3.64685 7.66596 3.6628 7.6633 3.67343C7.65798 3.67875 7.64735 3.68407 7.63672 3.67875C7.6314 3.67343 7.63672 3.66014 7.62076 3.65216C7.61545 3.65216 7.60481 3.6495 7.59949 3.65748C7.58088 3.69204 7.57291 3.72395 7.54366 3.68407C7.51973 3.65748 7.50644 3.60165 7.49049 3.67609C7.48517 3.70268 7.44529 3.7399 7.42137 3.7399C7.39212 3.7399 7.4001 3.66014 7.33629 3.67343C7.30173 3.68141 7.30438 3.74522 7.3097 3.76648C7.31768 3.80105 7.41605 3.77712 7.40807 3.79839C7.39212 3.87017 7.29109 3.94196 7.20336 3.98449ZM6.59984 4.33544C6.59718 4.34873 6.61313 4.38063 6.62909 4.38329C6.64504 4.38329 6.65567 4.34873 6.65036 4.33544C6.64504 4.32746 6.6025 4.32746 6.59984 4.33544ZM6.68758 4.46571C6.67694 4.45508 6.64504 4.48432 6.67162 4.50559C6.68492 4.51888 6.73809 4.53483 6.75138 4.51091C6.77265 4.479 6.73277 4.36468 6.75138 4.35139C6.76468 4.33809 6.82583 4.42583 6.85773 4.43115C6.92951 4.44178 6.9109 4.30885 6.99066 4.31948C7.04118 4.3248 7.04649 4.26099 7.03852 4.21846C7.0332 4.17858 6.96939 4.12274 6.94015 4.09616C6.90293 4.06425 6.88432 4.12274 6.90824 4.1387C6.94015 4.16528 6.99598 4.2158 7.00396 4.2477C7.00662 4.26365 6.96674 4.29556 6.95078 4.28758C6.91356 4.26631 6.88166 4.18123 6.84975 4.16262C6.83912 4.15731 6.81253 4.1706 6.82317 4.19719C6.83912 4.22643 6.90293 4.26897 6.90559 4.30087C6.90824 4.32746 6.879 4.38595 6.85773 4.38595C6.8338 4.38595 6.77797 4.31417 6.75936 4.2796C6.74873 4.26631 6.71948 4.26631 6.71416 4.29024C6.71243 4.33935 6.7169 4.38847 6.72746 4.43646C6.73277 4.479 6.70353 4.48166 6.68758 4.46571ZM6.58123 4.23707C6.5706 4.2477 6.6025 4.26897 6.60782 4.26365C6.61845 4.25302 6.66365 4.2025 6.65567 4.18389C6.6477 4.16794 6.58655 4.13072 6.57591 4.14933C6.5573 4.17858 6.6344 4.19453 6.62111 4.2025C6.60624 4.21207 6.59281 4.22371 6.58123 4.23707ZM6.69024 4.01374C6.69024 4.01374 6.7115 4.08021 6.72746 4.05096C6.73809 4.03235 6.69024 4.01374 6.69024 4.01374ZM6.72214 4.12009C6.71682 4.12009 6.69555 4.1387 6.70885 4.14667C6.73012 4.15731 6.78595 4.16794 6.77265 4.12806C6.76468 4.10413 6.85773 4.12806 6.8338 4.06425C6.82419 4.04458 6.80828 4.02867 6.78861 4.01906C6.77797 4.01906 6.74873 4.03235 6.76734 4.04298C6.78063 4.0483 6.82051 4.07223 6.80722 4.08818C6.78861 4.10413 6.77797 4.08021 6.7567 4.08552C6.74607 4.08552 6.75404 4.11743 6.74607 4.1254C6.74607 4.13072 6.72746 4.11477 6.72214 4.11743V4.12009ZM6.86836 3.86751C6.85196 3.88107 6.8407 3.89984 6.83646 3.92069C6.83646 3.926 6.84444 3.93664 6.84975 3.93398C6.86615 3.92155 6.87748 3.90361 6.88166 3.88347C6.88166 3.87549 6.87634 3.8622 6.86836 3.86751ZM6.94281 3.85954C6.92154 3.83295 6.96939 3.79041 6.988 3.84624C7.0013 3.88081 7.13423 4.05628 7.16082 4.11477C7.18209 4.15465 7.16082 4.1706 7.13689 4.14135C7.07042 4.05628 7.01459 3.94993 6.94281 3.85954ZM7.08106 3.8622C7.10499 3.83561 7.15284 3.78244 7.13955 3.75585C7.12891 3.72926 7.09967 3.72926 7.09435 3.73724C7.06776 3.7718 7.11562 3.76383 7.10764 3.77446C7.09435 3.80105 7.08106 3.817 7.07308 3.84359C7.07042 3.85156 7.07574 3.86751 7.08106 3.8622ZM9.14949 3.94727C9.13088 3.93398 9.16544 3.86751 9.18937 3.8941C9.25052 3.96588 9.27976 4.2025 9.29837 4.38063C9.29837 4.38063 9.27179 4.40456 9.27179 4.39924C9.27179 4.30619 9.23191 4.0164 9.14949 3.94727ZM7.73774 3.71863C7.71648 3.67077 7.76699 3.65482 7.77497 3.68673C7.80953 3.84093 7.8946 3.95791 7.96107 4.06159C7.97968 4.0935 7.96107 4.11477 7.91587 4.08286C7.88397 4.06159 7.84941 3.97918 7.83611 3.97652C7.80421 3.9712 7.73509 4.10945 7.59418 4.06957C7.55696 4.05894 7.55961 3.94993 7.55696 3.90208C7.55696 3.87815 7.58354 3.87549 7.58354 3.90208C7.58354 3.94727 7.58354 4.04033 7.63937 4.04564C7.68723 4.04564 7.78826 3.98184 7.80953 3.92866C7.8308 3.87549 7.75901 3.7718 7.73774 3.71597V3.71863Z" fill="white"/>
<path fill-rule="evenodd" clip-rule="evenodd" d="M9.18667 4.36224C9.1973 4.33034 9.34885 4.07511 9.37012 4.01928C9.38075 3.99269 9.42329 4.06713 9.38075 4.10701C9.34353 4.13892 9.23452 4.31971 9.21325 4.38351C9.20262 4.4101 9.17603 4.39681 9.18667 4.36224Z" fill="white"/>
<path fill-rule="evenodd" clip-rule="evenodd" d="M9.44461 4.12011C9.4712 4.01376 9.54033 4.13606 9.47918 4.19455C9.38878 4.28494 9.35954 4.45775 9.21331 4.48434C9.17609 4.49232 9.10697 4.46573 9.0857 4.44978C9.07772 4.44446 9.09101 4.40724 9.11494 4.42585C9.14951 4.45244 9.22395 4.46041 9.26383 4.42851C9.3507 4.34382 9.41315 4.23728 9.44461 4.12011ZM7.92919 4.45775C7.92121 4.46573 7.9026 4.46573 7.89994 4.47637C7.89197 4.51359 7.89994 4.53486 7.89197 4.57208C7.88399 4.6093 7.85741 4.6093 7.86006 4.58005C7.86006 4.54283 7.89463 4.487 7.8707 4.48434C7.85475 4.48168 7.84411 4.46041 7.86006 4.44978C7.88931 4.43117 7.90526 4.43383 7.92387 4.43914C7.93185 4.4418 7.93451 4.45244 7.92919 4.45775Z" fill="white"/>
<path fill-rule="evenodd" clip-rule="evenodd" d="M7.90786 4.40445C7.87064 4.44167 7.83341 4.45496 7.79885 4.4975C7.7829 4.51345 7.78556 4.53738 7.77492 4.56131C7.76695 4.58523 7.7377 4.58789 7.72973 4.58523C7.71643 4.5746 7.71909 4.53206 7.70314 4.55333C7.68719 4.57726 7.67921 4.6065 7.65794 4.6065C7.63933 4.6065 7.60477 4.56662 7.62338 4.56662C7.68453 4.55865 7.68187 4.51345 7.70314 4.50813C7.72973 4.50547 7.72973 4.54801 7.74834 4.54004C7.75897 4.53472 7.76695 4.4842 7.78024 4.47091C7.82012 4.42837 7.85202 4.4071 7.89456 4.3752C7.91317 4.35925 7.92913 4.38849 7.90786 4.4071V4.40445ZM8.04876 4.53738C8.01686 4.54269 8.02218 4.58257 8.03281 4.58523C8.04611 4.59321 8.07003 4.59587 8.07801 4.55067C8.08333 4.53206 8.08599 4.64372 8.12587 4.60119C8.15245 4.5746 8.20828 4.6065 8.23221 4.5746C8.25082 4.55067 8.2588 4.53472 8.24285 4.50282C8.23753 4.49484 8.21626 4.4975 8.21626 4.52143C8.21626 4.54269 8.20297 4.56662 8.1817 4.56396C8.17106 4.56131 8.18701 4.51345 8.17638 4.50016C8.1739 4.49772 8.17055 4.49636 8.16707 4.49636C8.1636 4.49636 8.16025 4.49772 8.15777 4.50016C8.14979 4.51079 8.16574 4.55865 8.14182 4.56396C8.10991 4.56928 8.12587 4.53206 8.11523 4.52674C8.07003 4.50547 8.06737 4.53206 8.04876 4.53472V4.53738ZM8.28804 4.45762C8.31197 4.4523 8.30399 4.4523 8.34122 4.42306C8.35451 4.41242 8.35717 4.44432 8.35451 4.45762C8.35451 4.47623 8.32792 4.46294 8.31995 4.48155C8.30931 4.50547 8.31463 4.56131 8.30931 4.58257C8.30931 4.59321 8.28804 4.59321 8.28804 4.58257C8.28273 4.55599 8.2907 4.5294 8.28804 4.49484C8.28804 4.4842 8.27475 4.46559 8.28804 4.46028V4.45762ZM8.15511 4.39115C8.14979 4.41508 8.14979 4.43369 8.14979 4.4523C8.14979 4.46559 8.17638 4.45762 8.17638 4.45496C8.17638 4.43369 8.1817 4.40179 8.17638 4.39381C8.17106 4.39115 8.15777 4.38583 8.15511 4.39115Z" fill="white"/>
<path fill-rule="evenodd" clip-rule="evenodd" d="M7.98768 4.14404L7.95046 4.29293L7.89728 4.1919V4.29559L7.7803 4.15734L7.82018 4.30622L7.71384 4.21583L7.77233 4.31685L7.58622 4.19722L7.7032 4.33547L7.55432 4.26102L7.66066 4.35142L7.42139 4.26102L7.65269 4.37534C7.75777 4.32751 7.87225 4.30389 7.98768 4.30622C8.11795 4.30622 8.23493 4.33281 8.32001 4.37534L8.55397 4.26102L8.31469 4.35142L8.42104 4.26102L8.27481 4.33547L8.38913 4.19722L8.20303 4.31685L8.26152 4.21583L8.15517 4.30356L8.19505 4.15734L8.08073 4.29559V4.1919L8.02756 4.29293L7.98768 4.14404Z" fill="white"/>
<path d="M7.78252 7.37492L7.77502 7.43992H7.76502L7.76252 7.39492C7.75957 7.38124 7.75539 7.36785 7.75002 7.35492C7.7469 7.34372 7.74272 7.33283 7.73752 7.32242L7.71252 7.28742L7.73252 7.23242C7.74922 7.24948 7.76201 7.26995 7.77002 7.29242C7.77879 7.31817 7.78302 7.34523 7.78252 7.37242V7.37492ZM7.95752 7.26742C7.95752 7.28492 7.95252 7.29742 7.94502 7.30492C7.94002 7.31242 7.93002 7.31992 7.91252 7.32242L7.92252 7.35992C7.92503 7.3765 7.92503 7.39335 7.92252 7.40992C7.922 7.42078 7.92117 7.43162 7.92002 7.44242H7.91002C7.91005 7.43154 7.90922 7.42067 7.90752 7.40992C7.90663 7.40145 7.90496 7.39308 7.90252 7.38492L7.89252 7.35992C7.88757 7.34784 7.88172 7.33614 7.87502 7.32492L7.85002 7.28242L7.86502 7.23242L7.89002 7.25742C7.89752 7.26242 7.90502 7.26492 7.91502 7.26492C7.93502 7.26492 7.94502 7.25492 7.94502 7.23242H7.95502V7.26742H7.95752ZM8.11502 7.38742L8.10252 7.43992C8.09252 7.43992 8.08752 7.43242 8.08252 7.42242L8.07252 7.38992C8.07072 7.37583 8.06988 7.36163 8.07002 7.34742C8.06194 7.35015 8.05354 7.35183 8.04502 7.35242C8.03335 7.35299 8.02186 7.34945 8.01252 7.34242C8.00871 7.33945 8.00561 7.33566 8.00345 7.33134C8.00129 7.32701 8.00012 7.32226 8.00002 7.31742C8.00002 7.29492 8.00752 7.27492 8.01752 7.25992C8.03002 7.24242 8.04252 7.23492 8.05502 7.23242C8.06752 7.23242 8.07502 7.23492 8.08002 7.24242C8.08429 7.24921 8.08686 7.25693 8.08752 7.26492V7.31492C8.08752 7.33742 8.09002 7.35242 8.09502 7.36242C8.09502 7.36992 8.10252 7.37742 8.11502 7.38742ZM8.06502 7.29992C8.06502 7.28492 8.05752 7.27992 8.04502 7.27992C8.03988 7.27918 8.03464 7.28005 8.03002 7.28242C8.02502 7.28492 8.02502 7.28742 8.02502 7.28992C8.02502 7.29742 8.03252 7.30242 8.05002 7.30242L8.06502 7.29992ZM8.28252 7.37492L8.27502 7.43992C8.26252 7.42992 8.25002 7.41492 8.24002 7.38992C8.22631 7.35674 8.21544 7.32245 8.20752 7.28742C8.19505 7.33404 8.18003 7.37995 8.16252 7.42492C8.15699 7.43194 8.15021 7.43787 8.14252 7.44242V7.37992C8.15752 7.36242 8.16502 7.35242 8.16752 7.34242C8.17592 7.32914 8.18264 7.31486 8.18752 7.29992L8.20002 7.23242H8.21002L8.23252 7.29992C8.23752 7.31492 8.24502 7.32992 8.25502 7.33992L8.28002 7.37492" fill="white"/>
<path d="M8.77 7.9849C8.78 7.9949 8.785 8.0049 8.7875 8.0149L8.7975 8.0549L8.7775 8.0574C8.77065 8.04398 8.76226 8.03139 8.7525 8.0199C8.74377 8.00951 8.7346 7.9995 8.725 7.9899C8.71115 7.97706 8.69697 7.96455 8.6825 7.9524C8.66638 7.9376 8.6497 7.92343 8.6325 7.9099C8.6225 7.9049 8.6175 7.8999 8.6175 7.8974C8.61352 7.89139 8.61095 7.88455 8.61 7.8774C8.60738 7.86421 8.60571 7.85084 8.605 7.8374L8.6725 7.8924C8.69402 7.90995 8.71486 7.92829 8.735 7.9474L8.77 7.9849ZM8.5325 7.8399L8.5275 7.8899H8.45L8.4575 7.8399H8.5325ZM8.7425 8.0624L8.5525 8.1199L8.52 8.0699L8.6825 8.0199L8.665 7.9999C8.65855 7.99349 8.65091 7.98839 8.6425 7.9849C8.64257 7.98952 8.64172 7.99411 8.64 7.9984C8.63829 8.00269 8.63574 8.0066 8.6325 8.0099C8.62584 8.01727 8.61714 8.0225 8.6075 8.0249C8.59277 8.02895 8.57723 8.02895 8.5625 8.0249C8.54983 8.02343 8.53821 8.01717 8.53 8.0074C8.51889 7.99119 8.5128 7.97206 8.5125 7.9524C8.5125 7.9274 8.52 7.9124 8.535 7.9074C8.5525 7.9024 8.58 7.9074 8.61 7.9249C8.63945 7.9386 8.66517 7.95918 8.685 7.9849L8.7425 8.0624ZM8.5975 7.9624C8.59114 7.95916 8.58443 7.95664 8.5775 7.9549C8.5726 7.95351 8.56741 7.95351 8.5625 7.9549C8.56 7.95518 8.55759 7.95599 8.55543 7.95729C8.55328 7.95858 8.55142 7.96033 8.55 7.9624C8.54838 7.96457 8.5475 7.9672 8.5475 7.9699C8.5475 7.97261 8.54838 7.97524 8.55 7.9774L8.5625 7.9824H8.5775L8.5875 7.9749L8.5975 7.9624ZM8.3975 7.9224L8.385 7.9724L8.305 7.9649L8.3175 7.9149L8.395 7.9224H8.3975ZM8.5825 8.1149L8.54 8.1249C8.52593 8.12719 8.51158 8.12719 8.4975 8.1249C8.48442 8.12434 8.47163 8.12092 8.46 8.1149C8.4525 8.1274 8.44 8.1399 8.4225 8.1449C8.40979 8.15143 8.39637 8.15646 8.3825 8.1599L8.3525 8.1674L8.3275 8.1174L8.355 8.1099C8.36607 8.10738 8.37693 8.10404 8.3875 8.0999L8.41 8.0874L8.385 8.0749H8.3675C8.36586 8.07448 8.36414 8.07448 8.3625 8.0749C8.36011 8.07683 8.35836 8.07945 8.3575 8.0824H8.345C8.3325 8.0624 8.33 8.0449 8.3375 8.0324C8.345 8.0199 8.36 8.0124 8.3875 8.0074C8.40864 8.00156 8.43072 7.99986 8.4525 8.0024C8.4725 8.0049 8.485 8.0124 8.49 8.0249C8.495 8.0299 8.495 8.0374 8.495 8.0424L8.485 8.0724H8.4975C8.50247 8.07316 8.50753 8.07316 8.5125 8.0724L8.555 8.0649L8.58 8.1149H8.5825ZM8.38 8.1599L8.34 8.1674C8.32107 8.17128 8.30136 8.1677 8.285 8.1574C8.26488 8.14027 8.25013 8.1177 8.2425 8.0924L8.2225 8.0374C8.21876 8.0271 8.21173 8.01832 8.2025 8.0124C8.19549 8.00741 8.18795 8.00321 8.18 7.9999L8.195 7.9474C8.21 7.9549 8.22 7.9624 8.23 7.9724L8.255 8.0149L8.2675 8.0524L8.295 8.1074C8.3025 8.1149 8.3125 8.1174 8.32 8.1149L8.3625 8.1099L8.38 8.1599ZM8.205 7.9724L8.18 8.0199L8.105 8.0024L8.13 7.9549L8.205 7.9724ZM8.25 8.1824L8.0625 8.1999L8.0525 8.1499L8.2075 8.1324C8.20403 8.12472 8.19891 8.11789 8.1925 8.1124C8.18453 8.10682 8.17618 8.10181 8.1675 8.0974L8.18 8.0474C8.1975 8.0574 8.21 8.0699 8.22 8.0799C8.2275 8.0924 8.235 8.1099 8.24 8.1324L8.25 8.1824ZM8.1 8.2074C8.08158 8.20693 8.06321 8.20526 8.045 8.2024C8.03051 8.19944 8.01629 8.19526 8.0025 8.1899C7.99212 8.19454 7.9812 8.1979 7.97 8.1999C7.95586 8.20112 7.94164 8.20112 7.9275 8.1999H7.8775C7.86703 8.19995 7.85672 8.19738 7.8475 8.1924C7.84 8.1874 7.835 8.1799 7.8275 8.1674C7.81701 8.17842 7.8042 8.18695 7.79 8.1924L7.7475 8.1949H7.705L7.71 8.1424H7.7525C7.7725 8.1424 7.79 8.1424 7.805 8.1324C7.81426 8.12895 7.82229 8.12284 7.82807 8.11483C7.83386 8.10682 7.83714 8.09727 7.8375 8.0874L7.855 8.0899C7.85394 8.10072 7.8531 8.11155 7.8525 8.1224C7.8525 8.1299 7.8525 8.1349 7.86 8.1399C7.8675 8.1449 7.875 8.1474 7.885 8.1474H7.9225C7.9475 8.1474 7.9625 8.1474 7.9725 8.1424C7.9875 8.1374 7.995 8.1299 7.9975 8.1149L8 8.1049C8 8.1049 8.0075 8.1049 8.0125 8.0999L8.025 8.0949V8.1049C8.02505 8.1074 8.02505 8.1099 8.025 8.1124L8.0175 8.1399C8.03379 8.14545 8.05052 8.14963 8.0675 8.1524C8.07 8.1474 8.0675 8.1424 8.065 8.1349L8.0575 8.1199C8.0575 8.1172 8.05838 8.11457 8.06 8.1124L8.0675 8.1074L8.0925 8.0849L8.105 8.1099V8.1349L8.1 8.2074ZM7.8175 7.9899L7.7675 8.0224L7.735 7.9999L7.7 8.0249L7.6525 7.9999L7.6975 7.9674L7.735 7.9874L7.7725 7.9624L7.8175 7.9874V7.9899ZM7.7425 8.1924L7.56 8.1624L7.58 8.1124L7.735 8.1374C7.735 8.1274 7.735 8.1199 7.73 8.1124C7.72645 8.10537 7.72227 8.09868 7.7175 8.0924L7.7575 8.0499C7.7675 8.0649 7.7725 8.0749 7.775 8.0899C7.775 8.1024 7.77 8.1199 7.7625 8.1424L7.7425 8.1924ZM7.59 8.1674L7.55 8.1599C7.5275 8.1549 7.515 8.1449 7.5125 8.1299C7.5075 8.1149 7.515 8.0924 7.5325 8.0599L7.5625 8.0099C7.57 7.9974 7.5725 7.9874 7.57 7.9799C7.56854 7.97368 7.566 7.96776 7.5625 7.9624L7.6175 7.9224C7.625 7.9349 7.625 7.9474 7.625 7.9574C7.625 7.9699 7.6175 7.9849 7.6075 8.0024L7.5875 8.0374C7.57629 8.05399 7.56863 8.07271 7.565 8.0924C7.565 8.1024 7.57 8.1074 7.5775 8.1099L7.6175 8.1199L7.59 8.1699V8.1674ZM7.495 7.9699L7.4325 7.9974L7.3875 7.9549L7.4525 7.9299L7.495 7.9724V7.9699ZM7.47 8.1374C7.45859 8.15109 7.44509 8.16291 7.43 8.1724C7.41709 8.18042 7.40259 8.18554 7.3875 8.1874L7.3275 8.1849C7.30366 8.18136 7.28021 8.1755 7.2575 8.1674C7.22531 8.1584 7.19602 8.14117 7.1725 8.1174C7.1575 8.0974 7.1575 8.0799 7.1725 8.0624C7.18657 8.04611 7.20352 8.03255 7.2225 8.0224C7.2425 8.0099 7.27251 7.9974 7.3175 7.9824L7.3275 7.9949L7.2575 8.0249C7.245 8.0324 7.2325 8.0399 7.225 8.0499C7.215 8.0599 7.21751 8.0749 7.23001 8.0899C7.27513 8.12487 7.33042 8.14418 7.3875 8.1449C7.4175 8.1449 7.4375 8.1374 7.445 8.1274C7.4525 8.1199 7.455 8.1124 7.4575 8.1024L7.4625 8.0624L7.525 8.0249C7.52535 8.03745 7.52451 8.05001 7.5225 8.0624C7.51716 8.07739 7.50863 8.09103 7.4975 8.1024L7.4675 8.1374" fill="#BF0000"/>
<path d="M0 0H80V60H0V0Z" fill="#012169"/>
<path d="M0 0H40V30H0V0Z" fill="#012169"/>
<path d="M4.6875 0L19.9375 11.3125L35.125 0H40V3.875L25 15.0625L40 26.1875V30H35L20 18.8125L5.0625 30H0V26.25L14.9375 15.125L0 4V0H4.6875Z" fill="white"/>
<path d="M26.5 17.5625L40 27.5V30L23.0625 17.5625H26.5ZM15 18.8125L15.375 21L3.375 30H0L15 18.8125ZM40 0V0.1875L24.4375 11.9375L24.5625 9.1875L36.875 0H40ZM0 0L14.9375 11H11.1875L0 2.625V0Z" fill="#C8102E"/>
<path d="M15.0625 0V30H25.0625V0H15.0625ZM0 10V20H40V10H0Z" fill="white"/>
<path d="M0 12.0625V18.0625H40V12.0625H0ZM17.0625 0V30H23.0625V0H17.0625Z" fill="#C8102E"/>
</g>
<defs>
<clipPath id="clip0_914_31989">
<rect width="16" height="12" fill="white"/>
</clipPath>
</defs>
</svg>
